%TF.GenerationSoftware,KiCad,Pcbnew,(7.0.0)*%
%TF.CreationDate,2023-03-08T01:22:31+01:00*%
%TF.ProjectId,booth fendi,626f6f74-6820-4666-956e-64692e6b6963,rev?*%
%TF.SameCoordinates,Original*%
%TF.FileFunction,Drillmap*%
%TF.FilePolarity,Positive*%
%FSLAX45Y45*%
G04 Gerber Fmt 4.5, Leading zero omitted, Abs format (unit mm)*
G04 Created by KiCad (PCBNEW (7.0.0)) date 2023-03-08 01:22:31*
%MOMM*%
%LPD*%
G01*
G04 APERTURE LIST*
%ADD10C,0.100000*%
%ADD11C,0.200000*%
%ADD12C,0.038100*%
%ADD13C,0.101600*%
%ADD14C,0.155000*%
%ADD15C,0.210000*%
G04 APERTURE END LIST*
D10*
X12374500Y-7112000D02*
G75*
G03*
X11874500Y-7612000I0J-500000D01*
G01*
X18542000Y-7612000D02*
X18542000Y-10168000D01*
X18542000Y-7612000D02*
G75*
G03*
X18042000Y-7112000I-500000J0D01*
G01*
X12374500Y-7112000D02*
X18042000Y-7112000D01*
X11874500Y-10168000D02*
G75*
G03*
X12374500Y-10668000I500000J0D01*
G01*
X18042000Y-10668000D02*
X12374500Y-10668000D01*
X18042000Y-10668000D02*
G75*
G03*
X18542000Y-10168000I0J500000D01*
G01*
X11874500Y-10168000D02*
X11874500Y-7612000D01*
D11*
D12*
X12731750Y-9010650D02*
X12769850Y-9048750D01*
X12769850Y-9010650D02*
X12731750Y-9048750D01*
X14458950Y-8477250D02*
X14497050Y-8515350D01*
X14497050Y-8477250D02*
X14458950Y-8515350D01*
X15487650Y-8324850D02*
X15525750Y-8362950D01*
X15525750Y-8324850D02*
X15487650Y-8362950D01*
D13*
X13385800Y-8128000D02*
G75*
G03*
X13385800Y-8128000I-50800J0D01*
G01*
X13385800Y-9652000D02*
G75*
G03*
X13385800Y-9652000I-50800J0D01*
G01*
X13639800Y-8128000D02*
G75*
G03*
X13639800Y-8128000I-50800J0D01*
G01*
X13639800Y-9652000D02*
G75*
G03*
X13639800Y-9652000I-50800J0D01*
G01*
X13893800Y-8128000D02*
G75*
G03*
X13893800Y-8128000I-50800J0D01*
G01*
X13893800Y-9652000D02*
G75*
G03*
X13893800Y-9652000I-50800J0D01*
G01*
X14147800Y-8128000D02*
G75*
G03*
X14147800Y-8128000I-50800J0D01*
G01*
X14147800Y-9652000D02*
G75*
G03*
X14147800Y-9652000I-50800J0D01*
G01*
X14401800Y-8128000D02*
G75*
G03*
X14401800Y-8128000I-50800J0D01*
G01*
X14401800Y-9652000D02*
G75*
G03*
X14401800Y-9652000I-50800J0D01*
G01*
X14655800Y-8128000D02*
G75*
G03*
X14655800Y-8128000I-50800J0D01*
G01*
X14655800Y-9652000D02*
G75*
G03*
X14655800Y-9652000I-50800J0D01*
G01*
X14909800Y-8128000D02*
G75*
G03*
X14909800Y-8128000I-50800J0D01*
G01*
X14909800Y-9652000D02*
G75*
G03*
X14909800Y-9652000I-50800J0D01*
G01*
X15163800Y-8128000D02*
G75*
G03*
X15163800Y-8128000I-50800J0D01*
G01*
X15163800Y-9652000D02*
G75*
G03*
X15163800Y-9652000I-50800J0D01*
G01*
X15417800Y-8128000D02*
G75*
G03*
X15417800Y-8128000I-50800J0D01*
G01*
X15417800Y-9652000D02*
G75*
G03*
X15417800Y-9652000I-50800J0D01*
G01*
X15671800Y-8128000D02*
G75*
G03*
X15671800Y-8128000I-50800J0D01*
G01*
X15671800Y-9652000D02*
G75*
G03*
X15671800Y-9652000I-50800J0D01*
G01*
X15925800Y-8128000D02*
G75*
G03*
X15925800Y-8128000I-50800J0D01*
G01*
X15925800Y-9652000D02*
G75*
G03*
X15925800Y-9652000I-50800J0D01*
G01*
X16179800Y-8128000D02*
G75*
G03*
X16179800Y-8128000I-50800J0D01*
G01*
X16179800Y-9652000D02*
G75*
G03*
X16179800Y-9652000I-50800J0D01*
G01*
X16433800Y-8128000D02*
G75*
G03*
X16433800Y-8128000I-50800J0D01*
G01*
X16433800Y-9652000D02*
G75*
G03*
X16433800Y-9652000I-50800J0D01*
G01*
X16687800Y-8128000D02*
G75*
G03*
X16687800Y-8128000I-50800J0D01*
G01*
X16687800Y-9652000D02*
G75*
G03*
X16687800Y-9652000I-50800J0D01*
G01*
X16941800Y-8128000D02*
G75*
G03*
X16941800Y-8128000I-50800J0D01*
G01*
X16941800Y-9652000D02*
G75*
G03*
X16941800Y-9652000I-50800J0D01*
G01*
D14*
X12319000Y-7806900D02*
X12319000Y-7961900D01*
X12241500Y-7884400D02*
X12396500Y-7884400D01*
X12319000Y-8286900D02*
X12319000Y-8441900D01*
X12241500Y-8364400D02*
X12396500Y-8364400D01*
X12319000Y-8766900D02*
X12319000Y-8921900D01*
X12241500Y-8844400D02*
X12396500Y-8844400D01*
X12319000Y-9246900D02*
X12319000Y-9401900D01*
X12241500Y-9324400D02*
X12396500Y-9324400D01*
X12319000Y-9726900D02*
X12319000Y-9881900D01*
X12241500Y-9804400D02*
X12396500Y-9804400D01*
X12971900Y-7275800D02*
X12971900Y-7430800D01*
X12894400Y-7353300D02*
X13049400Y-7353300D01*
X13451900Y-7275800D02*
X13451900Y-7430800D01*
X13374400Y-7353300D02*
X13529400Y-7353300D01*
X13931900Y-7275800D02*
X13931900Y-7430800D01*
X13854400Y-7353300D02*
X14009400Y-7353300D01*
X14686400Y-7275800D02*
X14686400Y-7430800D01*
X14608900Y-7353300D02*
X14763900Y-7353300D01*
X15166400Y-7275800D02*
X15166400Y-7430800D01*
X15088900Y-7353300D02*
X15243900Y-7353300D01*
X15646400Y-7275800D02*
X15646400Y-7430800D01*
X15568900Y-7353300D02*
X15723900Y-7353300D01*
X16312000Y-7288500D02*
X16312000Y-7443500D01*
X16234500Y-7366000D02*
X16389500Y-7366000D01*
X16792000Y-7288500D02*
X16792000Y-7443500D01*
X16714500Y-7366000D02*
X16869500Y-7366000D01*
X17272000Y-7288500D02*
X17272000Y-7443500D01*
X17194500Y-7366000D02*
X17349500Y-7366000D01*
X18161000Y-7781500D02*
X18161000Y-7936500D01*
X18083500Y-7859000D02*
X18238500Y-7859000D01*
X18161000Y-8261500D02*
X18161000Y-8416500D01*
X18083500Y-8339000D02*
X18238500Y-8339000D01*
X18161000Y-8741500D02*
X18161000Y-8896500D01*
X18083500Y-8819000D02*
X18238500Y-8819000D01*
X18161000Y-9221500D02*
X18161000Y-9376500D01*
X18083500Y-9299000D02*
X18238500Y-9299000D01*
X18161000Y-9701500D02*
X18161000Y-9856500D01*
X18083500Y-9779000D02*
X18238500Y-9779000D01*
D15*
X13536247Y-10361247D02*
X13536247Y-10212753D01*
X13387753Y-10212753D01*
X13387753Y-10361247D01*
X13536247Y-10361247D01*
X14136247Y-10361247D02*
X14136247Y-10212753D01*
X13987753Y-10212753D01*
X13987753Y-10361247D01*
X14136247Y-10361247D01*
X14736247Y-10361247D02*
X14736247Y-10212753D01*
X14587753Y-10212753D01*
X14587753Y-10361247D01*
X14736247Y-10361247D01*
X15336247Y-10361247D02*
X15336247Y-10212753D01*
X15187753Y-10212753D01*
X15187753Y-10361247D01*
X15336247Y-10361247D01*
X15936247Y-10361247D02*
X15936247Y-10212753D01*
X15787753Y-10212753D01*
X15787753Y-10361247D01*
X15936247Y-10361247D01*
X16536247Y-10361247D02*
X16536247Y-10212753D01*
X16387753Y-10212753D01*
X16387753Y-10361247D01*
X16536247Y-10361247D01*
X17135845Y-10361247D02*
X17135845Y-10212753D01*
X16987351Y-10212753D01*
X16987351Y-10361247D01*
X17135845Y-10361247D01*
D11*
X12117119Y-10966476D02*
X12117119Y-10766476D01*
X12117119Y-10766476D02*
X12164738Y-10766476D01*
X12164738Y-10766476D02*
X12193309Y-10776000D01*
X12193309Y-10776000D02*
X12212357Y-10795048D01*
X12212357Y-10795048D02*
X12221881Y-10814095D01*
X12221881Y-10814095D02*
X12231405Y-10852190D01*
X12231405Y-10852190D02*
X12231405Y-10880762D01*
X12231405Y-10880762D02*
X12221881Y-10918857D01*
X12221881Y-10918857D02*
X12212357Y-10937905D01*
X12212357Y-10937905D02*
X12193309Y-10956952D01*
X12193309Y-10956952D02*
X12164738Y-10966476D01*
X12164738Y-10966476D02*
X12117119Y-10966476D01*
X12317119Y-10966476D02*
X12317119Y-10833143D01*
X12317119Y-10871238D02*
X12326643Y-10852190D01*
X12326643Y-10852190D02*
X12336167Y-10842667D01*
X12336167Y-10842667D02*
X12355214Y-10833143D01*
X12355214Y-10833143D02*
X12374262Y-10833143D01*
X12440928Y-10966476D02*
X12440928Y-10833143D01*
X12440928Y-10766476D02*
X12431405Y-10776000D01*
X12431405Y-10776000D02*
X12440928Y-10785524D01*
X12440928Y-10785524D02*
X12450452Y-10776000D01*
X12450452Y-10776000D02*
X12440928Y-10766476D01*
X12440928Y-10766476D02*
X12440928Y-10785524D01*
X12564738Y-10966476D02*
X12545690Y-10956952D01*
X12545690Y-10956952D02*
X12536167Y-10937905D01*
X12536167Y-10937905D02*
X12536167Y-10766476D01*
X12669500Y-10966476D02*
X12650452Y-10956952D01*
X12650452Y-10956952D02*
X12640928Y-10937905D01*
X12640928Y-10937905D02*
X12640928Y-10766476D01*
X12865690Y-10966476D02*
X12865690Y-10766476D01*
X12865690Y-10766476D02*
X12932357Y-10909333D01*
X12932357Y-10909333D02*
X12999024Y-10766476D01*
X12999024Y-10766476D02*
X12999024Y-10966476D01*
X13179976Y-10966476D02*
X13179976Y-10861714D01*
X13179976Y-10861714D02*
X13170452Y-10842667D01*
X13170452Y-10842667D02*
X13151405Y-10833143D01*
X13151405Y-10833143D02*
X13113309Y-10833143D01*
X13113309Y-10833143D02*
X13094262Y-10842667D01*
X13179976Y-10956952D02*
X13160928Y-10966476D01*
X13160928Y-10966476D02*
X13113309Y-10966476D01*
X13113309Y-10966476D02*
X13094262Y-10956952D01*
X13094262Y-10956952D02*
X13084738Y-10937905D01*
X13084738Y-10937905D02*
X13084738Y-10918857D01*
X13084738Y-10918857D02*
X13094262Y-10899810D01*
X13094262Y-10899810D02*
X13113309Y-10890286D01*
X13113309Y-10890286D02*
X13160928Y-10890286D01*
X13160928Y-10890286D02*
X13179976Y-10880762D01*
X13275214Y-10833143D02*
X13275214Y-11033143D01*
X13275214Y-10842667D02*
X13294262Y-10833143D01*
X13294262Y-10833143D02*
X13332357Y-10833143D01*
X13332357Y-10833143D02*
X13351405Y-10842667D01*
X13351405Y-10842667D02*
X13360928Y-10852190D01*
X13360928Y-10852190D02*
X13370452Y-10871238D01*
X13370452Y-10871238D02*
X13370452Y-10928381D01*
X13370452Y-10928381D02*
X13360928Y-10947429D01*
X13360928Y-10947429D02*
X13351405Y-10956952D01*
X13351405Y-10956952D02*
X13332357Y-10966476D01*
X13332357Y-10966476D02*
X13294262Y-10966476D01*
X13294262Y-10966476D02*
X13275214Y-10956952D01*
X13456167Y-10947429D02*
X13465690Y-10956952D01*
X13465690Y-10956952D02*
X13456167Y-10966476D01*
X13456167Y-10966476D02*
X13446643Y-10956952D01*
X13446643Y-10956952D02*
X13456167Y-10947429D01*
X13456167Y-10947429D02*
X13456167Y-10966476D01*
X13456167Y-10842667D02*
X13465690Y-10852190D01*
X13465690Y-10852190D02*
X13456167Y-10861714D01*
X13456167Y-10861714D02*
X13446643Y-10852190D01*
X13446643Y-10852190D02*
X13456167Y-10842667D01*
X13456167Y-10842667D02*
X13456167Y-10861714D01*
D12*
X11831400Y-11293950D02*
X11869500Y-11332050D01*
X11869500Y-11293950D02*
X11831400Y-11332050D01*
D11*
X12155214Y-11186476D02*
X12174262Y-11186476D01*
X12174262Y-11186476D02*
X12193309Y-11196000D01*
X12193309Y-11196000D02*
X12202833Y-11205524D01*
X12202833Y-11205524D02*
X12212357Y-11224571D01*
X12212357Y-11224571D02*
X12221881Y-11262667D01*
X12221881Y-11262667D02*
X12221881Y-11310286D01*
X12221881Y-11310286D02*
X12212357Y-11348381D01*
X12212357Y-11348381D02*
X12202833Y-11367428D01*
X12202833Y-11367428D02*
X12193309Y-11376952D01*
X12193309Y-11376952D02*
X12174262Y-11386476D01*
X12174262Y-11386476D02*
X12155214Y-11386476D01*
X12155214Y-11386476D02*
X12136167Y-11376952D01*
X12136167Y-11376952D02*
X12126643Y-11367428D01*
X12126643Y-11367428D02*
X12117119Y-11348381D01*
X12117119Y-11348381D02*
X12107595Y-11310286D01*
X12107595Y-11310286D02*
X12107595Y-11262667D01*
X12107595Y-11262667D02*
X12117119Y-11224571D01*
X12117119Y-11224571D02*
X12126643Y-11205524D01*
X12126643Y-11205524D02*
X12136167Y-11196000D01*
X12136167Y-11196000D02*
X12155214Y-11186476D01*
X12307595Y-11367428D02*
X12317119Y-11376952D01*
X12317119Y-11376952D02*
X12307595Y-11386476D01*
X12307595Y-11386476D02*
X12298071Y-11376952D01*
X12298071Y-11376952D02*
X12307595Y-11367428D01*
X12307595Y-11367428D02*
X12307595Y-11386476D01*
X12383786Y-11186476D02*
X12507595Y-11186476D01*
X12507595Y-11186476D02*
X12440928Y-11262667D01*
X12440928Y-11262667D02*
X12469500Y-11262667D01*
X12469500Y-11262667D02*
X12488548Y-11272190D01*
X12488548Y-11272190D02*
X12498071Y-11281714D01*
X12498071Y-11281714D02*
X12507595Y-11300762D01*
X12507595Y-11300762D02*
X12507595Y-11348381D01*
X12507595Y-11348381D02*
X12498071Y-11367428D01*
X12498071Y-11367428D02*
X12488548Y-11376952D01*
X12488548Y-11376952D02*
X12469500Y-11386476D01*
X12469500Y-11386476D02*
X12412357Y-11386476D01*
X12412357Y-11386476D02*
X12393309Y-11376952D01*
X12393309Y-11376952D02*
X12383786Y-11367428D01*
X12621881Y-11272190D02*
X12602833Y-11262667D01*
X12602833Y-11262667D02*
X12593309Y-11253143D01*
X12593309Y-11253143D02*
X12583786Y-11234095D01*
X12583786Y-11234095D02*
X12583786Y-11224571D01*
X12583786Y-11224571D02*
X12593309Y-11205524D01*
X12593309Y-11205524D02*
X12602833Y-11196000D01*
X12602833Y-11196000D02*
X12621881Y-11186476D01*
X12621881Y-11186476D02*
X12659976Y-11186476D01*
X12659976Y-11186476D02*
X12679024Y-11196000D01*
X12679024Y-11196000D02*
X12688548Y-11205524D01*
X12688548Y-11205524D02*
X12698071Y-11224571D01*
X12698071Y-11224571D02*
X12698071Y-11234095D01*
X12698071Y-11234095D02*
X12688548Y-11253143D01*
X12688548Y-11253143D02*
X12679024Y-11262667D01*
X12679024Y-11262667D02*
X12659976Y-11272190D01*
X12659976Y-11272190D02*
X12621881Y-11272190D01*
X12621881Y-11272190D02*
X12602833Y-11281714D01*
X12602833Y-11281714D02*
X12593309Y-11291238D01*
X12593309Y-11291238D02*
X12583786Y-11310286D01*
X12583786Y-11310286D02*
X12583786Y-11348381D01*
X12583786Y-11348381D02*
X12593309Y-11367428D01*
X12593309Y-11367428D02*
X12602833Y-11376952D01*
X12602833Y-11376952D02*
X12621881Y-11386476D01*
X12621881Y-11386476D02*
X12659976Y-11386476D01*
X12659976Y-11386476D02*
X12679024Y-11376952D01*
X12679024Y-11376952D02*
X12688548Y-11367428D01*
X12688548Y-11367428D02*
X12698071Y-11348381D01*
X12698071Y-11348381D02*
X12698071Y-11310286D01*
X12698071Y-11310286D02*
X12688548Y-11291238D01*
X12688548Y-11291238D02*
X12679024Y-11281714D01*
X12679024Y-11281714D02*
X12659976Y-11272190D01*
X12888548Y-11386476D02*
X12774262Y-11386476D01*
X12831405Y-11386476D02*
X12831405Y-11186476D01*
X12831405Y-11186476D02*
X12812357Y-11215048D01*
X12812357Y-11215048D02*
X12793309Y-11234095D01*
X12793309Y-11234095D02*
X12774262Y-11243619D01*
X12974262Y-11386476D02*
X12974262Y-11253143D01*
X12974262Y-11272190D02*
X12983786Y-11262667D01*
X12983786Y-11262667D02*
X13002833Y-11253143D01*
X13002833Y-11253143D02*
X13031405Y-11253143D01*
X13031405Y-11253143D02*
X13050452Y-11262667D01*
X13050452Y-11262667D02*
X13059976Y-11281714D01*
X13059976Y-11281714D02*
X13059976Y-11386476D01*
X13059976Y-11281714D02*
X13069500Y-11262667D01*
X13069500Y-11262667D02*
X13088548Y-11253143D01*
X13088548Y-11253143D02*
X13117119Y-11253143D01*
X13117119Y-11253143D02*
X13136167Y-11262667D01*
X13136167Y-11262667D02*
X13145690Y-11281714D01*
X13145690Y-11281714D02*
X13145690Y-11386476D01*
X13240929Y-11386476D02*
X13240929Y-11253143D01*
X13240929Y-11272190D02*
X13250452Y-11262667D01*
X13250452Y-11262667D02*
X13269500Y-11253143D01*
X13269500Y-11253143D02*
X13298071Y-11253143D01*
X13298071Y-11253143D02*
X13317119Y-11262667D01*
X13317119Y-11262667D02*
X13326643Y-11281714D01*
X13326643Y-11281714D02*
X13326643Y-11386476D01*
X13326643Y-11281714D02*
X13336167Y-11262667D01*
X13336167Y-11262667D02*
X13355214Y-11253143D01*
X13355214Y-11253143D02*
X13383786Y-11253143D01*
X13383786Y-11253143D02*
X13402833Y-11262667D01*
X13402833Y-11262667D02*
X13412357Y-11281714D01*
X13412357Y-11281714D02*
X13412357Y-11386476D01*
X13770452Y-11176952D02*
X13599024Y-11434095D01*
X13995214Y-11186476D02*
X14014262Y-11186476D01*
X14014262Y-11186476D02*
X14033310Y-11196000D01*
X14033310Y-11196000D02*
X14042833Y-11205524D01*
X14042833Y-11205524D02*
X14052357Y-11224571D01*
X14052357Y-11224571D02*
X14061881Y-11262667D01*
X14061881Y-11262667D02*
X14061881Y-11310286D01*
X14061881Y-11310286D02*
X14052357Y-11348381D01*
X14052357Y-11348381D02*
X14042833Y-11367428D01*
X14042833Y-11367428D02*
X14033310Y-11376952D01*
X14033310Y-11376952D02*
X14014262Y-11386476D01*
X14014262Y-11386476D02*
X13995214Y-11386476D01*
X13995214Y-11386476D02*
X13976167Y-11376952D01*
X13976167Y-11376952D02*
X13966643Y-11367428D01*
X13966643Y-11367428D02*
X13957119Y-11348381D01*
X13957119Y-11348381D02*
X13947595Y-11310286D01*
X13947595Y-11310286D02*
X13947595Y-11262667D01*
X13947595Y-11262667D02*
X13957119Y-11224571D01*
X13957119Y-11224571D02*
X13966643Y-11205524D01*
X13966643Y-11205524D02*
X13976167Y-11196000D01*
X13976167Y-11196000D02*
X13995214Y-11186476D01*
X14147595Y-11367428D02*
X14157119Y-11376952D01*
X14157119Y-11376952D02*
X14147595Y-11386476D01*
X14147595Y-11386476D02*
X14138071Y-11376952D01*
X14138071Y-11376952D02*
X14147595Y-11367428D01*
X14147595Y-11367428D02*
X14147595Y-11386476D01*
X14280929Y-11186476D02*
X14299976Y-11186476D01*
X14299976Y-11186476D02*
X14319024Y-11196000D01*
X14319024Y-11196000D02*
X14328548Y-11205524D01*
X14328548Y-11205524D02*
X14338071Y-11224571D01*
X14338071Y-11224571D02*
X14347595Y-11262667D01*
X14347595Y-11262667D02*
X14347595Y-11310286D01*
X14347595Y-11310286D02*
X14338071Y-11348381D01*
X14338071Y-11348381D02*
X14328548Y-11367428D01*
X14328548Y-11367428D02*
X14319024Y-11376952D01*
X14319024Y-11376952D02*
X14299976Y-11386476D01*
X14299976Y-11386476D02*
X14280929Y-11386476D01*
X14280929Y-11386476D02*
X14261881Y-11376952D01*
X14261881Y-11376952D02*
X14252357Y-11367428D01*
X14252357Y-11367428D02*
X14242833Y-11348381D01*
X14242833Y-11348381D02*
X14233310Y-11310286D01*
X14233310Y-11310286D02*
X14233310Y-11262667D01*
X14233310Y-11262667D02*
X14242833Y-11224571D01*
X14242833Y-11224571D02*
X14252357Y-11205524D01*
X14252357Y-11205524D02*
X14261881Y-11196000D01*
X14261881Y-11196000D02*
X14280929Y-11186476D01*
X14538071Y-11386476D02*
X14423786Y-11386476D01*
X14480929Y-11386476D02*
X14480929Y-11186476D01*
X14480929Y-11186476D02*
X14461881Y-11215048D01*
X14461881Y-11215048D02*
X14442833Y-11234095D01*
X14442833Y-11234095D02*
X14423786Y-11243619D01*
X14719024Y-11186476D02*
X14623786Y-11186476D01*
X14623786Y-11186476D02*
X14614262Y-11281714D01*
X14614262Y-11281714D02*
X14623786Y-11272190D01*
X14623786Y-11272190D02*
X14642833Y-11262667D01*
X14642833Y-11262667D02*
X14690452Y-11262667D01*
X14690452Y-11262667D02*
X14709500Y-11272190D01*
X14709500Y-11272190D02*
X14719024Y-11281714D01*
X14719024Y-11281714D02*
X14728548Y-11300762D01*
X14728548Y-11300762D02*
X14728548Y-11348381D01*
X14728548Y-11348381D02*
X14719024Y-11367428D01*
X14719024Y-11367428D02*
X14709500Y-11376952D01*
X14709500Y-11376952D02*
X14690452Y-11386476D01*
X14690452Y-11386476D02*
X14642833Y-11386476D01*
X14642833Y-11386476D02*
X14623786Y-11376952D01*
X14623786Y-11376952D02*
X14614262Y-11367428D01*
X14852357Y-11186476D02*
X14871405Y-11186476D01*
X14871405Y-11186476D02*
X14890452Y-11196000D01*
X14890452Y-11196000D02*
X14899976Y-11205524D01*
X14899976Y-11205524D02*
X14909500Y-11224571D01*
X14909500Y-11224571D02*
X14919024Y-11262667D01*
X14919024Y-11262667D02*
X14919024Y-11310286D01*
X14919024Y-11310286D02*
X14909500Y-11348381D01*
X14909500Y-11348381D02*
X14899976Y-11367428D01*
X14899976Y-11367428D02*
X14890452Y-11376952D01*
X14890452Y-11376952D02*
X14871405Y-11386476D01*
X14871405Y-11386476D02*
X14852357Y-11386476D01*
X14852357Y-11386476D02*
X14833310Y-11376952D01*
X14833310Y-11376952D02*
X14823786Y-11367428D01*
X14823786Y-11367428D02*
X14814262Y-11348381D01*
X14814262Y-11348381D02*
X14804738Y-11310286D01*
X14804738Y-11310286D02*
X14804738Y-11262667D01*
X14804738Y-11262667D02*
X14814262Y-11224571D01*
X14814262Y-11224571D02*
X14823786Y-11205524D01*
X14823786Y-11205524D02*
X14833310Y-11196000D01*
X14833310Y-11196000D02*
X14852357Y-11186476D01*
X14995214Y-11186476D02*
X14995214Y-11224571D01*
X15071405Y-11186476D02*
X15071405Y-11224571D01*
X15334262Y-11462667D02*
X15324738Y-11453143D01*
X15324738Y-11453143D02*
X15305691Y-11424571D01*
X15305691Y-11424571D02*
X15296167Y-11405524D01*
X15296167Y-11405524D02*
X15286643Y-11376952D01*
X15286643Y-11376952D02*
X15277119Y-11329333D01*
X15277119Y-11329333D02*
X15277119Y-11291238D01*
X15277119Y-11291238D02*
X15286643Y-11243619D01*
X15286643Y-11243619D02*
X15296167Y-11215048D01*
X15296167Y-11215048D02*
X15305691Y-11196000D01*
X15305691Y-11196000D02*
X15324738Y-11167429D01*
X15324738Y-11167429D02*
X15334262Y-11157905D01*
X15391405Y-11186476D02*
X15515214Y-11186476D01*
X15515214Y-11186476D02*
X15448548Y-11262667D01*
X15448548Y-11262667D02*
X15477119Y-11262667D01*
X15477119Y-11262667D02*
X15496167Y-11272190D01*
X15496167Y-11272190D02*
X15505691Y-11281714D01*
X15505691Y-11281714D02*
X15515214Y-11300762D01*
X15515214Y-11300762D02*
X15515214Y-11348381D01*
X15515214Y-11348381D02*
X15505691Y-11367428D01*
X15505691Y-11367428D02*
X15496167Y-11376952D01*
X15496167Y-11376952D02*
X15477119Y-11386476D01*
X15477119Y-11386476D02*
X15419976Y-11386476D01*
X15419976Y-11386476D02*
X15400929Y-11376952D01*
X15400929Y-11376952D02*
X15391405Y-11367428D01*
X15720929Y-11386476D02*
X15720929Y-11186476D01*
X15806643Y-11386476D02*
X15806643Y-11281714D01*
X15806643Y-11281714D02*
X15797119Y-11262667D01*
X15797119Y-11262667D02*
X15778072Y-11253143D01*
X15778072Y-11253143D02*
X15749500Y-11253143D01*
X15749500Y-11253143D02*
X15730452Y-11262667D01*
X15730452Y-11262667D02*
X15720929Y-11272190D01*
X15930452Y-11386476D02*
X15911405Y-11376952D01*
X15911405Y-11376952D02*
X15901881Y-11367428D01*
X15901881Y-11367428D02*
X15892357Y-11348381D01*
X15892357Y-11348381D02*
X15892357Y-11291238D01*
X15892357Y-11291238D02*
X15901881Y-11272190D01*
X15901881Y-11272190D02*
X15911405Y-11262667D01*
X15911405Y-11262667D02*
X15930452Y-11253143D01*
X15930452Y-11253143D02*
X15959024Y-11253143D01*
X15959024Y-11253143D02*
X15978072Y-11262667D01*
X15978072Y-11262667D02*
X15987595Y-11272190D01*
X15987595Y-11272190D02*
X15997119Y-11291238D01*
X15997119Y-11291238D02*
X15997119Y-11348381D01*
X15997119Y-11348381D02*
X15987595Y-11367428D01*
X15987595Y-11367428D02*
X15978072Y-11376952D01*
X15978072Y-11376952D02*
X15959024Y-11386476D01*
X15959024Y-11386476D02*
X15930452Y-11386476D01*
X16111405Y-11386476D02*
X16092357Y-11376952D01*
X16092357Y-11376952D02*
X16082833Y-11357905D01*
X16082833Y-11357905D02*
X16082833Y-11186476D01*
X16263786Y-11376952D02*
X16244738Y-11386476D01*
X16244738Y-11386476D02*
X16206643Y-11386476D01*
X16206643Y-11386476D02*
X16187595Y-11376952D01*
X16187595Y-11376952D02*
X16178072Y-11357905D01*
X16178072Y-11357905D02*
X16178072Y-11281714D01*
X16178072Y-11281714D02*
X16187595Y-11262667D01*
X16187595Y-11262667D02*
X16206643Y-11253143D01*
X16206643Y-11253143D02*
X16244738Y-11253143D01*
X16244738Y-11253143D02*
X16263786Y-11262667D01*
X16263786Y-11262667D02*
X16273310Y-11281714D01*
X16273310Y-11281714D02*
X16273310Y-11300762D01*
X16273310Y-11300762D02*
X16178072Y-11319809D01*
X16349500Y-11376952D02*
X16368548Y-11386476D01*
X16368548Y-11386476D02*
X16406643Y-11386476D01*
X16406643Y-11386476D02*
X16425691Y-11376952D01*
X16425691Y-11376952D02*
X16435214Y-11357905D01*
X16435214Y-11357905D02*
X16435214Y-11348381D01*
X16435214Y-11348381D02*
X16425691Y-11329333D01*
X16425691Y-11329333D02*
X16406643Y-11319809D01*
X16406643Y-11319809D02*
X16378072Y-11319809D01*
X16378072Y-11319809D02*
X16359024Y-11310286D01*
X16359024Y-11310286D02*
X16349500Y-11291238D01*
X16349500Y-11291238D02*
X16349500Y-11281714D01*
X16349500Y-11281714D02*
X16359024Y-11262667D01*
X16359024Y-11262667D02*
X16378072Y-11253143D01*
X16378072Y-11253143D02*
X16406643Y-11253143D01*
X16406643Y-11253143D02*
X16425691Y-11262667D01*
X16501881Y-11462667D02*
X16511405Y-11453143D01*
X16511405Y-11453143D02*
X16530453Y-11424571D01*
X16530453Y-11424571D02*
X16539976Y-11405524D01*
X16539976Y-11405524D02*
X16549500Y-11376952D01*
X16549500Y-11376952D02*
X16559024Y-11329333D01*
X16559024Y-11329333D02*
X16559024Y-11291238D01*
X16559024Y-11291238D02*
X16549500Y-11243619D01*
X16549500Y-11243619D02*
X16539976Y-11215048D01*
X16539976Y-11215048D02*
X16530453Y-11196000D01*
X16530453Y-11196000D02*
X16511405Y-11167429D01*
X16511405Y-11167429D02*
X16501881Y-11157905D01*
D13*
X11869500Y-11577000D02*
G75*
G03*
X11869500Y-11577000I-50800J0D01*
G01*
D11*
X12221881Y-11650476D02*
X12107595Y-11650476D01*
X12164738Y-11650476D02*
X12164738Y-11450476D01*
X12164738Y-11450476D02*
X12145690Y-11479048D01*
X12145690Y-11479048D02*
X12126643Y-11498095D01*
X12126643Y-11498095D02*
X12107595Y-11507619D01*
X12307595Y-11631428D02*
X12317119Y-11640952D01*
X12317119Y-11640952D02*
X12307595Y-11650476D01*
X12307595Y-11650476D02*
X12298071Y-11640952D01*
X12298071Y-11640952D02*
X12307595Y-11631428D01*
X12307595Y-11631428D02*
X12307595Y-11650476D01*
X12440928Y-11450476D02*
X12459976Y-11450476D01*
X12459976Y-11450476D02*
X12479024Y-11460000D01*
X12479024Y-11460000D02*
X12488548Y-11469524D01*
X12488548Y-11469524D02*
X12498071Y-11488571D01*
X12498071Y-11488571D02*
X12507595Y-11526667D01*
X12507595Y-11526667D02*
X12507595Y-11574286D01*
X12507595Y-11574286D02*
X12498071Y-11612381D01*
X12498071Y-11612381D02*
X12488548Y-11631428D01*
X12488548Y-11631428D02*
X12479024Y-11640952D01*
X12479024Y-11640952D02*
X12459976Y-11650476D01*
X12459976Y-11650476D02*
X12440928Y-11650476D01*
X12440928Y-11650476D02*
X12421881Y-11640952D01*
X12421881Y-11640952D02*
X12412357Y-11631428D01*
X12412357Y-11631428D02*
X12402833Y-11612381D01*
X12402833Y-11612381D02*
X12393309Y-11574286D01*
X12393309Y-11574286D02*
X12393309Y-11526667D01*
X12393309Y-11526667D02*
X12402833Y-11488571D01*
X12402833Y-11488571D02*
X12412357Y-11469524D01*
X12412357Y-11469524D02*
X12421881Y-11460000D01*
X12421881Y-11460000D02*
X12440928Y-11450476D01*
X12698071Y-11650476D02*
X12583786Y-11650476D01*
X12640928Y-11650476D02*
X12640928Y-11450476D01*
X12640928Y-11450476D02*
X12621881Y-11479048D01*
X12621881Y-11479048D02*
X12602833Y-11498095D01*
X12602833Y-11498095D02*
X12583786Y-11507619D01*
X12869500Y-11450476D02*
X12831405Y-11450476D01*
X12831405Y-11450476D02*
X12812357Y-11460000D01*
X12812357Y-11460000D02*
X12802833Y-11469524D01*
X12802833Y-11469524D02*
X12783786Y-11498095D01*
X12783786Y-11498095D02*
X12774262Y-11536190D01*
X12774262Y-11536190D02*
X12774262Y-11612381D01*
X12774262Y-11612381D02*
X12783786Y-11631428D01*
X12783786Y-11631428D02*
X12793309Y-11640952D01*
X12793309Y-11640952D02*
X12812357Y-11650476D01*
X12812357Y-11650476D02*
X12850452Y-11650476D01*
X12850452Y-11650476D02*
X12869500Y-11640952D01*
X12869500Y-11640952D02*
X12879024Y-11631428D01*
X12879024Y-11631428D02*
X12888548Y-11612381D01*
X12888548Y-11612381D02*
X12888548Y-11564762D01*
X12888548Y-11564762D02*
X12879024Y-11545714D01*
X12879024Y-11545714D02*
X12869500Y-11536190D01*
X12869500Y-11536190D02*
X12850452Y-11526667D01*
X12850452Y-11526667D02*
X12812357Y-11526667D01*
X12812357Y-11526667D02*
X12793309Y-11536190D01*
X12793309Y-11536190D02*
X12783786Y-11545714D01*
X12783786Y-11545714D02*
X12774262Y-11564762D01*
X12974262Y-11650476D02*
X12974262Y-11517143D01*
X12974262Y-11536190D02*
X12983786Y-11526667D01*
X12983786Y-11526667D02*
X13002833Y-11517143D01*
X13002833Y-11517143D02*
X13031405Y-11517143D01*
X13031405Y-11517143D02*
X13050452Y-11526667D01*
X13050452Y-11526667D02*
X13059976Y-11545714D01*
X13059976Y-11545714D02*
X13059976Y-11650476D01*
X13059976Y-11545714D02*
X13069500Y-11526667D01*
X13069500Y-11526667D02*
X13088548Y-11517143D01*
X13088548Y-11517143D02*
X13117119Y-11517143D01*
X13117119Y-11517143D02*
X13136167Y-11526667D01*
X13136167Y-11526667D02*
X13145690Y-11545714D01*
X13145690Y-11545714D02*
X13145690Y-11650476D01*
X13240929Y-11650476D02*
X13240929Y-11517143D01*
X13240929Y-11536190D02*
X13250452Y-11526667D01*
X13250452Y-11526667D02*
X13269500Y-11517143D01*
X13269500Y-11517143D02*
X13298071Y-11517143D01*
X13298071Y-11517143D02*
X13317119Y-11526667D01*
X13317119Y-11526667D02*
X13326643Y-11545714D01*
X13326643Y-11545714D02*
X13326643Y-11650476D01*
X13326643Y-11545714D02*
X13336167Y-11526667D01*
X13336167Y-11526667D02*
X13355214Y-11517143D01*
X13355214Y-11517143D02*
X13383786Y-11517143D01*
X13383786Y-11517143D02*
X13402833Y-11526667D01*
X13402833Y-11526667D02*
X13412357Y-11545714D01*
X13412357Y-11545714D02*
X13412357Y-11650476D01*
X13770452Y-11440952D02*
X13599024Y-11698095D01*
X13995214Y-11450476D02*
X14014262Y-11450476D01*
X14014262Y-11450476D02*
X14033310Y-11460000D01*
X14033310Y-11460000D02*
X14042833Y-11469524D01*
X14042833Y-11469524D02*
X14052357Y-11488571D01*
X14052357Y-11488571D02*
X14061881Y-11526667D01*
X14061881Y-11526667D02*
X14061881Y-11574286D01*
X14061881Y-11574286D02*
X14052357Y-11612381D01*
X14052357Y-11612381D02*
X14042833Y-11631428D01*
X14042833Y-11631428D02*
X14033310Y-11640952D01*
X14033310Y-11640952D02*
X14014262Y-11650476D01*
X14014262Y-11650476D02*
X13995214Y-11650476D01*
X13995214Y-11650476D02*
X13976167Y-11640952D01*
X13976167Y-11640952D02*
X13966643Y-11631428D01*
X13966643Y-11631428D02*
X13957119Y-11612381D01*
X13957119Y-11612381D02*
X13947595Y-11574286D01*
X13947595Y-11574286D02*
X13947595Y-11526667D01*
X13947595Y-11526667D02*
X13957119Y-11488571D01*
X13957119Y-11488571D02*
X13966643Y-11469524D01*
X13966643Y-11469524D02*
X13976167Y-11460000D01*
X13976167Y-11460000D02*
X13995214Y-11450476D01*
X14147595Y-11631428D02*
X14157119Y-11640952D01*
X14157119Y-11640952D02*
X14147595Y-11650476D01*
X14147595Y-11650476D02*
X14138071Y-11640952D01*
X14138071Y-11640952D02*
X14147595Y-11631428D01*
X14147595Y-11631428D02*
X14147595Y-11650476D01*
X14280929Y-11450476D02*
X14299976Y-11450476D01*
X14299976Y-11450476D02*
X14319024Y-11460000D01*
X14319024Y-11460000D02*
X14328548Y-11469524D01*
X14328548Y-11469524D02*
X14338071Y-11488571D01*
X14338071Y-11488571D02*
X14347595Y-11526667D01*
X14347595Y-11526667D02*
X14347595Y-11574286D01*
X14347595Y-11574286D02*
X14338071Y-11612381D01*
X14338071Y-11612381D02*
X14328548Y-11631428D01*
X14328548Y-11631428D02*
X14319024Y-11640952D01*
X14319024Y-11640952D02*
X14299976Y-11650476D01*
X14299976Y-11650476D02*
X14280929Y-11650476D01*
X14280929Y-11650476D02*
X14261881Y-11640952D01*
X14261881Y-11640952D02*
X14252357Y-11631428D01*
X14252357Y-11631428D02*
X14242833Y-11612381D01*
X14242833Y-11612381D02*
X14233310Y-11574286D01*
X14233310Y-11574286D02*
X14233310Y-11526667D01*
X14233310Y-11526667D02*
X14242833Y-11488571D01*
X14242833Y-11488571D02*
X14252357Y-11469524D01*
X14252357Y-11469524D02*
X14261881Y-11460000D01*
X14261881Y-11460000D02*
X14280929Y-11450476D01*
X14519024Y-11517143D02*
X14519024Y-11650476D01*
X14471405Y-11440952D02*
X14423786Y-11583809D01*
X14423786Y-11583809D02*
X14547595Y-11583809D01*
X14661881Y-11450476D02*
X14680929Y-11450476D01*
X14680929Y-11450476D02*
X14699976Y-11460000D01*
X14699976Y-11460000D02*
X14709500Y-11469524D01*
X14709500Y-11469524D02*
X14719024Y-11488571D01*
X14719024Y-11488571D02*
X14728548Y-11526667D01*
X14728548Y-11526667D02*
X14728548Y-11574286D01*
X14728548Y-11574286D02*
X14719024Y-11612381D01*
X14719024Y-11612381D02*
X14709500Y-11631428D01*
X14709500Y-11631428D02*
X14699976Y-11640952D01*
X14699976Y-11640952D02*
X14680929Y-11650476D01*
X14680929Y-11650476D02*
X14661881Y-11650476D01*
X14661881Y-11650476D02*
X14642833Y-11640952D01*
X14642833Y-11640952D02*
X14633310Y-11631428D01*
X14633310Y-11631428D02*
X14623786Y-11612381D01*
X14623786Y-11612381D02*
X14614262Y-11574286D01*
X14614262Y-11574286D02*
X14614262Y-11526667D01*
X14614262Y-11526667D02*
X14623786Y-11488571D01*
X14623786Y-11488571D02*
X14633310Y-11469524D01*
X14633310Y-11469524D02*
X14642833Y-11460000D01*
X14642833Y-11460000D02*
X14661881Y-11450476D01*
X14852357Y-11450476D02*
X14871405Y-11450476D01*
X14871405Y-11450476D02*
X14890452Y-11460000D01*
X14890452Y-11460000D02*
X14899976Y-11469524D01*
X14899976Y-11469524D02*
X14909500Y-11488571D01*
X14909500Y-11488571D02*
X14919024Y-11526667D01*
X14919024Y-11526667D02*
X14919024Y-11574286D01*
X14919024Y-11574286D02*
X14909500Y-11612381D01*
X14909500Y-11612381D02*
X14899976Y-11631428D01*
X14899976Y-11631428D02*
X14890452Y-11640952D01*
X14890452Y-11640952D02*
X14871405Y-11650476D01*
X14871405Y-11650476D02*
X14852357Y-11650476D01*
X14852357Y-11650476D02*
X14833310Y-11640952D01*
X14833310Y-11640952D02*
X14823786Y-11631428D01*
X14823786Y-11631428D02*
X14814262Y-11612381D01*
X14814262Y-11612381D02*
X14804738Y-11574286D01*
X14804738Y-11574286D02*
X14804738Y-11526667D01*
X14804738Y-11526667D02*
X14814262Y-11488571D01*
X14814262Y-11488571D02*
X14823786Y-11469524D01*
X14823786Y-11469524D02*
X14833310Y-11460000D01*
X14833310Y-11460000D02*
X14852357Y-11450476D01*
X14995214Y-11450476D02*
X14995214Y-11488571D01*
X15071405Y-11450476D02*
X15071405Y-11488571D01*
X15334262Y-11726667D02*
X15324738Y-11717143D01*
X15324738Y-11717143D02*
X15305691Y-11688571D01*
X15305691Y-11688571D02*
X15296167Y-11669524D01*
X15296167Y-11669524D02*
X15286643Y-11640952D01*
X15286643Y-11640952D02*
X15277119Y-11593333D01*
X15277119Y-11593333D02*
X15277119Y-11555238D01*
X15277119Y-11555238D02*
X15286643Y-11507619D01*
X15286643Y-11507619D02*
X15296167Y-11479048D01*
X15296167Y-11479048D02*
X15305691Y-11460000D01*
X15305691Y-11460000D02*
X15324738Y-11431428D01*
X15324738Y-11431428D02*
X15334262Y-11421905D01*
X15391405Y-11450476D02*
X15515214Y-11450476D01*
X15515214Y-11450476D02*
X15448548Y-11526667D01*
X15448548Y-11526667D02*
X15477119Y-11526667D01*
X15477119Y-11526667D02*
X15496167Y-11536190D01*
X15496167Y-11536190D02*
X15505691Y-11545714D01*
X15505691Y-11545714D02*
X15515214Y-11564762D01*
X15515214Y-11564762D02*
X15515214Y-11612381D01*
X15515214Y-11612381D02*
X15505691Y-11631428D01*
X15505691Y-11631428D02*
X15496167Y-11640952D01*
X15496167Y-11640952D02*
X15477119Y-11650476D01*
X15477119Y-11650476D02*
X15419976Y-11650476D01*
X15419976Y-11650476D02*
X15400929Y-11640952D01*
X15400929Y-11640952D02*
X15391405Y-11631428D01*
X15639024Y-11450476D02*
X15658072Y-11450476D01*
X15658072Y-11450476D02*
X15677119Y-11460000D01*
X15677119Y-11460000D02*
X15686643Y-11469524D01*
X15686643Y-11469524D02*
X15696167Y-11488571D01*
X15696167Y-11488571D02*
X15705691Y-11526667D01*
X15705691Y-11526667D02*
X15705691Y-11574286D01*
X15705691Y-11574286D02*
X15696167Y-11612381D01*
X15696167Y-11612381D02*
X15686643Y-11631428D01*
X15686643Y-11631428D02*
X15677119Y-11640952D01*
X15677119Y-11640952D02*
X15658072Y-11650476D01*
X15658072Y-11650476D02*
X15639024Y-11650476D01*
X15639024Y-11650476D02*
X15619976Y-11640952D01*
X15619976Y-11640952D02*
X15610452Y-11631428D01*
X15610452Y-11631428D02*
X15600929Y-11612381D01*
X15600929Y-11612381D02*
X15591405Y-11574286D01*
X15591405Y-11574286D02*
X15591405Y-11526667D01*
X15591405Y-11526667D02*
X15600929Y-11488571D01*
X15600929Y-11488571D02*
X15610452Y-11469524D01*
X15610452Y-11469524D02*
X15619976Y-11460000D01*
X15619976Y-11460000D02*
X15639024Y-11450476D01*
X15911405Y-11650476D02*
X15911405Y-11450476D01*
X15997119Y-11650476D02*
X15997119Y-11545714D01*
X15997119Y-11545714D02*
X15987595Y-11526667D01*
X15987595Y-11526667D02*
X15968548Y-11517143D01*
X15968548Y-11517143D02*
X15939976Y-11517143D01*
X15939976Y-11517143D02*
X15920929Y-11526667D01*
X15920929Y-11526667D02*
X15911405Y-11536190D01*
X16120929Y-11650476D02*
X16101881Y-11640952D01*
X16101881Y-11640952D02*
X16092357Y-11631428D01*
X16092357Y-11631428D02*
X16082833Y-11612381D01*
X16082833Y-11612381D02*
X16082833Y-11555238D01*
X16082833Y-11555238D02*
X16092357Y-11536190D01*
X16092357Y-11536190D02*
X16101881Y-11526667D01*
X16101881Y-11526667D02*
X16120929Y-11517143D01*
X16120929Y-11517143D02*
X16149500Y-11517143D01*
X16149500Y-11517143D02*
X16168548Y-11526667D01*
X16168548Y-11526667D02*
X16178072Y-11536190D01*
X16178072Y-11536190D02*
X16187595Y-11555238D01*
X16187595Y-11555238D02*
X16187595Y-11612381D01*
X16187595Y-11612381D02*
X16178072Y-11631428D01*
X16178072Y-11631428D02*
X16168548Y-11640952D01*
X16168548Y-11640952D02*
X16149500Y-11650476D01*
X16149500Y-11650476D02*
X16120929Y-11650476D01*
X16301881Y-11650476D02*
X16282833Y-11640952D01*
X16282833Y-11640952D02*
X16273310Y-11621905D01*
X16273310Y-11621905D02*
X16273310Y-11450476D01*
X16454262Y-11640952D02*
X16435214Y-11650476D01*
X16435214Y-11650476D02*
X16397119Y-11650476D01*
X16397119Y-11650476D02*
X16378072Y-11640952D01*
X16378072Y-11640952D02*
X16368548Y-11621905D01*
X16368548Y-11621905D02*
X16368548Y-11545714D01*
X16368548Y-11545714D02*
X16378072Y-11526667D01*
X16378072Y-11526667D02*
X16397119Y-11517143D01*
X16397119Y-11517143D02*
X16435214Y-11517143D01*
X16435214Y-11517143D02*
X16454262Y-11526667D01*
X16454262Y-11526667D02*
X16463786Y-11545714D01*
X16463786Y-11545714D02*
X16463786Y-11564762D01*
X16463786Y-11564762D02*
X16368548Y-11583809D01*
X16539976Y-11640952D02*
X16559024Y-11650476D01*
X16559024Y-11650476D02*
X16597119Y-11650476D01*
X16597119Y-11650476D02*
X16616167Y-11640952D01*
X16616167Y-11640952D02*
X16625691Y-11621905D01*
X16625691Y-11621905D02*
X16625691Y-11612381D01*
X16625691Y-11612381D02*
X16616167Y-11593333D01*
X16616167Y-11593333D02*
X16597119Y-11583809D01*
X16597119Y-11583809D02*
X16568548Y-11583809D01*
X16568548Y-11583809D02*
X16549500Y-11574286D01*
X16549500Y-11574286D02*
X16539976Y-11555238D01*
X16539976Y-11555238D02*
X16539976Y-11545714D01*
X16539976Y-11545714D02*
X16549500Y-11526667D01*
X16549500Y-11526667D02*
X16568548Y-11517143D01*
X16568548Y-11517143D02*
X16597119Y-11517143D01*
X16597119Y-11517143D02*
X16616167Y-11526667D01*
X16692357Y-11726667D02*
X16701881Y-11717143D01*
X16701881Y-11717143D02*
X16720929Y-11688571D01*
X16720929Y-11688571D02*
X16730453Y-11669524D01*
X16730453Y-11669524D02*
X16739976Y-11640952D01*
X16739976Y-11640952D02*
X16749500Y-11593333D01*
X16749500Y-11593333D02*
X16749500Y-11555238D01*
X16749500Y-11555238D02*
X16739976Y-11507619D01*
X16739976Y-11507619D02*
X16730453Y-11479048D01*
X16730453Y-11479048D02*
X16720929Y-11460000D01*
X16720929Y-11460000D02*
X16701881Y-11431428D01*
X16701881Y-11431428D02*
X16692357Y-11421905D01*
D14*
X11792000Y-11763500D02*
X11792000Y-11918500D01*
X11714500Y-11841000D02*
X11869500Y-11841000D01*
D11*
X12221881Y-11914476D02*
X12107595Y-11914476D01*
X12164738Y-11914476D02*
X12164738Y-11714476D01*
X12164738Y-11714476D02*
X12145690Y-11743048D01*
X12145690Y-11743048D02*
X12126643Y-11762095D01*
X12126643Y-11762095D02*
X12107595Y-11771619D01*
X12307595Y-11895428D02*
X12317119Y-11904952D01*
X12317119Y-11904952D02*
X12307595Y-11914476D01*
X12307595Y-11914476D02*
X12298071Y-11904952D01*
X12298071Y-11904952D02*
X12307595Y-11895428D01*
X12307595Y-11895428D02*
X12307595Y-11914476D01*
X12498071Y-11714476D02*
X12402833Y-11714476D01*
X12402833Y-11714476D02*
X12393309Y-11809714D01*
X12393309Y-11809714D02*
X12402833Y-11800190D01*
X12402833Y-11800190D02*
X12421881Y-11790667D01*
X12421881Y-11790667D02*
X12469500Y-11790667D01*
X12469500Y-11790667D02*
X12488548Y-11800190D01*
X12488548Y-11800190D02*
X12498071Y-11809714D01*
X12498071Y-11809714D02*
X12507595Y-11828762D01*
X12507595Y-11828762D02*
X12507595Y-11876381D01*
X12507595Y-11876381D02*
X12498071Y-11895428D01*
X12498071Y-11895428D02*
X12488548Y-11904952D01*
X12488548Y-11904952D02*
X12469500Y-11914476D01*
X12469500Y-11914476D02*
X12421881Y-11914476D01*
X12421881Y-11914476D02*
X12402833Y-11904952D01*
X12402833Y-11904952D02*
X12393309Y-11895428D01*
X12688548Y-11714476D02*
X12593309Y-11714476D01*
X12593309Y-11714476D02*
X12583786Y-11809714D01*
X12583786Y-11809714D02*
X12593309Y-11800190D01*
X12593309Y-11800190D02*
X12612357Y-11790667D01*
X12612357Y-11790667D02*
X12659976Y-11790667D01*
X12659976Y-11790667D02*
X12679024Y-11800190D01*
X12679024Y-11800190D02*
X12688548Y-11809714D01*
X12688548Y-11809714D02*
X12698071Y-11828762D01*
X12698071Y-11828762D02*
X12698071Y-11876381D01*
X12698071Y-11876381D02*
X12688548Y-11895428D01*
X12688548Y-11895428D02*
X12679024Y-11904952D01*
X12679024Y-11904952D02*
X12659976Y-11914476D01*
X12659976Y-11914476D02*
X12612357Y-11914476D01*
X12612357Y-11914476D02*
X12593309Y-11904952D01*
X12593309Y-11904952D02*
X12583786Y-11895428D01*
X12821881Y-11714476D02*
X12840929Y-11714476D01*
X12840929Y-11714476D02*
X12859976Y-11724000D01*
X12859976Y-11724000D02*
X12869500Y-11733524D01*
X12869500Y-11733524D02*
X12879024Y-11752571D01*
X12879024Y-11752571D02*
X12888548Y-11790667D01*
X12888548Y-11790667D02*
X12888548Y-11838286D01*
X12888548Y-11838286D02*
X12879024Y-11876381D01*
X12879024Y-11876381D02*
X12869500Y-11895428D01*
X12869500Y-11895428D02*
X12859976Y-11904952D01*
X12859976Y-11904952D02*
X12840929Y-11914476D01*
X12840929Y-11914476D02*
X12821881Y-11914476D01*
X12821881Y-11914476D02*
X12802833Y-11904952D01*
X12802833Y-11904952D02*
X12793309Y-11895428D01*
X12793309Y-11895428D02*
X12783786Y-11876381D01*
X12783786Y-11876381D02*
X12774262Y-11838286D01*
X12774262Y-11838286D02*
X12774262Y-11790667D01*
X12774262Y-11790667D02*
X12783786Y-11752571D01*
X12783786Y-11752571D02*
X12793309Y-11733524D01*
X12793309Y-11733524D02*
X12802833Y-11724000D01*
X12802833Y-11724000D02*
X12821881Y-11714476D01*
X12974262Y-11914476D02*
X12974262Y-11781143D01*
X12974262Y-11800190D02*
X12983786Y-11790667D01*
X12983786Y-11790667D02*
X13002833Y-11781143D01*
X13002833Y-11781143D02*
X13031405Y-11781143D01*
X13031405Y-11781143D02*
X13050452Y-11790667D01*
X13050452Y-11790667D02*
X13059976Y-11809714D01*
X13059976Y-11809714D02*
X13059976Y-11914476D01*
X13059976Y-11809714D02*
X13069500Y-11790667D01*
X13069500Y-11790667D02*
X13088548Y-11781143D01*
X13088548Y-11781143D02*
X13117119Y-11781143D01*
X13117119Y-11781143D02*
X13136167Y-11790667D01*
X13136167Y-11790667D02*
X13145690Y-11809714D01*
X13145690Y-11809714D02*
X13145690Y-11914476D01*
X13240929Y-11914476D02*
X13240929Y-11781143D01*
X13240929Y-11800190D02*
X13250452Y-11790667D01*
X13250452Y-11790667D02*
X13269500Y-11781143D01*
X13269500Y-11781143D02*
X13298071Y-11781143D01*
X13298071Y-11781143D02*
X13317119Y-11790667D01*
X13317119Y-11790667D02*
X13326643Y-11809714D01*
X13326643Y-11809714D02*
X13326643Y-11914476D01*
X13326643Y-11809714D02*
X13336167Y-11790667D01*
X13336167Y-11790667D02*
X13355214Y-11781143D01*
X13355214Y-11781143D02*
X13383786Y-11781143D01*
X13383786Y-11781143D02*
X13402833Y-11790667D01*
X13402833Y-11790667D02*
X13412357Y-11809714D01*
X13412357Y-11809714D02*
X13412357Y-11914476D01*
X13770452Y-11704952D02*
X13599024Y-11962095D01*
X13995214Y-11714476D02*
X14014262Y-11714476D01*
X14014262Y-11714476D02*
X14033310Y-11724000D01*
X14033310Y-11724000D02*
X14042833Y-11733524D01*
X14042833Y-11733524D02*
X14052357Y-11752571D01*
X14052357Y-11752571D02*
X14061881Y-11790667D01*
X14061881Y-11790667D02*
X14061881Y-11838286D01*
X14061881Y-11838286D02*
X14052357Y-11876381D01*
X14052357Y-11876381D02*
X14042833Y-11895428D01*
X14042833Y-11895428D02*
X14033310Y-11904952D01*
X14033310Y-11904952D02*
X14014262Y-11914476D01*
X14014262Y-11914476D02*
X13995214Y-11914476D01*
X13995214Y-11914476D02*
X13976167Y-11904952D01*
X13976167Y-11904952D02*
X13966643Y-11895428D01*
X13966643Y-11895428D02*
X13957119Y-11876381D01*
X13957119Y-11876381D02*
X13947595Y-11838286D01*
X13947595Y-11838286D02*
X13947595Y-11790667D01*
X13947595Y-11790667D02*
X13957119Y-11752571D01*
X13957119Y-11752571D02*
X13966643Y-11733524D01*
X13966643Y-11733524D02*
X13976167Y-11724000D01*
X13976167Y-11724000D02*
X13995214Y-11714476D01*
X14147595Y-11895428D02*
X14157119Y-11904952D01*
X14157119Y-11904952D02*
X14147595Y-11914476D01*
X14147595Y-11914476D02*
X14138071Y-11904952D01*
X14138071Y-11904952D02*
X14147595Y-11895428D01*
X14147595Y-11895428D02*
X14147595Y-11914476D01*
X14280929Y-11714476D02*
X14299976Y-11714476D01*
X14299976Y-11714476D02*
X14319024Y-11724000D01*
X14319024Y-11724000D02*
X14328548Y-11733524D01*
X14328548Y-11733524D02*
X14338071Y-11752571D01*
X14338071Y-11752571D02*
X14347595Y-11790667D01*
X14347595Y-11790667D02*
X14347595Y-11838286D01*
X14347595Y-11838286D02*
X14338071Y-11876381D01*
X14338071Y-11876381D02*
X14328548Y-11895428D01*
X14328548Y-11895428D02*
X14319024Y-11904952D01*
X14319024Y-11904952D02*
X14299976Y-11914476D01*
X14299976Y-11914476D02*
X14280929Y-11914476D01*
X14280929Y-11914476D02*
X14261881Y-11904952D01*
X14261881Y-11904952D02*
X14252357Y-11895428D01*
X14252357Y-11895428D02*
X14242833Y-11876381D01*
X14242833Y-11876381D02*
X14233310Y-11838286D01*
X14233310Y-11838286D02*
X14233310Y-11790667D01*
X14233310Y-11790667D02*
X14242833Y-11752571D01*
X14242833Y-11752571D02*
X14252357Y-11733524D01*
X14252357Y-11733524D02*
X14261881Y-11724000D01*
X14261881Y-11724000D02*
X14280929Y-11714476D01*
X14519024Y-11714476D02*
X14480929Y-11714476D01*
X14480929Y-11714476D02*
X14461881Y-11724000D01*
X14461881Y-11724000D02*
X14452357Y-11733524D01*
X14452357Y-11733524D02*
X14433310Y-11762095D01*
X14433310Y-11762095D02*
X14423786Y-11800190D01*
X14423786Y-11800190D02*
X14423786Y-11876381D01*
X14423786Y-11876381D02*
X14433310Y-11895428D01*
X14433310Y-11895428D02*
X14442833Y-11904952D01*
X14442833Y-11904952D02*
X14461881Y-11914476D01*
X14461881Y-11914476D02*
X14499976Y-11914476D01*
X14499976Y-11914476D02*
X14519024Y-11904952D01*
X14519024Y-11904952D02*
X14528548Y-11895428D01*
X14528548Y-11895428D02*
X14538071Y-11876381D01*
X14538071Y-11876381D02*
X14538071Y-11828762D01*
X14538071Y-11828762D02*
X14528548Y-11809714D01*
X14528548Y-11809714D02*
X14519024Y-11800190D01*
X14519024Y-11800190D02*
X14499976Y-11790667D01*
X14499976Y-11790667D02*
X14461881Y-11790667D01*
X14461881Y-11790667D02*
X14442833Y-11800190D01*
X14442833Y-11800190D02*
X14433310Y-11809714D01*
X14433310Y-11809714D02*
X14423786Y-11828762D01*
X14728548Y-11914476D02*
X14614262Y-11914476D01*
X14671405Y-11914476D02*
X14671405Y-11714476D01*
X14671405Y-11714476D02*
X14652357Y-11743048D01*
X14652357Y-11743048D02*
X14633310Y-11762095D01*
X14633310Y-11762095D02*
X14614262Y-11771619D01*
X14852357Y-11714476D02*
X14871405Y-11714476D01*
X14871405Y-11714476D02*
X14890452Y-11724000D01*
X14890452Y-11724000D02*
X14899976Y-11733524D01*
X14899976Y-11733524D02*
X14909500Y-11752571D01*
X14909500Y-11752571D02*
X14919024Y-11790667D01*
X14919024Y-11790667D02*
X14919024Y-11838286D01*
X14919024Y-11838286D02*
X14909500Y-11876381D01*
X14909500Y-11876381D02*
X14899976Y-11895428D01*
X14899976Y-11895428D02*
X14890452Y-11904952D01*
X14890452Y-11904952D02*
X14871405Y-11914476D01*
X14871405Y-11914476D02*
X14852357Y-11914476D01*
X14852357Y-11914476D02*
X14833310Y-11904952D01*
X14833310Y-11904952D02*
X14823786Y-11895428D01*
X14823786Y-11895428D02*
X14814262Y-11876381D01*
X14814262Y-11876381D02*
X14804738Y-11838286D01*
X14804738Y-11838286D02*
X14804738Y-11790667D01*
X14804738Y-11790667D02*
X14814262Y-11752571D01*
X14814262Y-11752571D02*
X14823786Y-11733524D01*
X14823786Y-11733524D02*
X14833310Y-11724000D01*
X14833310Y-11724000D02*
X14852357Y-11714476D01*
X14995214Y-11714476D02*
X14995214Y-11752571D01*
X15071405Y-11714476D02*
X15071405Y-11752571D01*
X15334262Y-11990667D02*
X15324738Y-11981143D01*
X15324738Y-11981143D02*
X15305691Y-11952571D01*
X15305691Y-11952571D02*
X15296167Y-11933524D01*
X15296167Y-11933524D02*
X15286643Y-11904952D01*
X15286643Y-11904952D02*
X15277119Y-11857333D01*
X15277119Y-11857333D02*
X15277119Y-11819238D01*
X15277119Y-11819238D02*
X15286643Y-11771619D01*
X15286643Y-11771619D02*
X15296167Y-11743048D01*
X15296167Y-11743048D02*
X15305691Y-11724000D01*
X15305691Y-11724000D02*
X15324738Y-11695428D01*
X15324738Y-11695428D02*
X15334262Y-11685905D01*
X15515214Y-11914476D02*
X15400929Y-11914476D01*
X15458071Y-11914476D02*
X15458071Y-11714476D01*
X15458071Y-11714476D02*
X15439024Y-11743048D01*
X15439024Y-11743048D02*
X15419976Y-11762095D01*
X15419976Y-11762095D02*
X15400929Y-11771619D01*
X15610452Y-11914476D02*
X15648548Y-11914476D01*
X15648548Y-11914476D02*
X15667595Y-11904952D01*
X15667595Y-11904952D02*
X15677119Y-11895428D01*
X15677119Y-11895428D02*
X15696167Y-11866857D01*
X15696167Y-11866857D02*
X15705691Y-11828762D01*
X15705691Y-11828762D02*
X15705691Y-11752571D01*
X15705691Y-11752571D02*
X15696167Y-11733524D01*
X15696167Y-11733524D02*
X15686643Y-11724000D01*
X15686643Y-11724000D02*
X15667595Y-11714476D01*
X15667595Y-11714476D02*
X15629500Y-11714476D01*
X15629500Y-11714476D02*
X15610452Y-11724000D01*
X15610452Y-11724000D02*
X15600929Y-11733524D01*
X15600929Y-11733524D02*
X15591405Y-11752571D01*
X15591405Y-11752571D02*
X15591405Y-11800190D01*
X15591405Y-11800190D02*
X15600929Y-11819238D01*
X15600929Y-11819238D02*
X15610452Y-11828762D01*
X15610452Y-11828762D02*
X15629500Y-11838286D01*
X15629500Y-11838286D02*
X15667595Y-11838286D01*
X15667595Y-11838286D02*
X15686643Y-11828762D01*
X15686643Y-11828762D02*
X15696167Y-11819238D01*
X15696167Y-11819238D02*
X15705691Y-11800190D01*
X15911405Y-11914476D02*
X15911405Y-11714476D01*
X15997119Y-11914476D02*
X15997119Y-11809714D01*
X15997119Y-11809714D02*
X15987595Y-11790667D01*
X15987595Y-11790667D02*
X15968548Y-11781143D01*
X15968548Y-11781143D02*
X15939976Y-11781143D01*
X15939976Y-11781143D02*
X15920929Y-11790667D01*
X15920929Y-11790667D02*
X15911405Y-11800190D01*
X16120929Y-11914476D02*
X16101881Y-11904952D01*
X16101881Y-11904952D02*
X16092357Y-11895428D01*
X16092357Y-11895428D02*
X16082833Y-11876381D01*
X16082833Y-11876381D02*
X16082833Y-11819238D01*
X16082833Y-11819238D02*
X16092357Y-11800190D01*
X16092357Y-11800190D02*
X16101881Y-11790667D01*
X16101881Y-11790667D02*
X16120929Y-11781143D01*
X16120929Y-11781143D02*
X16149500Y-11781143D01*
X16149500Y-11781143D02*
X16168548Y-11790667D01*
X16168548Y-11790667D02*
X16178072Y-11800190D01*
X16178072Y-11800190D02*
X16187595Y-11819238D01*
X16187595Y-11819238D02*
X16187595Y-11876381D01*
X16187595Y-11876381D02*
X16178072Y-11895428D01*
X16178072Y-11895428D02*
X16168548Y-11904952D01*
X16168548Y-11904952D02*
X16149500Y-11914476D01*
X16149500Y-11914476D02*
X16120929Y-11914476D01*
X16301881Y-11914476D02*
X16282833Y-11904952D01*
X16282833Y-11904952D02*
X16273310Y-11885905D01*
X16273310Y-11885905D02*
X16273310Y-11714476D01*
X16454262Y-11904952D02*
X16435214Y-11914476D01*
X16435214Y-11914476D02*
X16397119Y-11914476D01*
X16397119Y-11914476D02*
X16378072Y-11904952D01*
X16378072Y-11904952D02*
X16368548Y-11885905D01*
X16368548Y-11885905D02*
X16368548Y-11809714D01*
X16368548Y-11809714D02*
X16378072Y-11790667D01*
X16378072Y-11790667D02*
X16397119Y-11781143D01*
X16397119Y-11781143D02*
X16435214Y-11781143D01*
X16435214Y-11781143D02*
X16454262Y-11790667D01*
X16454262Y-11790667D02*
X16463786Y-11809714D01*
X16463786Y-11809714D02*
X16463786Y-11828762D01*
X16463786Y-11828762D02*
X16368548Y-11847809D01*
X16539976Y-11904952D02*
X16559024Y-11914476D01*
X16559024Y-11914476D02*
X16597119Y-11914476D01*
X16597119Y-11914476D02*
X16616167Y-11904952D01*
X16616167Y-11904952D02*
X16625691Y-11885905D01*
X16625691Y-11885905D02*
X16625691Y-11876381D01*
X16625691Y-11876381D02*
X16616167Y-11857333D01*
X16616167Y-11857333D02*
X16597119Y-11847809D01*
X16597119Y-11847809D02*
X16568548Y-11847809D01*
X16568548Y-11847809D02*
X16549500Y-11838286D01*
X16549500Y-11838286D02*
X16539976Y-11819238D01*
X16539976Y-11819238D02*
X16539976Y-11809714D01*
X16539976Y-11809714D02*
X16549500Y-11790667D01*
X16549500Y-11790667D02*
X16568548Y-11781143D01*
X16568548Y-11781143D02*
X16597119Y-11781143D01*
X16597119Y-11781143D02*
X16616167Y-11790667D01*
X16692357Y-11990667D02*
X16701881Y-11981143D01*
X16701881Y-11981143D02*
X16720929Y-11952571D01*
X16720929Y-11952571D02*
X16730453Y-11933524D01*
X16730453Y-11933524D02*
X16739976Y-11904952D01*
X16739976Y-11904952D02*
X16749500Y-11857333D01*
X16749500Y-11857333D02*
X16749500Y-11819238D01*
X16749500Y-11819238D02*
X16739976Y-11771619D01*
X16739976Y-11771619D02*
X16730453Y-11743048D01*
X16730453Y-11743048D02*
X16720929Y-11724000D01*
X16720929Y-11724000D02*
X16701881Y-11695428D01*
X16701881Y-11695428D02*
X16692357Y-11685905D01*
X11840211Y-12186711D02*
X11840211Y-12045289D01*
X11698789Y-12045289D01*
X11698789Y-12186711D01*
X11840211Y-12186711D01*
X12107595Y-12008524D02*
X12117119Y-11999000D01*
X12117119Y-11999000D02*
X12136167Y-11989476D01*
X12136167Y-11989476D02*
X12183786Y-11989476D01*
X12183786Y-11989476D02*
X12202833Y-11999000D01*
X12202833Y-11999000D02*
X12212357Y-12008524D01*
X12212357Y-12008524D02*
X12221881Y-12027571D01*
X12221881Y-12027571D02*
X12221881Y-12046619D01*
X12221881Y-12046619D02*
X12212357Y-12075190D01*
X12212357Y-12075190D02*
X12098071Y-12189476D01*
X12098071Y-12189476D02*
X12221881Y-12189476D01*
X12307595Y-12170428D02*
X12317119Y-12179952D01*
X12317119Y-12179952D02*
X12307595Y-12189476D01*
X12307595Y-12189476D02*
X12298071Y-12179952D01*
X12298071Y-12179952D02*
X12307595Y-12170428D01*
X12307595Y-12170428D02*
X12307595Y-12189476D01*
X12507595Y-12189476D02*
X12393309Y-12189476D01*
X12450452Y-12189476D02*
X12450452Y-11989476D01*
X12450452Y-11989476D02*
X12431405Y-12018048D01*
X12431405Y-12018048D02*
X12412357Y-12037095D01*
X12412357Y-12037095D02*
X12393309Y-12046619D01*
X12631405Y-11989476D02*
X12650452Y-11989476D01*
X12650452Y-11989476D02*
X12669500Y-11999000D01*
X12669500Y-11999000D02*
X12679024Y-12008524D01*
X12679024Y-12008524D02*
X12688548Y-12027571D01*
X12688548Y-12027571D02*
X12698071Y-12065667D01*
X12698071Y-12065667D02*
X12698071Y-12113286D01*
X12698071Y-12113286D02*
X12688548Y-12151381D01*
X12688548Y-12151381D02*
X12679024Y-12170428D01*
X12679024Y-12170428D02*
X12669500Y-12179952D01*
X12669500Y-12179952D02*
X12650452Y-12189476D01*
X12650452Y-12189476D02*
X12631405Y-12189476D01*
X12631405Y-12189476D02*
X12612357Y-12179952D01*
X12612357Y-12179952D02*
X12602833Y-12170428D01*
X12602833Y-12170428D02*
X12593309Y-12151381D01*
X12593309Y-12151381D02*
X12583786Y-12113286D01*
X12583786Y-12113286D02*
X12583786Y-12065667D01*
X12583786Y-12065667D02*
X12593309Y-12027571D01*
X12593309Y-12027571D02*
X12602833Y-12008524D01*
X12602833Y-12008524D02*
X12612357Y-11999000D01*
X12612357Y-11999000D02*
X12631405Y-11989476D01*
X12821881Y-11989476D02*
X12840929Y-11989476D01*
X12840929Y-11989476D02*
X12859976Y-11999000D01*
X12859976Y-11999000D02*
X12869500Y-12008524D01*
X12869500Y-12008524D02*
X12879024Y-12027571D01*
X12879024Y-12027571D02*
X12888548Y-12065667D01*
X12888548Y-12065667D02*
X12888548Y-12113286D01*
X12888548Y-12113286D02*
X12879024Y-12151381D01*
X12879024Y-12151381D02*
X12869500Y-12170428D01*
X12869500Y-12170428D02*
X12859976Y-12179952D01*
X12859976Y-12179952D02*
X12840929Y-12189476D01*
X12840929Y-12189476D02*
X12821881Y-12189476D01*
X12821881Y-12189476D02*
X12802833Y-12179952D01*
X12802833Y-12179952D02*
X12793309Y-12170428D01*
X12793309Y-12170428D02*
X12783786Y-12151381D01*
X12783786Y-12151381D02*
X12774262Y-12113286D01*
X12774262Y-12113286D02*
X12774262Y-12065667D01*
X12774262Y-12065667D02*
X12783786Y-12027571D01*
X12783786Y-12027571D02*
X12793309Y-12008524D01*
X12793309Y-12008524D02*
X12802833Y-11999000D01*
X12802833Y-11999000D02*
X12821881Y-11989476D01*
X12974262Y-12189476D02*
X12974262Y-12056143D01*
X12974262Y-12075190D02*
X12983786Y-12065667D01*
X12983786Y-12065667D02*
X13002833Y-12056143D01*
X13002833Y-12056143D02*
X13031405Y-12056143D01*
X13031405Y-12056143D02*
X13050452Y-12065667D01*
X13050452Y-12065667D02*
X13059976Y-12084714D01*
X13059976Y-12084714D02*
X13059976Y-12189476D01*
X13059976Y-12084714D02*
X13069500Y-12065667D01*
X13069500Y-12065667D02*
X13088548Y-12056143D01*
X13088548Y-12056143D02*
X13117119Y-12056143D01*
X13117119Y-12056143D02*
X13136167Y-12065667D01*
X13136167Y-12065667D02*
X13145690Y-12084714D01*
X13145690Y-12084714D02*
X13145690Y-12189476D01*
X13240929Y-12189476D02*
X13240929Y-12056143D01*
X13240929Y-12075190D02*
X13250452Y-12065667D01*
X13250452Y-12065667D02*
X13269500Y-12056143D01*
X13269500Y-12056143D02*
X13298071Y-12056143D01*
X13298071Y-12056143D02*
X13317119Y-12065667D01*
X13317119Y-12065667D02*
X13326643Y-12084714D01*
X13326643Y-12084714D02*
X13326643Y-12189476D01*
X13326643Y-12084714D02*
X13336167Y-12065667D01*
X13336167Y-12065667D02*
X13355214Y-12056143D01*
X13355214Y-12056143D02*
X13383786Y-12056143D01*
X13383786Y-12056143D02*
X13402833Y-12065667D01*
X13402833Y-12065667D02*
X13412357Y-12084714D01*
X13412357Y-12084714D02*
X13412357Y-12189476D01*
X13770452Y-11979952D02*
X13599024Y-12237095D01*
X13995214Y-11989476D02*
X14014262Y-11989476D01*
X14014262Y-11989476D02*
X14033310Y-11999000D01*
X14033310Y-11999000D02*
X14042833Y-12008524D01*
X14042833Y-12008524D02*
X14052357Y-12027571D01*
X14052357Y-12027571D02*
X14061881Y-12065667D01*
X14061881Y-12065667D02*
X14061881Y-12113286D01*
X14061881Y-12113286D02*
X14052357Y-12151381D01*
X14052357Y-12151381D02*
X14042833Y-12170428D01*
X14042833Y-12170428D02*
X14033310Y-12179952D01*
X14033310Y-12179952D02*
X14014262Y-12189476D01*
X14014262Y-12189476D02*
X13995214Y-12189476D01*
X13995214Y-12189476D02*
X13976167Y-12179952D01*
X13976167Y-12179952D02*
X13966643Y-12170428D01*
X13966643Y-12170428D02*
X13957119Y-12151381D01*
X13957119Y-12151381D02*
X13947595Y-12113286D01*
X13947595Y-12113286D02*
X13947595Y-12065667D01*
X13947595Y-12065667D02*
X13957119Y-12027571D01*
X13957119Y-12027571D02*
X13966643Y-12008524D01*
X13966643Y-12008524D02*
X13976167Y-11999000D01*
X13976167Y-11999000D02*
X13995214Y-11989476D01*
X14147595Y-12170428D02*
X14157119Y-12179952D01*
X14157119Y-12179952D02*
X14147595Y-12189476D01*
X14147595Y-12189476D02*
X14138071Y-12179952D01*
X14138071Y-12179952D02*
X14147595Y-12170428D01*
X14147595Y-12170428D02*
X14147595Y-12189476D01*
X14280929Y-11989476D02*
X14299976Y-11989476D01*
X14299976Y-11989476D02*
X14319024Y-11999000D01*
X14319024Y-11999000D02*
X14328548Y-12008524D01*
X14328548Y-12008524D02*
X14338071Y-12027571D01*
X14338071Y-12027571D02*
X14347595Y-12065667D01*
X14347595Y-12065667D02*
X14347595Y-12113286D01*
X14347595Y-12113286D02*
X14338071Y-12151381D01*
X14338071Y-12151381D02*
X14328548Y-12170428D01*
X14328548Y-12170428D02*
X14319024Y-12179952D01*
X14319024Y-12179952D02*
X14299976Y-12189476D01*
X14299976Y-12189476D02*
X14280929Y-12189476D01*
X14280929Y-12189476D02*
X14261881Y-12179952D01*
X14261881Y-12179952D02*
X14252357Y-12170428D01*
X14252357Y-12170428D02*
X14242833Y-12151381D01*
X14242833Y-12151381D02*
X14233310Y-12113286D01*
X14233310Y-12113286D02*
X14233310Y-12065667D01*
X14233310Y-12065667D02*
X14242833Y-12027571D01*
X14242833Y-12027571D02*
X14252357Y-12008524D01*
X14252357Y-12008524D02*
X14261881Y-11999000D01*
X14261881Y-11999000D02*
X14280929Y-11989476D01*
X14461881Y-12075190D02*
X14442833Y-12065667D01*
X14442833Y-12065667D02*
X14433310Y-12056143D01*
X14433310Y-12056143D02*
X14423786Y-12037095D01*
X14423786Y-12037095D02*
X14423786Y-12027571D01*
X14423786Y-12027571D02*
X14433310Y-12008524D01*
X14433310Y-12008524D02*
X14442833Y-11999000D01*
X14442833Y-11999000D02*
X14461881Y-11989476D01*
X14461881Y-11989476D02*
X14499976Y-11989476D01*
X14499976Y-11989476D02*
X14519024Y-11999000D01*
X14519024Y-11999000D02*
X14528548Y-12008524D01*
X14528548Y-12008524D02*
X14538071Y-12027571D01*
X14538071Y-12027571D02*
X14538071Y-12037095D01*
X14538071Y-12037095D02*
X14528548Y-12056143D01*
X14528548Y-12056143D02*
X14519024Y-12065667D01*
X14519024Y-12065667D02*
X14499976Y-12075190D01*
X14499976Y-12075190D02*
X14461881Y-12075190D01*
X14461881Y-12075190D02*
X14442833Y-12084714D01*
X14442833Y-12084714D02*
X14433310Y-12094238D01*
X14433310Y-12094238D02*
X14423786Y-12113286D01*
X14423786Y-12113286D02*
X14423786Y-12151381D01*
X14423786Y-12151381D02*
X14433310Y-12170428D01*
X14433310Y-12170428D02*
X14442833Y-12179952D01*
X14442833Y-12179952D02*
X14461881Y-12189476D01*
X14461881Y-12189476D02*
X14499976Y-12189476D01*
X14499976Y-12189476D02*
X14519024Y-12179952D01*
X14519024Y-12179952D02*
X14528548Y-12170428D01*
X14528548Y-12170428D02*
X14538071Y-12151381D01*
X14538071Y-12151381D02*
X14538071Y-12113286D01*
X14538071Y-12113286D02*
X14528548Y-12094238D01*
X14528548Y-12094238D02*
X14519024Y-12084714D01*
X14519024Y-12084714D02*
X14499976Y-12075190D01*
X14614262Y-12008524D02*
X14623786Y-11999000D01*
X14623786Y-11999000D02*
X14642833Y-11989476D01*
X14642833Y-11989476D02*
X14690452Y-11989476D01*
X14690452Y-11989476D02*
X14709500Y-11999000D01*
X14709500Y-11999000D02*
X14719024Y-12008524D01*
X14719024Y-12008524D02*
X14728548Y-12027571D01*
X14728548Y-12027571D02*
X14728548Y-12046619D01*
X14728548Y-12046619D02*
X14719024Y-12075190D01*
X14719024Y-12075190D02*
X14604738Y-12189476D01*
X14604738Y-12189476D02*
X14728548Y-12189476D01*
X14795214Y-11989476D02*
X14928548Y-11989476D01*
X14928548Y-11989476D02*
X14842833Y-12189476D01*
X14995214Y-11989476D02*
X14995214Y-12027571D01*
X15071405Y-11989476D02*
X15071405Y-12027571D01*
X15334262Y-12265667D02*
X15324738Y-12256143D01*
X15324738Y-12256143D02*
X15305691Y-12227571D01*
X15305691Y-12227571D02*
X15296167Y-12208524D01*
X15296167Y-12208524D02*
X15286643Y-12179952D01*
X15286643Y-12179952D02*
X15277119Y-12132333D01*
X15277119Y-12132333D02*
X15277119Y-12094238D01*
X15277119Y-12094238D02*
X15286643Y-12046619D01*
X15286643Y-12046619D02*
X15296167Y-12018048D01*
X15296167Y-12018048D02*
X15305691Y-11999000D01*
X15305691Y-11999000D02*
X15324738Y-11970428D01*
X15324738Y-11970428D02*
X15334262Y-11960905D01*
X15391405Y-11989476D02*
X15524738Y-11989476D01*
X15524738Y-11989476D02*
X15439024Y-12189476D01*
X15720929Y-12189476D02*
X15720929Y-11989476D01*
X15806643Y-12189476D02*
X15806643Y-12084714D01*
X15806643Y-12084714D02*
X15797119Y-12065667D01*
X15797119Y-12065667D02*
X15778072Y-12056143D01*
X15778072Y-12056143D02*
X15749500Y-12056143D01*
X15749500Y-12056143D02*
X15730452Y-12065667D01*
X15730452Y-12065667D02*
X15720929Y-12075190D01*
X15930452Y-12189476D02*
X15911405Y-12179952D01*
X15911405Y-12179952D02*
X15901881Y-12170428D01*
X15901881Y-12170428D02*
X15892357Y-12151381D01*
X15892357Y-12151381D02*
X15892357Y-12094238D01*
X15892357Y-12094238D02*
X15901881Y-12075190D01*
X15901881Y-12075190D02*
X15911405Y-12065667D01*
X15911405Y-12065667D02*
X15930452Y-12056143D01*
X15930452Y-12056143D02*
X15959024Y-12056143D01*
X15959024Y-12056143D02*
X15978072Y-12065667D01*
X15978072Y-12065667D02*
X15987595Y-12075190D01*
X15987595Y-12075190D02*
X15997119Y-12094238D01*
X15997119Y-12094238D02*
X15997119Y-12151381D01*
X15997119Y-12151381D02*
X15987595Y-12170428D01*
X15987595Y-12170428D02*
X15978072Y-12179952D01*
X15978072Y-12179952D02*
X15959024Y-12189476D01*
X15959024Y-12189476D02*
X15930452Y-12189476D01*
X16111405Y-12189476D02*
X16092357Y-12179952D01*
X16092357Y-12179952D02*
X16082833Y-12160905D01*
X16082833Y-12160905D02*
X16082833Y-11989476D01*
X16263786Y-12179952D02*
X16244738Y-12189476D01*
X16244738Y-12189476D02*
X16206643Y-12189476D01*
X16206643Y-12189476D02*
X16187595Y-12179952D01*
X16187595Y-12179952D02*
X16178072Y-12160905D01*
X16178072Y-12160905D02*
X16178072Y-12084714D01*
X16178072Y-12084714D02*
X16187595Y-12065667D01*
X16187595Y-12065667D02*
X16206643Y-12056143D01*
X16206643Y-12056143D02*
X16244738Y-12056143D01*
X16244738Y-12056143D02*
X16263786Y-12065667D01*
X16263786Y-12065667D02*
X16273310Y-12084714D01*
X16273310Y-12084714D02*
X16273310Y-12103762D01*
X16273310Y-12103762D02*
X16178072Y-12122809D01*
X16349500Y-12179952D02*
X16368548Y-12189476D01*
X16368548Y-12189476D02*
X16406643Y-12189476D01*
X16406643Y-12189476D02*
X16425691Y-12179952D01*
X16425691Y-12179952D02*
X16435214Y-12160905D01*
X16435214Y-12160905D02*
X16435214Y-12151381D01*
X16435214Y-12151381D02*
X16425691Y-12132333D01*
X16425691Y-12132333D02*
X16406643Y-12122809D01*
X16406643Y-12122809D02*
X16378072Y-12122809D01*
X16378072Y-12122809D02*
X16359024Y-12113286D01*
X16359024Y-12113286D02*
X16349500Y-12094238D01*
X16349500Y-12094238D02*
X16349500Y-12084714D01*
X16349500Y-12084714D02*
X16359024Y-12065667D01*
X16359024Y-12065667D02*
X16378072Y-12056143D01*
X16378072Y-12056143D02*
X16406643Y-12056143D01*
X16406643Y-12056143D02*
X16425691Y-12065667D01*
X16501881Y-12265667D02*
X16511405Y-12256143D01*
X16511405Y-12256143D02*
X16530453Y-12227571D01*
X16530453Y-12227571D02*
X16539976Y-12208524D01*
X16539976Y-12208524D02*
X16549500Y-12179952D01*
X16549500Y-12179952D02*
X16559024Y-12132333D01*
X16559024Y-12132333D02*
X16559024Y-12094238D01*
X16559024Y-12094238D02*
X16549500Y-12046619D01*
X16549500Y-12046619D02*
X16539976Y-12018048D01*
X16539976Y-12018048D02*
X16530453Y-11999000D01*
X16530453Y-11999000D02*
X16511405Y-11970428D01*
X16511405Y-11970428D02*
X16501881Y-11960905D01*
M02*
