%TF.GenerationSoftware,KiCad,Pcbnew,(7.0.0)*%
%TF.CreationDate,2023-03-06T13:00:14+01:00*%
%TF.ProjectId,booth fendi,626f6f74-6820-4666-956e-64692e6b6963,rev?*%
%TF.SameCoordinates,Original*%
%TF.FileFunction,Copper,L2,Bot*%
%TF.FilePolarity,Positive*%
%FSLAX46Y46*%
G04 Gerber Fmt 4.6, Leading zero omitted, Abs format (unit mm)*
G04 Created by KiCad (PCBNEW (7.0.0)) date 2023-03-06 13:00:14*
%MOMM*%
%LPD*%
G01*
G04 APERTURE LIST*
G04 Aperture macros list*
%AMRoundRect*
0 Rectangle with rounded corners*
0 $1 Rounding radius*
0 $2 $3 $4 $5 $6 $7 $8 $9 X,Y pos of 4 corners*
0 Add a 4 corners polygon primitive as box body*
4,1,4,$2,$3,$4,$5,$6,$7,$8,$9,$2,$3,0*
0 Add four circle primitives for the rounded corners*
1,1,$1+$1,$2,$3*
1,1,$1+$1,$4,$5*
1,1,$1+$1,$6,$7*
1,1,$1+$1,$8,$9*
0 Add four rect primitives between the rounded corners*
20,1,$1+$1,$2,$3,$4,$5,0*
20,1,$1+$1,$4,$5,$6,$7,0*
20,1,$1+$1,$6,$7,$8,$9,0*
20,1,$1+$1,$8,$9,$2,$3,0*%
G04 Aperture macros list end*
%TA.AperFunction,ComponentPad*%
%ADD10C,2.550000*%
%TD*%
%TA.AperFunction,ComponentPad*%
%ADD11RoundRect,0.249999X-1.025001X-1.025001X1.025001X-1.025001X1.025001X1.025001X-1.025001X1.025001X0*%
%TD*%
%TA.AperFunction,ComponentPad*%
%ADD12RoundRect,0.249999X-1.025001X1.025001X-1.025001X-1.025001X1.025001X-1.025001X1.025001X1.025001X0*%
%TD*%
%TA.AperFunction,ComponentPad*%
%ADD13RoundRect,0.249999X1.025001X1.025001X-1.025001X1.025001X-1.025001X-1.025001X1.025001X-1.025001X0*%
%TD*%
%TA.AperFunction,ComponentPad*%
%ADD14RoundRect,0.249999X1.025001X-1.025001X1.025001X1.025001X-1.025001X1.025001X-1.025001X-1.025001X0*%
%TD*%
%TA.AperFunction,ComponentPad*%
%ADD15C,1.727200*%
%TD*%
%TA.AperFunction,ComponentPad*%
%ADD16R,1.727200X1.727200*%
%TD*%
%TA.AperFunction,ComponentPad*%
%ADD17C,3.100000*%
%TD*%
%TA.AperFunction,ComponentPad*%
%ADD18RoundRect,0.249999X-1.300001X-1.300001X1.300001X-1.300001X1.300001X1.300001X-1.300001X1.300001X0*%
%TD*%
%TA.AperFunction,ViaPad*%
%ADD19C,0.762000*%
%TD*%
%TA.AperFunction,Conductor*%
%ADD20C,0.254000*%
%TD*%
%TA.AperFunction,Conductor*%
%ADD21C,0.762000*%
%TD*%
G04 APERTURE END LIST*
D10*
%TO.P,J2,3,Pin_3*%
%TO.N,GND*%
X141680000Y-72390000D03*
%TO.P,J2,2,Pin_2*%
%TO.N,+5V*%
X136880000Y-72390000D03*
D11*
%TO.P,J2,1,Pin_1*%
%TO.N,+12V*%
X132080000Y-72390000D03*
%TD*%
D12*
%TO.P,J6,1,Pin_1*%
%TO.N,+3V3*%
X181610000Y-78590000D03*
D10*
%TO.P,J6,2,Pin_2*%
%TO.N,GND*%
X181610000Y-83390000D03*
%TO.P,J6,3,Pin_3*%
%TO.N,SCL*%
X181610000Y-88190000D03*
%TO.P,J6,4,Pin_4*%
%TO.N,SDA*%
X181610000Y-92990000D03*
%TO.P,J6,5,Pin_5*%
%TO.N,SB-X*%
X181610000Y-97790000D03*
%TD*%
%TO.P,J4,3,Pin_3*%
%TO.N,TTL-DATA*%
X166930000Y-72390000D03*
%TO.P,J4,2,Pin_2*%
%TO.N,GND*%
X171730000Y-72390000D03*
D13*
%TO.P,J4,1,Pin_1*%
%TO.N,+3V3*%
X176530000Y-72390000D03*
%TD*%
D10*
%TO.P,J7,3,Pin_3*%
%TO.N,GND*%
X158115000Y-72390000D03*
%TO.P,J7,2,Pin_2*%
%TO.N,+5V*%
X153315000Y-72390000D03*
D11*
%TO.P,J7,1,Pin_1*%
%TO.N,+12V*%
X148515000Y-72390000D03*
%TD*%
D14*
%TO.P,J3,1,Pin_1*%
%TO.N,+3V3*%
X121920000Y-97790000D03*
D10*
%TO.P,J3,2,Pin_2*%
%TO.N,GND*%
X121920000Y-92990000D03*
%TO.P,J3,3,Pin_3*%
%TO.N,SDA*%
X121920000Y-88190000D03*
%TO.P,J3,4,Pin_4*%
%TO.N,SCL*%
X121920000Y-83390000D03*
%TO.P,J3,5,Pin_5*%
%TO.N,SA-X*%
X121920000Y-78590000D03*
%TD*%
D15*
%TO.P,A1,VIN,VIN*%
%TO.N,+5V*%
X133350000Y-81280000D03*
%TO.P,A1,RST2,RESET*%
%TO.N,unconnected-(A1-RESET-PadRST2)*%
X138430000Y-81280000D03*
%TO.P,A1,RST1,RESET*%
%TO.N,ETH-RST*%
X138430000Y-96520000D03*
D16*
%TO.P,A1,GND2,GND*%
%TO.N,GND*%
X135889999Y-81279999D03*
%TO.P,A1,GND1,GND*%
X140969999Y-96519999D03*
D15*
%TO.P,A1,D13,D13_SCK*%
%TO.N,ETH-SCLK*%
X168910000Y-81280000D03*
%TO.P,A1,D12,D12_MISO*%
%TO.N,ETH-MISO*%
X168910000Y-96520000D03*
%TO.P,A1,D11,D11_MOSI*%
%TO.N,ETH-MOSI*%
X166370000Y-96520000D03*
%TO.P,A1,D10,D10*%
%TO.N,ETH-SCS*%
X163830000Y-96520000D03*
%TO.P,A1,D9,D9*%
%TO.N,unconnected-(A1-PadD9)*%
X161290000Y-96520000D03*
%TO.P,A1,D8,D8*%
%TO.N,unconnected-(A1-PadD8)*%
X158750000Y-96520000D03*
%TO.P,A1,D7,D7*%
%TO.N,unconnected-(A1-PadD7)*%
X156210000Y-96520000D03*
%TO.P,A1,D6,D6*%
%TO.N,unconnected-(A1-PadD6)*%
X153670000Y-96520000D03*
%TO.P,A1,D5,D5*%
%TO.N,unconnected-(A1-PadD5)*%
X151130000Y-96520000D03*
%TO.P,A1,D4,D4*%
%TO.N,unconnected-(A1-PadD4)*%
X148590000Y-96520000D03*
%TO.P,A1,D3,D3*%
%TO.N,SB-X*%
X146050000Y-96520000D03*
%TO.P,A1,D2,D2*%
%TO.N,SA-X*%
X143510000Y-96520000D03*
%TO.P,A1,D1,D1_TX0*%
%TO.N,unconnected-(A1-D1_TX0-PadD1)*%
X133350000Y-96520000D03*
%TO.P,A1,D0,D0_RX0*%
%TO.N,TTL-DATA*%
X135890000Y-96520000D03*
%TO.P,A1,AREF,AREF*%
%TO.N,unconnected-(A1-PadAREF)*%
X163830000Y-81280000D03*
%TO.P,A1,A7,A7*%
%TO.N,unconnected-(A1-PadA7)*%
X143510000Y-81280000D03*
%TO.P,A1,A6,A6*%
%TO.N,unconnected-(A1-PadA6)*%
X146050000Y-81280000D03*
%TO.P,A1,A5,A5_SCL*%
%TO.N,SCL*%
X148590000Y-81280000D03*
%TO.P,A1,A4,A4_SDA*%
%TO.N,SDA*%
X151130000Y-81280000D03*
%TO.P,A1,A3,A3*%
%TO.N,unconnected-(A1-PadA3)*%
X153670000Y-81280000D03*
%TO.P,A1,A2,A2*%
%TO.N,unconnected-(A1-PadA2)*%
X156210000Y-81280000D03*
%TO.P,A1,A1,A1*%
%TO.N,unconnected-(A1-PadA1)*%
X158750000Y-81280000D03*
%TO.P,A1,A0,A0/DAC*%
%TO.N,unconnected-(A1-A0{slash}DAC-PadA0)*%
X161290000Y-81280000D03*
%TO.P,A1,5V,5V*%
%TO.N,unconnected-(A1-Pad5V)*%
X140970000Y-81280000D03*
%TO.P,A1,3V3,3.3V*%
%TO.N,+3V3*%
X166370000Y-81280000D03*
%TD*%
D17*
%TO.P,J5,7,Pin_7*%
%TO.N,ETH-RST*%
X169127988Y-106045000D03*
%TO.P,J5,6,Pin_6*%
%TO.N,+3V3*%
X163132012Y-106045000D03*
%TO.P,J5,5,Pin_5*%
%TO.N,ETH-MISO*%
X157132012Y-106045000D03*
%TO.P,J5,4,Pin_4*%
%TO.N,ETH-MOSI*%
X151132012Y-106045000D03*
%TO.P,J5,3,Pin_3*%
%TO.N,ETH-SCS*%
X145132012Y-106045000D03*
%TO.P,J5,2,Pin_2*%
%TO.N,ETH-SCLK*%
X139132012Y-106045000D03*
D18*
%TO.P,J5,1,Pin_1*%
%TO.N,GND*%
X133132012Y-106045000D03*
%TD*%
D19*
%TO.N,ETH-SCLK*%
X167640000Y-86360000D03*
%TO.N,TTL-DATA*%
X147320000Y-91440000D03*
%TD*%
D20*
%TO.N,ETH-SCLK*%
X167640000Y-83820000D02*
X167640000Y-86360000D01*
X168910000Y-82550000D02*
X167640000Y-83820000D01*
X168910000Y-82550000D02*
X168910000Y-81280000D01*
D21*
%TO.N,+12V*%
X144780000Y-68580000D02*
X137160000Y-68580000D01*
X148515000Y-72315000D02*
X144780000Y-68580000D01*
X137160000Y-68580000D02*
X133350000Y-72390000D01*
D20*
%TO.N,SB-X*%
X148590000Y-93980000D02*
X146050000Y-96520000D01*
X177800000Y-93980000D02*
X148590000Y-93980000D01*
X181610000Y-97790000D02*
X177800000Y-93980000D01*
%TO.N,ETH-RST*%
X139674600Y-97764600D02*
X138430000Y-96520000D01*
X160847588Y-97764600D02*
X139674600Y-97764600D01*
X169127988Y-106045000D02*
X160847588Y-97764600D01*
%TO.N,SCL*%
X148590000Y-80010000D02*
X148590000Y-81280000D01*
X172160000Y-78740000D02*
X149860000Y-78740000D01*
X181610000Y-88190000D02*
X172160000Y-78740000D01*
X149860000Y-78740000D02*
X148590000Y-80010000D01*
%TO.N,SDA*%
X162840000Y-92990000D02*
X151130000Y-81280000D01*
X181610000Y-92990000D02*
X162840000Y-92990000D01*
X144220000Y-88190000D02*
X151130000Y-81280000D01*
X121920000Y-88190000D02*
X144220000Y-88190000D01*
%TO.N,SCL*%
X146480000Y-83390000D02*
X148590000Y-81280000D01*
X121920000Y-83390000D02*
X146480000Y-83390000D01*
D21*
%TO.N,+12V*%
X133350000Y-72390000D02*
X132080000Y-72390000D01*
X148515000Y-72390000D02*
X148515000Y-72315000D01*
D20*
%TO.N,TTL-DATA*%
X140970000Y-91440000D02*
X135890000Y-96520000D01*
X147320000Y-91440000D02*
X140970000Y-91440000D01*
%TD*%
M02*
