%TF.GenerationSoftware,KiCad,Pcbnew,(7.0.0)*%
%TF.CreationDate,2023-03-08T01:22:02+01:00*%
%TF.ProjectId,booth fendi,626f6f74-6820-4666-956e-64692e6b6963,rev?*%
%TF.SameCoordinates,Original*%
%TF.FileFunction,Copper,L1,Top*%
%TF.FilePolarity,Positive*%
%FSLAX46Y46*%
G04 Gerber Fmt 4.6, Leading zero omitted, Abs format (unit mm)*
G04 Created by KiCad (PCBNEW (7.0.0)) date 2023-03-08 01:22:02*
%MOMM*%
%LPD*%
G01*
G04 APERTURE LIST*
G04 Aperture macros list*
%AMRoundRect*
0 Rectangle with rounded corners*
0 $1 Rounding radius*
0 $2 $3 $4 $5 $6 $7 $8 $9 X,Y pos of 4 corners*
0 Add a 4 corners polygon primitive as box body*
4,1,4,$2,$3,$4,$5,$6,$7,$8,$9,$2,$3,0*
0 Add four circle primitives for the rounded corners*
1,1,$1+$1,$2,$3*
1,1,$1+$1,$4,$5*
1,1,$1+$1,$6,$7*
1,1,$1+$1,$8,$9*
0 Add four rect primitives between the rounded corners*
20,1,$1+$1,$2,$3,$4,$5,0*
20,1,$1+$1,$4,$5,$6,$7,0*
20,1,$1+$1,$6,$7,$8,$9,0*
20,1,$1+$1,$8,$9,$2,$3,0*%
G04 Aperture macros list end*
%ADD10C,0.300000*%
%TA.AperFunction,NonConductor*%
%ADD11C,0.300000*%
%TD*%
%TA.AperFunction,ComponentPad*%
%ADD12RoundRect,0.249999X-1.025001X1.025001X-1.025001X-1.025001X1.025001X-1.025001X1.025001X1.025001X0*%
%TD*%
%TA.AperFunction,ComponentPad*%
%ADD13C,2.550000*%
%TD*%
%TA.AperFunction,ComponentPad*%
%ADD14RoundRect,0.249999X1.025001X1.025001X-1.025001X1.025001X-1.025001X-1.025001X1.025001X-1.025001X0*%
%TD*%
%TA.AperFunction,ComponentPad*%
%ADD15RoundRect,0.249999X-1.025001X-1.025001X1.025001X-1.025001X1.025001X1.025001X-1.025001X1.025001X0*%
%TD*%
%TA.AperFunction,ComponentPad*%
%ADD16RoundRect,0.249999X1.025001X-1.025001X1.025001X1.025001X-1.025001X1.025001X-1.025001X-1.025001X0*%
%TD*%
%TA.AperFunction,ComponentPad*%
%ADD17C,1.727200*%
%TD*%
%TA.AperFunction,ComponentPad*%
%ADD18R,1.727200X1.727200*%
%TD*%
%TA.AperFunction,ComponentPad*%
%ADD19RoundRect,0.249999X-1.300001X-1.300001X1.300001X-1.300001X1.300001X1.300001X-1.300001X1.300001X0*%
%TD*%
%TA.AperFunction,ComponentPad*%
%ADD20C,3.100000*%
%TD*%
%TA.AperFunction,ViaPad*%
%ADD21C,0.762000*%
%TD*%
%TA.AperFunction,Conductor*%
%ADD22C,0.762000*%
%TD*%
%TA.AperFunction,Conductor*%
%ADD23C,0.381000*%
%TD*%
G04 APERTURE END LIST*
D10*
D11*
X175326514Y-102235685D02*
X175255085Y-102164257D01*
X175255085Y-102164257D02*
X175112228Y-102092828D01*
X175112228Y-102092828D02*
X174969371Y-102092828D01*
X174969371Y-102092828D02*
X174826514Y-102164257D01*
X174826514Y-102164257D02*
X174755085Y-102235685D01*
X174755085Y-102235685D02*
X174683657Y-102378542D01*
X174683657Y-102378542D02*
X174683657Y-102521400D01*
X174683657Y-102521400D02*
X174755085Y-102664257D01*
X174755085Y-102664257D02*
X174826514Y-102735685D01*
X174826514Y-102735685D02*
X174969371Y-102807114D01*
X174969371Y-102807114D02*
X175112228Y-102807114D01*
X175112228Y-102807114D02*
X175255085Y-102735685D01*
X175255085Y-102735685D02*
X175326514Y-102664257D01*
X175326514Y-102092828D02*
X175326514Y-102664257D01*
X175326514Y-102664257D02*
X175397942Y-102735685D01*
X175397942Y-102735685D02*
X175469371Y-102735685D01*
X175469371Y-102735685D02*
X175612228Y-102664257D01*
X175612228Y-102664257D02*
X175683657Y-102521400D01*
X175683657Y-102521400D02*
X175683657Y-102164257D01*
X175683657Y-102164257D02*
X175540800Y-101949971D01*
X175540800Y-101949971D02*
X175326514Y-101807114D01*
X175326514Y-101807114D02*
X175040800Y-101735685D01*
X175040800Y-101735685D02*
X174755085Y-101807114D01*
X174755085Y-101807114D02*
X174540800Y-101949971D01*
X174540800Y-101949971D02*
X174397942Y-102164257D01*
X174397942Y-102164257D02*
X174326514Y-102449971D01*
X174326514Y-102449971D02*
X174397942Y-102735685D01*
X174397942Y-102735685D02*
X174540800Y-102949971D01*
X174540800Y-102949971D02*
X174755085Y-103092828D01*
X174755085Y-103092828D02*
X175040800Y-103164257D01*
X175040800Y-103164257D02*
X175326514Y-103092828D01*
X175326514Y-103092828D02*
X175540800Y-102949971D01*
X176540799Y-102949971D02*
X176397942Y-102878542D01*
X176397942Y-102878542D02*
X176326513Y-102735685D01*
X176326513Y-102735685D02*
X176326513Y-101449971D01*
X177755085Y-101949971D02*
X177755085Y-102949971D01*
X177112227Y-101949971D02*
X177112227Y-102735685D01*
X177112227Y-102735685D02*
X177183656Y-102878542D01*
X177183656Y-102878542D02*
X177326513Y-102949971D01*
X177326513Y-102949971D02*
X177540799Y-102949971D01*
X177540799Y-102949971D02*
X177683656Y-102878542D01*
X177683656Y-102878542D02*
X177755085Y-102807114D01*
X178326513Y-101949971D02*
X179112228Y-101949971D01*
X179112228Y-101949971D02*
X178326513Y-102949971D01*
X178326513Y-102949971D02*
X179112228Y-102949971D01*
X179683656Y-102949971D02*
X179683656Y-101949971D01*
X179683656Y-101449971D02*
X179612228Y-101521400D01*
X179612228Y-101521400D02*
X179683656Y-101592828D01*
X179683656Y-101592828D02*
X179755085Y-101521400D01*
X179755085Y-101521400D02*
X179683656Y-101449971D01*
X179683656Y-101449971D02*
X179683656Y-101592828D01*
X181040800Y-102949971D02*
X181040800Y-102164257D01*
X181040800Y-102164257D02*
X180969371Y-102021400D01*
X180969371Y-102021400D02*
X180826514Y-101949971D01*
X180826514Y-101949971D02*
X180540800Y-101949971D01*
X180540800Y-101949971D02*
X180397942Y-102021400D01*
X181040800Y-102878542D02*
X180897942Y-102949971D01*
X180897942Y-102949971D02*
X180540800Y-102949971D01*
X180540800Y-102949971D02*
X180397942Y-102878542D01*
X180397942Y-102878542D02*
X180326514Y-102735685D01*
X180326514Y-102735685D02*
X180326514Y-102592828D01*
X180326514Y-102592828D02*
X180397942Y-102449971D01*
X180397942Y-102449971D02*
X180540800Y-102378542D01*
X180540800Y-102378542D02*
X180897942Y-102378542D01*
X180897942Y-102378542D02*
X181040800Y-102307114D01*
X181540800Y-101949971D02*
X182112228Y-101949971D01*
X181755085Y-101449971D02*
X181755085Y-102735685D01*
X181755085Y-102735685D02*
X181826514Y-102878542D01*
X181826514Y-102878542D02*
X181969371Y-102949971D01*
X181969371Y-102949971D02*
X182112228Y-102949971D01*
X182826514Y-102949971D02*
X182683657Y-102878542D01*
X182683657Y-102878542D02*
X182612228Y-102807114D01*
X182612228Y-102807114D02*
X182540800Y-102664257D01*
X182540800Y-102664257D02*
X182540800Y-102235685D01*
X182540800Y-102235685D02*
X182612228Y-102092828D01*
X182612228Y-102092828D02*
X182683657Y-102021400D01*
X182683657Y-102021400D02*
X182826514Y-101949971D01*
X182826514Y-101949971D02*
X183040800Y-101949971D01*
X183040800Y-101949971D02*
X183183657Y-102021400D01*
X183183657Y-102021400D02*
X183255086Y-102092828D01*
X183255086Y-102092828D02*
X183326514Y-102235685D01*
X183326514Y-102235685D02*
X183326514Y-102664257D01*
X183326514Y-102664257D02*
X183255086Y-102807114D01*
X183255086Y-102807114D02*
X183183657Y-102878542D01*
X183183657Y-102878542D02*
X183040800Y-102949971D01*
X183040800Y-102949971D02*
X182826514Y-102949971D01*
D12*
%TO.P,J6,1,Pin_1*%
%TO.N,+3V3*%
X181610000Y-78590000D03*
D13*
%TO.P,J6,2,Pin_2*%
%TO.N,GND*%
X181610000Y-83390000D03*
%TO.P,J6,3,Pin_3*%
%TO.N,SCL*%
X181610000Y-88190000D03*
%TO.P,J6,4,Pin_4*%
%TO.N,SDA*%
X181610000Y-92990000D03*
%TO.P,J6,5,Pin_5*%
%TO.N,SB-X*%
X181610000Y-97790000D03*
%TD*%
D14*
%TO.P,J4,1,Pin_1*%
%TO.N,+3V3*%
X172720000Y-73660000D03*
D13*
%TO.P,J4,2,Pin_2*%
%TO.N,GND*%
X167920000Y-73660000D03*
%TO.P,J4,3,Pin_3*%
%TO.N,TTL-DATA*%
X163120000Y-73660000D03*
%TD*%
D14*
%TO.P,J2,1,Pin_1*%
%TO.N,+12V*%
X139319000Y-73533000D03*
D13*
%TO.P,J2,2,Pin_2*%
%TO.N,+5V*%
X134519000Y-73533000D03*
%TO.P,J2,3,Pin_3*%
%TO.N,GND*%
X129719000Y-73533000D03*
%TD*%
D15*
%TO.P,J7,1,Pin_1*%
%TO.N,+12V*%
X146864000Y-73533000D03*
D13*
%TO.P,J7,2,Pin_2*%
%TO.N,+5V*%
X151664000Y-73533000D03*
%TO.P,J7,3,Pin_3*%
%TO.N,GND*%
X156464000Y-73533000D03*
%TD*%
D16*
%TO.P,J3,1,Pin_1*%
%TO.N,+3V3*%
X123190000Y-98044000D03*
D13*
%TO.P,J3,2,Pin_2*%
%TO.N,GND*%
X123190000Y-93244000D03*
%TO.P,J3,3,Pin_3*%
%TO.N,SDA*%
X123190000Y-88444000D03*
%TO.P,J3,4,Pin_4*%
%TO.N,SCL*%
X123190000Y-83644000D03*
%TO.P,J3,5,Pin_5*%
%TO.N,SA-X*%
X123190000Y-78844000D03*
%TD*%
D17*
%TO.P,A1,3V3,3.3V*%
%TO.N,+3V3*%
X166370000Y-81280000D03*
%TO.P,A1,5V,5V*%
%TO.N,unconnected-(A1-Pad5V)*%
X140970000Y-81280000D03*
%TO.P,A1,A0,A0/DAC*%
%TO.N,unconnected-(A1-A0{slash}DAC-PadA0)*%
X161290000Y-81280000D03*
%TO.P,A1,A1,A1*%
%TO.N,unconnected-(A1-PadA1)*%
X158750000Y-81280000D03*
%TO.P,A1,A2,A2*%
%TO.N,unconnected-(A1-PadA2)*%
X156210000Y-81280000D03*
%TO.P,A1,A3,A3*%
%TO.N,unconnected-(A1-PadA3)*%
X153670000Y-81280000D03*
%TO.P,A1,A4,A4_SDA*%
%TO.N,SDA*%
X151130000Y-81280000D03*
%TO.P,A1,A5,A5_SCL*%
%TO.N,SCL*%
X148590000Y-81280000D03*
%TO.P,A1,A6,A6*%
%TO.N,unconnected-(A1-PadA6)*%
X146050000Y-81280000D03*
%TO.P,A1,A7,A7*%
%TO.N,unconnected-(A1-PadA7)*%
X143510000Y-81280000D03*
%TO.P,A1,AREF,AREF*%
%TO.N,unconnected-(A1-PadAREF)*%
X163830000Y-81280000D03*
%TO.P,A1,D0,D0_RX0*%
%TO.N,TTL-DATA*%
X135890000Y-96520000D03*
%TO.P,A1,D1,D1_TX0*%
%TO.N,unconnected-(A1-D1_TX0-PadD1)*%
X133350000Y-96520000D03*
%TO.P,A1,D2,D2*%
%TO.N,SA-X*%
X143510000Y-96520000D03*
%TO.P,A1,D3,D3*%
%TO.N,SB-X*%
X146050000Y-96520000D03*
%TO.P,A1,D4,D4*%
%TO.N,unconnected-(A1-PadD4)*%
X148590000Y-96520000D03*
%TO.P,A1,D5,D5*%
%TO.N,unconnected-(A1-PadD5)*%
X151130000Y-96520000D03*
%TO.P,A1,D6,D6*%
%TO.N,unconnected-(A1-PadD6)*%
X153670000Y-96520000D03*
%TO.P,A1,D7,D7*%
%TO.N,unconnected-(A1-PadD7)*%
X156210000Y-96520000D03*
%TO.P,A1,D8,D8*%
%TO.N,unconnected-(A1-PadD8)*%
X158750000Y-96520000D03*
%TO.P,A1,D9,D9*%
%TO.N,unconnected-(A1-PadD9)*%
X161290000Y-96520000D03*
%TO.P,A1,D10,D10*%
%TO.N,ETH-SCS*%
X163830000Y-96520000D03*
%TO.P,A1,D11,D11_MOSI*%
%TO.N,ETH-MOSI*%
X166370000Y-96520000D03*
%TO.P,A1,D12,D12_MISO*%
%TO.N,ETH-MISO*%
X168910000Y-96520000D03*
%TO.P,A1,D13,D13_SCK*%
%TO.N,ETH-SCLK*%
X168910000Y-81280000D03*
D18*
%TO.P,A1,GND1,GND*%
%TO.N,GND*%
X140969999Y-96519999D03*
%TO.P,A1,GND2,GND*%
X135889999Y-81279999D03*
D17*
%TO.P,A1,RST1,RESET*%
%TO.N,ETH-RST*%
X138430000Y-96520000D03*
%TO.P,A1,RST2,RESET*%
%TO.N,unconnected-(A1-RESET-PadRST2)*%
X138430000Y-81280000D03*
%TO.P,A1,VIN,VIN*%
%TO.N,+5V*%
X133350000Y-81280000D03*
%TD*%
D19*
%TO.P,J5,1,Pin_1*%
%TO.N,GND*%
X134620000Y-102870000D03*
D20*
%TO.P,J5,2,Pin_2*%
%TO.N,ETH-SCLK*%
X140620000Y-102870000D03*
%TO.P,J5,3,Pin_3*%
%TO.N,ETH-SCS*%
X146620000Y-102870000D03*
%TO.P,J5,4,Pin_4*%
%TO.N,ETH-MOSI*%
X152620000Y-102870000D03*
%TO.P,J5,5,Pin_5*%
%TO.N,ETH-MISO*%
X158620000Y-102870000D03*
%TO.P,J5,6,Pin_6*%
%TO.N,+3V3*%
X164620000Y-102870000D03*
%TO.P,J5,7,Pin_7*%
%TO.N,ETH-RST*%
X170615976Y-102870000D03*
%TD*%
D21*
%TO.N,ETH-SCLK*%
X155067000Y-83439000D03*
X127508000Y-90297000D03*
X144780000Y-84963000D03*
%TD*%
D22*
%TO.N,+3V3*%
X164620000Y-102870000D02*
X168430000Y-99060000D01*
X166370000Y-80010000D02*
X166370000Y-81280000D01*
X168430000Y-99060000D02*
X172720000Y-99060000D01*
X166370000Y-82550000D02*
X166370000Y-81280000D01*
X172720000Y-99060000D02*
X174244000Y-97536000D01*
X181610000Y-78590000D02*
X176680000Y-73660000D01*
X176680000Y-73660000D02*
X172720000Y-73660000D01*
X174244000Y-97536000D02*
X174244000Y-90424000D01*
X164620000Y-102870000D02*
X162181000Y-105309000D01*
X123190000Y-98044000D02*
X130455000Y-105309000D01*
X172720000Y-73660000D02*
X166370000Y-80010000D01*
X130455000Y-105309000D02*
X131064000Y-105309000D01*
X162181000Y-105309000D02*
X131064000Y-105309000D01*
X174244000Y-90424000D02*
X166370000Y-82550000D01*
D23*
%TO.N,SA-X*%
X129032000Y-83667600D02*
X140919200Y-83667600D01*
X123190000Y-78844000D02*
X128013600Y-83667600D01*
X140919200Y-83667600D02*
X143510000Y-86258400D01*
X143510000Y-86258400D02*
X143510000Y-96520000D01*
X128013600Y-83667600D02*
X129032000Y-83667600D01*
%TO.N,ETH-SCS*%
X161798000Y-98552000D02*
X163830000Y-96520000D01*
X150938000Y-98552000D02*
X161798000Y-98552000D01*
X146620000Y-102870000D02*
X150938000Y-98552000D01*
%TO.N,ETH-MOSI*%
X163576000Y-99314000D02*
X166370000Y-96520000D01*
X156176000Y-99314000D02*
X163576000Y-99314000D01*
X152620000Y-102870000D02*
X156176000Y-99314000D01*
%TO.N,ETH-MISO*%
X161414000Y-100076000D02*
X165354000Y-100076000D01*
X165354000Y-100076000D02*
X168910000Y-96520000D01*
X158620000Y-102870000D02*
X161414000Y-100076000D01*
%TO.N,ETH-SCLK*%
X145288000Y-83439000D02*
X144780000Y-83947000D01*
X130048000Y-99060000D02*
X136810000Y-99060000D01*
X128524000Y-91313000D02*
X128524000Y-97536000D01*
X128524000Y-97536000D02*
X130048000Y-99060000D01*
X155067000Y-83439000D02*
X145288000Y-83439000D01*
X144780000Y-83947000D02*
X144780000Y-84963000D01*
X127508000Y-90297000D02*
X128524000Y-91313000D01*
X136810000Y-99060000D02*
X140620000Y-102870000D01*
D22*
%TO.N,+5V*%
X134519000Y-73533000D02*
X134519000Y-78131000D01*
X133350000Y-79300000D02*
X134519000Y-78131000D01*
X133350000Y-81280000D02*
X133350000Y-79300000D01*
%TO.N,+12V*%
X139319000Y-73533000D02*
X146864000Y-73533000D01*
%TD*%
M02*
