%TF.GenerationSoftware,KiCad,Pcbnew,(7.0.0)*%
%TF.CreationDate,2023-03-08T14:36:46+01:00*%
%TF.ProjectId,booth fendi,626f6f74-6820-4666-956e-64692e6b6963,rev?*%
%TF.SameCoordinates,Original*%
%TF.FileFunction,Legend,Bot*%
%TF.FilePolarity,Positive*%
%FSLAX46Y46*%
G04 Gerber Fmt 4.6, Leading zero omitted, Abs format (unit mm)*
G04 Created by KiCad (PCBNEW (7.0.0)) date 2023-03-08 14:36:46*
%MOMM*%
%LPD*%
G01*
G04 APERTURE LIST*
G04 Aperture macros list*
%AMRoundRect*
0 Rectangle with rounded corners*
0 $1 Rounding radius*
0 $2 $3 $4 $5 $6 $7 $8 $9 X,Y pos of 4 corners*
0 Add a 4 corners polygon primitive as box body*
4,1,4,$2,$3,$4,$5,$6,$7,$8,$9,$2,$3,0*
0 Add four circle primitives for the rounded corners*
1,1,$1+$1,$2,$3*
1,1,$1+$1,$4,$5*
1,1,$1+$1,$6,$7*
1,1,$1+$1,$8,$9*
0 Add four rect primitives between the rounded corners*
20,1,$1+$1,$2,$3,$4,$5,0*
20,1,$1+$1,$4,$5,$6,$7,0*
20,1,$1+$1,$6,$7,$8,$9,0*
20,1,$1+$1,$8,$9,$2,$3,0*%
G04 Aperture macros list end*
%ADD10C,0.177800*%
%ADD11C,0.299720*%
%ADD12RoundRect,0.249999X-1.025001X1.025001X-1.025001X-1.025001X1.025001X-1.025001X1.025001X1.025001X0*%
%ADD13C,2.550000*%
%ADD14RoundRect,0.249999X1.025001X1.025001X-1.025001X1.025001X-1.025001X-1.025001X1.025001X-1.025001X0*%
%ADD15RoundRect,0.249999X-1.025001X-1.025001X1.025001X-1.025001X1.025001X1.025001X-1.025001X1.025001X0*%
%ADD16RoundRect,0.249999X1.025001X-1.025001X1.025001X1.025001X-1.025001X1.025001X-1.025001X-1.025001X0*%
%ADD17C,1.800000*%
%ADD18C,1.727200*%
%ADD19R,1.727200X1.727200*%
%ADD20RoundRect,0.249999X-1.300001X-1.300001X1.300001X-1.300001X1.300001X1.300001X-1.300001X1.300001X0*%
%ADD21C,3.100000*%
G04 APERTURE END LIST*
D10*
X176276000Y-72771000D02*
X176276000Y-75692000D01*
X180346382Y-74930000D02*
X182505382Y-74930000D01*
X124574236Y-101358764D02*
X122415236Y-101358764D01*
X182492618Y-100780882D02*
X180333618Y-100780882D01*
X161290000Y-71501000D02*
G75*
G03*
X160020000Y-72771000I0J-1270000D01*
G01*
X126365000Y-77089000D02*
G75*
G03*
X124587000Y-75311000I-1778000J0D01*
G01*
X174383836Y-101485764D02*
G75*
G03*
X172605764Y-99707764I-1778036J-36D01*
G01*
X178555618Y-99002882D02*
G75*
G03*
X180333618Y-100780882I1777982J-18D01*
G01*
X182492618Y-100780918D02*
G75*
G03*
X184270618Y-99002882I-18J1778018D01*
G01*
X120637236Y-99580764D02*
X120650000Y-77089000D01*
X132080000Y-99695000D02*
G75*
G03*
X130302000Y-101473000I0J-1778000D01*
G01*
X172605764Y-105676764D02*
G75*
G03*
X174383764Y-103898764I36J1777964D01*
G01*
X176276000Y-72771000D02*
G75*
G03*
X175006000Y-71501000I-1270000J0D01*
G01*
X161290000Y-71501000D02*
X175006000Y-71501000D01*
X122428000Y-75311000D02*
X124587000Y-75311000D01*
X184283382Y-76708000D02*
G75*
G03*
X182505382Y-74930000I-1777982J18D01*
G01*
X174383764Y-101485764D02*
X174383764Y-103898764D01*
X175006000Y-76962000D02*
G75*
G03*
X176276000Y-75692000I0J1270000D01*
G01*
X122428000Y-75311000D02*
G75*
G03*
X120650000Y-77089000I0J-1778000D01*
G01*
X120637236Y-99580764D02*
G75*
G03*
X122415236Y-101358764I1777964J-36D01*
G01*
X160020000Y-75692000D02*
G75*
G03*
X161290000Y-76962000I1270000J0D01*
G01*
X124574236Y-101358836D02*
G75*
G03*
X126352236Y-99580764I-36J1778036D01*
G01*
X130302000Y-103886000D02*
G75*
G03*
X132080000Y-105664000I1778000J0D01*
G01*
X184283382Y-76708000D02*
X184270618Y-99002882D01*
X180346382Y-74929964D02*
G75*
G03*
X178568382Y-76708000I18J-1778018D01*
G01*
X172605764Y-105676764D02*
X132080000Y-105664000D01*
X160020000Y-75692000D02*
X160020000Y-72771000D01*
X130302000Y-103886000D02*
X130302000Y-101473000D01*
X126066852Y-89928095D02*
X126006376Y-89746666D01*
X126006376Y-89746666D02*
X126006376Y-89444285D01*
X126006376Y-89444285D02*
X126066852Y-89323333D01*
X126066852Y-89323333D02*
X126127328Y-89262857D01*
X126127328Y-89262857D02*
X126248280Y-89202380D01*
X126248280Y-89202380D02*
X126369233Y-89202380D01*
X126369233Y-89202380D02*
X126490185Y-89262857D01*
X126490185Y-89262857D02*
X126550661Y-89323333D01*
X126550661Y-89323333D02*
X126611138Y-89444285D01*
X126611138Y-89444285D02*
X126671614Y-89686190D01*
X126671614Y-89686190D02*
X126732090Y-89807142D01*
X126732090Y-89807142D02*
X126792566Y-89867619D01*
X126792566Y-89867619D02*
X126913519Y-89928095D01*
X126913519Y-89928095D02*
X127034471Y-89928095D01*
X127034471Y-89928095D02*
X127155423Y-89867619D01*
X127155423Y-89867619D02*
X127215900Y-89807142D01*
X127215900Y-89807142D02*
X127276376Y-89686190D01*
X127276376Y-89686190D02*
X127276376Y-89383809D01*
X127276376Y-89383809D02*
X127215900Y-89202380D01*
X126006376Y-88658095D02*
X127276376Y-88658095D01*
X127276376Y-88658095D02*
X127276376Y-88355714D01*
X127276376Y-88355714D02*
X127215900Y-88174285D01*
X127215900Y-88174285D02*
X127094947Y-88053333D01*
X127094947Y-88053333D02*
X126973995Y-87992856D01*
X126973995Y-87992856D02*
X126732090Y-87932380D01*
X126732090Y-87932380D02*
X126550661Y-87932380D01*
X126550661Y-87932380D02*
X126308757Y-87992856D01*
X126308757Y-87992856D02*
X126187804Y-88053333D01*
X126187804Y-88053333D02*
X126066852Y-88174285D01*
X126066852Y-88174285D02*
X126006376Y-88355714D01*
X126006376Y-88355714D02*
X126006376Y-88658095D01*
X126369233Y-87448571D02*
X126369233Y-86843809D01*
X126006376Y-87569523D02*
X127276376Y-87146190D01*
X127276376Y-87146190D02*
X126006376Y-86722856D01*
X135303380Y-98717100D02*
X135424333Y-98656623D01*
X135424333Y-98656623D02*
X135605761Y-98656623D01*
X135605761Y-98656623D02*
X135787190Y-98717100D01*
X135787190Y-98717100D02*
X135908142Y-98838052D01*
X135908142Y-98838052D02*
X135968619Y-98959004D01*
X135968619Y-98959004D02*
X136029095Y-99200909D01*
X136029095Y-99200909D02*
X136029095Y-99382338D01*
X136029095Y-99382338D02*
X135968619Y-99624242D01*
X135968619Y-99624242D02*
X135908142Y-99745195D01*
X135908142Y-99745195D02*
X135787190Y-99866147D01*
X135787190Y-99866147D02*
X135605761Y-99926623D01*
X135605761Y-99926623D02*
X135484809Y-99926623D01*
X135484809Y-99926623D02*
X135303380Y-99866147D01*
X135303380Y-99866147D02*
X135242904Y-99805671D01*
X135242904Y-99805671D02*
X135242904Y-99382338D01*
X135242904Y-99382338D02*
X135484809Y-99382338D01*
X134698619Y-99926623D02*
X134698619Y-98656623D01*
X134698619Y-98656623D02*
X133972904Y-99926623D01*
X133972904Y-99926623D02*
X133972904Y-98656623D01*
X133368143Y-99926623D02*
X133368143Y-98656623D01*
X133368143Y-98656623D02*
X133065762Y-98656623D01*
X133065762Y-98656623D02*
X132884333Y-98717100D01*
X132884333Y-98717100D02*
X132763381Y-98838052D01*
X132763381Y-98838052D02*
X132702904Y-98959004D01*
X132702904Y-98959004D02*
X132642428Y-99200909D01*
X132642428Y-99200909D02*
X132642428Y-99382338D01*
X132642428Y-99382338D02*
X132702904Y-99624242D01*
X132702904Y-99624242D02*
X132763381Y-99745195D01*
X132763381Y-99745195D02*
X132884333Y-99866147D01*
X132884333Y-99866147D02*
X133065762Y-99926623D01*
X133065762Y-99926623D02*
X133368143Y-99926623D01*
X146509619Y-76476376D02*
X145783904Y-76476376D01*
X146146761Y-76476376D02*
X146146761Y-77746376D01*
X146146761Y-77746376D02*
X146025809Y-77564947D01*
X146025809Y-77564947D02*
X145904857Y-77443995D01*
X145904857Y-77443995D02*
X145783904Y-77383519D01*
X146993428Y-77625423D02*
X147053904Y-77685900D01*
X147053904Y-77685900D02*
X147174857Y-77746376D01*
X147174857Y-77746376D02*
X147477238Y-77746376D01*
X147477238Y-77746376D02*
X147598190Y-77685900D01*
X147598190Y-77685900D02*
X147658666Y-77625423D01*
X147658666Y-77625423D02*
X147719143Y-77504471D01*
X147719143Y-77504471D02*
X147719143Y-77383519D01*
X147719143Y-77383519D02*
X147658666Y-77202090D01*
X147658666Y-77202090D02*
X146932952Y-76476376D01*
X146932952Y-76476376D02*
X147719143Y-76476376D01*
X148082000Y-77746376D02*
X148505333Y-76476376D01*
X148505333Y-76476376D02*
X148928667Y-77746376D01*
X160098619Y-99926623D02*
X160098619Y-98656623D01*
X160098619Y-98656623D02*
X159675285Y-99563766D01*
X159675285Y-99563766D02*
X159251952Y-98656623D01*
X159251952Y-98656623D02*
X159251952Y-99926623D01*
X158647190Y-99926623D02*
X158647190Y-98656623D01*
X158102904Y-99866147D02*
X157921475Y-99926623D01*
X157921475Y-99926623D02*
X157619094Y-99926623D01*
X157619094Y-99926623D02*
X157498142Y-99866147D01*
X157498142Y-99866147D02*
X157437666Y-99805671D01*
X157437666Y-99805671D02*
X157377189Y-99684719D01*
X157377189Y-99684719D02*
X157377189Y-99563766D01*
X157377189Y-99563766D02*
X157437666Y-99442814D01*
X157437666Y-99442814D02*
X157498142Y-99382338D01*
X157498142Y-99382338D02*
X157619094Y-99321861D01*
X157619094Y-99321861D02*
X157860999Y-99261385D01*
X157860999Y-99261385D02*
X157981951Y-99200909D01*
X157981951Y-99200909D02*
X158042428Y-99140433D01*
X158042428Y-99140433D02*
X158102904Y-99019480D01*
X158102904Y-99019480D02*
X158102904Y-98898528D01*
X158102904Y-98898528D02*
X158042428Y-98777576D01*
X158042428Y-98777576D02*
X157981951Y-98717100D01*
X157981951Y-98717100D02*
X157860999Y-98656623D01*
X157860999Y-98656623D02*
X157558618Y-98656623D01*
X157558618Y-98656623D02*
X157377189Y-98717100D01*
X156590999Y-98656623D02*
X156349094Y-98656623D01*
X156349094Y-98656623D02*
X156228142Y-98717100D01*
X156228142Y-98717100D02*
X156107189Y-98838052D01*
X156107189Y-98838052D02*
X156046713Y-99079957D01*
X156046713Y-99079957D02*
X156046713Y-99503290D01*
X156046713Y-99503290D02*
X156107189Y-99745195D01*
X156107189Y-99745195D02*
X156228142Y-99866147D01*
X156228142Y-99866147D02*
X156349094Y-99926623D01*
X156349094Y-99926623D02*
X156590999Y-99926623D01*
X156590999Y-99926623D02*
X156711951Y-99866147D01*
X156711951Y-99866147D02*
X156832904Y-99745195D01*
X156832904Y-99745195D02*
X156893380Y-99503290D01*
X156893380Y-99503290D02*
X156893380Y-99079957D01*
X156893380Y-99079957D02*
X156832904Y-98838052D01*
X156832904Y-98838052D02*
X156711951Y-98717100D01*
X156711951Y-98717100D02*
X156590999Y-98656623D01*
X171437904Y-99926623D02*
X171861238Y-99321861D01*
X172163619Y-99926623D02*
X172163619Y-98656623D01*
X172163619Y-98656623D02*
X171679809Y-98656623D01*
X171679809Y-98656623D02*
X171558857Y-98717100D01*
X171558857Y-98717100D02*
X171498380Y-98777576D01*
X171498380Y-98777576D02*
X171437904Y-98898528D01*
X171437904Y-98898528D02*
X171437904Y-99079957D01*
X171437904Y-99079957D02*
X171498380Y-99200909D01*
X171498380Y-99200909D02*
X171558857Y-99261385D01*
X171558857Y-99261385D02*
X171679809Y-99321861D01*
X171679809Y-99321861D02*
X172163619Y-99321861D01*
X170954095Y-99866147D02*
X170772666Y-99926623D01*
X170772666Y-99926623D02*
X170470285Y-99926623D01*
X170470285Y-99926623D02*
X170349333Y-99866147D01*
X170349333Y-99866147D02*
X170288857Y-99805671D01*
X170288857Y-99805671D02*
X170228380Y-99684719D01*
X170228380Y-99684719D02*
X170228380Y-99563766D01*
X170228380Y-99563766D02*
X170288857Y-99442814D01*
X170288857Y-99442814D02*
X170349333Y-99382338D01*
X170349333Y-99382338D02*
X170470285Y-99321861D01*
X170470285Y-99321861D02*
X170712190Y-99261385D01*
X170712190Y-99261385D02*
X170833142Y-99200909D01*
X170833142Y-99200909D02*
X170893619Y-99140433D01*
X170893619Y-99140433D02*
X170954095Y-99019480D01*
X170954095Y-99019480D02*
X170954095Y-98898528D01*
X170954095Y-98898528D02*
X170893619Y-98777576D01*
X170893619Y-98777576D02*
X170833142Y-98717100D01*
X170833142Y-98717100D02*
X170712190Y-98656623D01*
X170712190Y-98656623D02*
X170409809Y-98656623D01*
X170409809Y-98656623D02*
X170228380Y-98717100D01*
X169865523Y-98656623D02*
X169139809Y-98656623D01*
X169502666Y-99926623D02*
X169502666Y-98656623D01*
X142379095Y-99866147D02*
X142197666Y-99926623D01*
X142197666Y-99926623D02*
X141895285Y-99926623D01*
X141895285Y-99926623D02*
X141774333Y-99866147D01*
X141774333Y-99866147D02*
X141713857Y-99805671D01*
X141713857Y-99805671D02*
X141653380Y-99684719D01*
X141653380Y-99684719D02*
X141653380Y-99563766D01*
X141653380Y-99563766D02*
X141713857Y-99442814D01*
X141713857Y-99442814D02*
X141774333Y-99382338D01*
X141774333Y-99382338D02*
X141895285Y-99321861D01*
X141895285Y-99321861D02*
X142137190Y-99261385D01*
X142137190Y-99261385D02*
X142258142Y-99200909D01*
X142258142Y-99200909D02*
X142318619Y-99140433D01*
X142318619Y-99140433D02*
X142379095Y-99019480D01*
X142379095Y-99019480D02*
X142379095Y-98898528D01*
X142379095Y-98898528D02*
X142318619Y-98777576D01*
X142318619Y-98777576D02*
X142258142Y-98717100D01*
X142258142Y-98717100D02*
X142137190Y-98656623D01*
X142137190Y-98656623D02*
X141834809Y-98656623D01*
X141834809Y-98656623D02*
X141653380Y-98717100D01*
X140383380Y-99805671D02*
X140443856Y-99866147D01*
X140443856Y-99866147D02*
X140625285Y-99926623D01*
X140625285Y-99926623D02*
X140746237Y-99926623D01*
X140746237Y-99926623D02*
X140927666Y-99866147D01*
X140927666Y-99866147D02*
X141048618Y-99745195D01*
X141048618Y-99745195D02*
X141109095Y-99624242D01*
X141109095Y-99624242D02*
X141169571Y-99382338D01*
X141169571Y-99382338D02*
X141169571Y-99200909D01*
X141169571Y-99200909D02*
X141109095Y-98959004D01*
X141109095Y-98959004D02*
X141048618Y-98838052D01*
X141048618Y-98838052D02*
X140927666Y-98717100D01*
X140927666Y-98717100D02*
X140746237Y-98656623D01*
X140746237Y-98656623D02*
X140625285Y-98656623D01*
X140625285Y-98656623D02*
X140443856Y-98717100D01*
X140443856Y-98717100D02*
X140383380Y-98777576D01*
X139234333Y-99926623D02*
X139839095Y-99926623D01*
X139839095Y-99926623D02*
X139839095Y-98656623D01*
X138811000Y-99926623D02*
X138811000Y-98656623D01*
X138085285Y-99926623D02*
X138629571Y-99200909D01*
X138085285Y-98656623D02*
X138811000Y-99382338D01*
X129364619Y-77685900D02*
X129243666Y-77746376D01*
X129243666Y-77746376D02*
X129062238Y-77746376D01*
X129062238Y-77746376D02*
X128880809Y-77685900D01*
X128880809Y-77685900D02*
X128759857Y-77564947D01*
X128759857Y-77564947D02*
X128699380Y-77443995D01*
X128699380Y-77443995D02*
X128638904Y-77202090D01*
X128638904Y-77202090D02*
X128638904Y-77020661D01*
X128638904Y-77020661D02*
X128699380Y-76778757D01*
X128699380Y-76778757D02*
X128759857Y-76657804D01*
X128759857Y-76657804D02*
X128880809Y-76536852D01*
X128880809Y-76536852D02*
X129062238Y-76476376D01*
X129062238Y-76476376D02*
X129183190Y-76476376D01*
X129183190Y-76476376D02*
X129364619Y-76536852D01*
X129364619Y-76536852D02*
X129425095Y-76597328D01*
X129425095Y-76597328D02*
X129425095Y-77020661D01*
X129425095Y-77020661D02*
X129183190Y-77020661D01*
X129969380Y-76476376D02*
X129969380Y-77746376D01*
X129969380Y-77746376D02*
X130695095Y-76476376D01*
X130695095Y-76476376D02*
X130695095Y-77746376D01*
X131299856Y-76476376D02*
X131299856Y-77746376D01*
X131299856Y-77746376D02*
X131602237Y-77746376D01*
X131602237Y-77746376D02*
X131783666Y-77685900D01*
X131783666Y-77685900D02*
X131904618Y-77564947D01*
X131904618Y-77564947D02*
X131965095Y-77443995D01*
X131965095Y-77443995D02*
X132025571Y-77202090D01*
X132025571Y-77202090D02*
X132025571Y-77020661D01*
X132025571Y-77020661D02*
X131965095Y-76778757D01*
X131965095Y-76778757D02*
X131904618Y-76657804D01*
X131904618Y-76657804D02*
X131783666Y-76536852D01*
X131783666Y-76536852D02*
X131602237Y-76476376D01*
X131602237Y-76476376D02*
X131299856Y-76476376D01*
X134384142Y-77746376D02*
X133779380Y-77746376D01*
X133779380Y-77746376D02*
X133718904Y-77141614D01*
X133718904Y-77141614D02*
X133779380Y-77202090D01*
X133779380Y-77202090D02*
X133900333Y-77262566D01*
X133900333Y-77262566D02*
X134202714Y-77262566D01*
X134202714Y-77262566D02*
X134323666Y-77202090D01*
X134323666Y-77202090D02*
X134384142Y-77141614D01*
X134384142Y-77141614D02*
X134444619Y-77020661D01*
X134444619Y-77020661D02*
X134444619Y-76718280D01*
X134444619Y-76718280D02*
X134384142Y-76597328D01*
X134384142Y-76597328D02*
X134323666Y-76536852D01*
X134323666Y-76536852D02*
X134202714Y-76476376D01*
X134202714Y-76476376D02*
X133900333Y-76476376D01*
X133900333Y-76476376D02*
X133779380Y-76536852D01*
X133779380Y-76536852D02*
X133718904Y-76597328D01*
X134807476Y-77746376D02*
X135230809Y-76476376D01*
X135230809Y-76476376D02*
X135654143Y-77746376D01*
X178733147Y-86601904D02*
X178793623Y-86783333D01*
X178793623Y-86783333D02*
X178793623Y-87085714D01*
X178793623Y-87085714D02*
X178733147Y-87206666D01*
X178733147Y-87206666D02*
X178672671Y-87267142D01*
X178672671Y-87267142D02*
X178551719Y-87327619D01*
X178551719Y-87327619D02*
X178430766Y-87327619D01*
X178430766Y-87327619D02*
X178309814Y-87267142D01*
X178309814Y-87267142D02*
X178249338Y-87206666D01*
X178249338Y-87206666D02*
X178188861Y-87085714D01*
X178188861Y-87085714D02*
X178128385Y-86843809D01*
X178128385Y-86843809D02*
X178067909Y-86722857D01*
X178067909Y-86722857D02*
X178007433Y-86662380D01*
X178007433Y-86662380D02*
X177886480Y-86601904D01*
X177886480Y-86601904D02*
X177765528Y-86601904D01*
X177765528Y-86601904D02*
X177644576Y-86662380D01*
X177644576Y-86662380D02*
X177584100Y-86722857D01*
X177584100Y-86722857D02*
X177523623Y-86843809D01*
X177523623Y-86843809D02*
X177523623Y-87146190D01*
X177523623Y-87146190D02*
X177584100Y-87327619D01*
X178672671Y-88597619D02*
X178733147Y-88537143D01*
X178733147Y-88537143D02*
X178793623Y-88355714D01*
X178793623Y-88355714D02*
X178793623Y-88234762D01*
X178793623Y-88234762D02*
X178733147Y-88053333D01*
X178733147Y-88053333D02*
X178612195Y-87932381D01*
X178612195Y-87932381D02*
X178491242Y-87871904D01*
X178491242Y-87871904D02*
X178249338Y-87811428D01*
X178249338Y-87811428D02*
X178067909Y-87811428D01*
X178067909Y-87811428D02*
X177826004Y-87871904D01*
X177826004Y-87871904D02*
X177705052Y-87932381D01*
X177705052Y-87932381D02*
X177584100Y-88053333D01*
X177584100Y-88053333D02*
X177523623Y-88234762D01*
X177523623Y-88234762D02*
X177523623Y-88355714D01*
X177523623Y-88355714D02*
X177584100Y-88537143D01*
X177584100Y-88537143D02*
X177644576Y-88597619D01*
X178793623Y-89746666D02*
X178793623Y-89141904D01*
X178793623Y-89141904D02*
X177523623Y-89141904D01*
X148094095Y-99866147D02*
X147912666Y-99926623D01*
X147912666Y-99926623D02*
X147610285Y-99926623D01*
X147610285Y-99926623D02*
X147489333Y-99866147D01*
X147489333Y-99866147D02*
X147428857Y-99805671D01*
X147428857Y-99805671D02*
X147368380Y-99684719D01*
X147368380Y-99684719D02*
X147368380Y-99563766D01*
X147368380Y-99563766D02*
X147428857Y-99442814D01*
X147428857Y-99442814D02*
X147489333Y-99382338D01*
X147489333Y-99382338D02*
X147610285Y-99321861D01*
X147610285Y-99321861D02*
X147852190Y-99261385D01*
X147852190Y-99261385D02*
X147973142Y-99200909D01*
X147973142Y-99200909D02*
X148033619Y-99140433D01*
X148033619Y-99140433D02*
X148094095Y-99019480D01*
X148094095Y-99019480D02*
X148094095Y-98898528D01*
X148094095Y-98898528D02*
X148033619Y-98777576D01*
X148033619Y-98777576D02*
X147973142Y-98717100D01*
X147973142Y-98717100D02*
X147852190Y-98656623D01*
X147852190Y-98656623D02*
X147549809Y-98656623D01*
X147549809Y-98656623D02*
X147368380Y-98717100D01*
X146098380Y-99805671D02*
X146158856Y-99866147D01*
X146158856Y-99866147D02*
X146340285Y-99926623D01*
X146340285Y-99926623D02*
X146461237Y-99926623D01*
X146461237Y-99926623D02*
X146642666Y-99866147D01*
X146642666Y-99866147D02*
X146763618Y-99745195D01*
X146763618Y-99745195D02*
X146824095Y-99624242D01*
X146824095Y-99624242D02*
X146884571Y-99382338D01*
X146884571Y-99382338D02*
X146884571Y-99200909D01*
X146884571Y-99200909D02*
X146824095Y-98959004D01*
X146824095Y-98959004D02*
X146763618Y-98838052D01*
X146763618Y-98838052D02*
X146642666Y-98717100D01*
X146642666Y-98717100D02*
X146461237Y-98656623D01*
X146461237Y-98656623D02*
X146340285Y-98656623D01*
X146340285Y-98656623D02*
X146158856Y-98717100D01*
X146158856Y-98717100D02*
X146098380Y-98777576D01*
X145614571Y-99866147D02*
X145433142Y-99926623D01*
X145433142Y-99926623D02*
X145130761Y-99926623D01*
X145130761Y-99926623D02*
X145009809Y-99866147D01*
X145009809Y-99866147D02*
X144949333Y-99805671D01*
X144949333Y-99805671D02*
X144888856Y-99684719D01*
X144888856Y-99684719D02*
X144888856Y-99563766D01*
X144888856Y-99563766D02*
X144949333Y-99442814D01*
X144949333Y-99442814D02*
X145009809Y-99382338D01*
X145009809Y-99382338D02*
X145130761Y-99321861D01*
X145130761Y-99321861D02*
X145372666Y-99261385D01*
X145372666Y-99261385D02*
X145493618Y-99200909D01*
X145493618Y-99200909D02*
X145554095Y-99140433D01*
X145554095Y-99140433D02*
X145614571Y-99019480D01*
X145614571Y-99019480D02*
X145614571Y-98898528D01*
X145614571Y-98898528D02*
X145554095Y-98777576D01*
X145554095Y-98777576D02*
X145493618Y-98717100D01*
X145493618Y-98717100D02*
X145372666Y-98656623D01*
X145372666Y-98656623D02*
X145070285Y-98656623D01*
X145070285Y-98656623D02*
X144888856Y-98717100D01*
X151529142Y-77746376D02*
X150924380Y-77746376D01*
X150924380Y-77746376D02*
X150863904Y-77141614D01*
X150863904Y-77141614D02*
X150924380Y-77202090D01*
X150924380Y-77202090D02*
X151045333Y-77262566D01*
X151045333Y-77262566D02*
X151347714Y-77262566D01*
X151347714Y-77262566D02*
X151468666Y-77202090D01*
X151468666Y-77202090D02*
X151529142Y-77141614D01*
X151529142Y-77141614D02*
X151589619Y-77020661D01*
X151589619Y-77020661D02*
X151589619Y-76718280D01*
X151589619Y-76718280D02*
X151529142Y-76597328D01*
X151529142Y-76597328D02*
X151468666Y-76536852D01*
X151468666Y-76536852D02*
X151347714Y-76476376D01*
X151347714Y-76476376D02*
X151045333Y-76476376D01*
X151045333Y-76476376D02*
X150924380Y-76536852D01*
X150924380Y-76536852D02*
X150863904Y-76597328D01*
X151952476Y-77746376D02*
X152375809Y-76476376D01*
X152375809Y-76476376D02*
X152799143Y-77746376D01*
D11*
X182865485Y-102338257D02*
X182936847Y-102266895D01*
X182936847Y-102266895D02*
X183079571Y-102195533D01*
X183079571Y-102195533D02*
X183222295Y-102195533D01*
X183222295Y-102195533D02*
X183365019Y-102266895D01*
X183365019Y-102266895D02*
X183436380Y-102338257D01*
X183436380Y-102338257D02*
X183507742Y-102480980D01*
X183507742Y-102480980D02*
X183507742Y-102623704D01*
X183507742Y-102623704D02*
X183436380Y-102766428D01*
X183436380Y-102766428D02*
X183365019Y-102837790D01*
X183365019Y-102837790D02*
X183222295Y-102909152D01*
X183222295Y-102909152D02*
X183079571Y-102909152D01*
X183079571Y-102909152D02*
X182936847Y-102837790D01*
X182936847Y-102837790D02*
X182865485Y-102766428D01*
X182865485Y-102195533D02*
X182865485Y-102766428D01*
X182865485Y-102766428D02*
X182794123Y-102837790D01*
X182794123Y-102837790D02*
X182722761Y-102837790D01*
X182722761Y-102837790D02*
X182580038Y-102766428D01*
X182580038Y-102766428D02*
X182508676Y-102623704D01*
X182508676Y-102623704D02*
X182508676Y-102266895D01*
X182508676Y-102266895D02*
X182651400Y-102052809D01*
X182651400Y-102052809D02*
X182865485Y-101910085D01*
X182865485Y-101910085D02*
X183150933Y-101838723D01*
X183150933Y-101838723D02*
X183436380Y-101910085D01*
X183436380Y-101910085D02*
X183650466Y-102052809D01*
X183650466Y-102052809D02*
X183793190Y-102266895D01*
X183793190Y-102266895D02*
X183864552Y-102552342D01*
X183864552Y-102552342D02*
X183793190Y-102837790D01*
X183793190Y-102837790D02*
X183650466Y-103051876D01*
X183650466Y-103051876D02*
X183436380Y-103194599D01*
X183436380Y-103194599D02*
X183150933Y-103265961D01*
X183150933Y-103265961D02*
X182865485Y-103194599D01*
X182865485Y-103194599D02*
X182651400Y-103051876D01*
X181652333Y-103051876D02*
X181795057Y-102980514D01*
X181795057Y-102980514D02*
X181866419Y-102837790D01*
X181866419Y-102837790D02*
X181866419Y-101553276D01*
X180439181Y-102052809D02*
X180439181Y-103051876D01*
X181081438Y-102052809D02*
X181081438Y-102837790D01*
X181081438Y-102837790D02*
X181010076Y-102980514D01*
X181010076Y-102980514D02*
X180867352Y-103051876D01*
X180867352Y-103051876D02*
X180653267Y-103051876D01*
X180653267Y-103051876D02*
X180510543Y-102980514D01*
X180510543Y-102980514D02*
X180439181Y-102909152D01*
X179868286Y-102052809D02*
X179083305Y-102052809D01*
X179083305Y-102052809D02*
X179868286Y-103051876D01*
X179868286Y-103051876D02*
X179083305Y-103051876D01*
X178512410Y-103051876D02*
X178512410Y-102052809D01*
X178512410Y-101553276D02*
X178583772Y-101624638D01*
X178583772Y-101624638D02*
X178512410Y-101695999D01*
X178512410Y-101695999D02*
X178441048Y-101624638D01*
X178441048Y-101624638D02*
X178512410Y-101553276D01*
X178512410Y-101553276D02*
X178512410Y-101695999D01*
X177156534Y-103051876D02*
X177156534Y-102266895D01*
X177156534Y-102266895D02*
X177227896Y-102124171D01*
X177227896Y-102124171D02*
X177370620Y-102052809D01*
X177370620Y-102052809D02*
X177656067Y-102052809D01*
X177656067Y-102052809D02*
X177798791Y-102124171D01*
X177156534Y-102980514D02*
X177299258Y-103051876D01*
X177299258Y-103051876D02*
X177656067Y-103051876D01*
X177656067Y-103051876D02*
X177798791Y-102980514D01*
X177798791Y-102980514D02*
X177870153Y-102837790D01*
X177870153Y-102837790D02*
X177870153Y-102695066D01*
X177870153Y-102695066D02*
X177798791Y-102552342D01*
X177798791Y-102552342D02*
X177656067Y-102480980D01*
X177656067Y-102480980D02*
X177299258Y-102480980D01*
X177299258Y-102480980D02*
X177156534Y-102409618D01*
X176657001Y-102052809D02*
X176086105Y-102052809D01*
X176442915Y-101553276D02*
X176442915Y-102837790D01*
X176442915Y-102837790D02*
X176371553Y-102980514D01*
X176371553Y-102980514D02*
X176228829Y-103051876D01*
X176228829Y-103051876D02*
X176086105Y-103051876D01*
X175372486Y-103051876D02*
X175515210Y-102980514D01*
X175515210Y-102980514D02*
X175586572Y-102909152D01*
X175586572Y-102909152D02*
X175657934Y-102766428D01*
X175657934Y-102766428D02*
X175657934Y-102338257D01*
X175657934Y-102338257D02*
X175586572Y-102195533D01*
X175586572Y-102195533D02*
X175515210Y-102124171D01*
X175515210Y-102124171D02*
X175372486Y-102052809D01*
X175372486Y-102052809D02*
X175158401Y-102052809D01*
X175158401Y-102052809D02*
X175015677Y-102124171D01*
X175015677Y-102124171D02*
X174944315Y-102195533D01*
X174944315Y-102195533D02*
X174872953Y-102338257D01*
X174872953Y-102338257D02*
X174872953Y-102766428D01*
X174872953Y-102766428D02*
X174944315Y-102909152D01*
X174944315Y-102909152D02*
X175015677Y-102980514D01*
X175015677Y-102980514D02*
X175158401Y-103051876D01*
X175158401Y-103051876D02*
X175372486Y-103051876D01*
D10*
X177523623Y-77270428D02*
X177523623Y-78056619D01*
X177523623Y-78056619D02*
X178007433Y-77633285D01*
X178007433Y-77633285D02*
X178007433Y-77814714D01*
X178007433Y-77814714D02*
X178067909Y-77935666D01*
X178067909Y-77935666D02*
X178128385Y-77996142D01*
X178128385Y-77996142D02*
X178249338Y-78056619D01*
X178249338Y-78056619D02*
X178551719Y-78056619D01*
X178551719Y-78056619D02*
X178672671Y-77996142D01*
X178672671Y-77996142D02*
X178733147Y-77935666D01*
X178733147Y-77935666D02*
X178793623Y-77814714D01*
X178793623Y-77814714D02*
X178793623Y-77451857D01*
X178793623Y-77451857D02*
X178733147Y-77330904D01*
X178733147Y-77330904D02*
X178672671Y-77270428D01*
X177523623Y-78419476D02*
X178793623Y-78842809D01*
X178793623Y-78842809D02*
X177523623Y-79266143D01*
X177523623Y-79568523D02*
X177523623Y-80354714D01*
X177523623Y-80354714D02*
X178007433Y-79931380D01*
X178007433Y-79931380D02*
X178007433Y-80112809D01*
X178007433Y-80112809D02*
X178067909Y-80233761D01*
X178067909Y-80233761D02*
X178128385Y-80294237D01*
X178128385Y-80294237D02*
X178249338Y-80354714D01*
X178249338Y-80354714D02*
X178551719Y-80354714D01*
X178551719Y-80354714D02*
X178672671Y-80294237D01*
X178672671Y-80294237D02*
X178733147Y-80233761D01*
X178733147Y-80233761D02*
X178793623Y-80112809D01*
X178793623Y-80112809D02*
X178793623Y-79749952D01*
X178793623Y-79749952D02*
X178733147Y-79628999D01*
X178733147Y-79628999D02*
X178672671Y-79568523D01*
X178733147Y-91046904D02*
X178793623Y-91228333D01*
X178793623Y-91228333D02*
X178793623Y-91530714D01*
X178793623Y-91530714D02*
X178733147Y-91651666D01*
X178733147Y-91651666D02*
X178672671Y-91712142D01*
X178672671Y-91712142D02*
X178551719Y-91772619D01*
X178551719Y-91772619D02*
X178430766Y-91772619D01*
X178430766Y-91772619D02*
X178309814Y-91712142D01*
X178309814Y-91712142D02*
X178249338Y-91651666D01*
X178249338Y-91651666D02*
X178188861Y-91530714D01*
X178188861Y-91530714D02*
X178128385Y-91288809D01*
X178128385Y-91288809D02*
X178067909Y-91167857D01*
X178067909Y-91167857D02*
X178007433Y-91107380D01*
X178007433Y-91107380D02*
X177886480Y-91046904D01*
X177886480Y-91046904D02*
X177765528Y-91046904D01*
X177765528Y-91046904D02*
X177644576Y-91107380D01*
X177644576Y-91107380D02*
X177584100Y-91167857D01*
X177584100Y-91167857D02*
X177523623Y-91288809D01*
X177523623Y-91288809D02*
X177523623Y-91591190D01*
X177523623Y-91591190D02*
X177584100Y-91772619D01*
X178793623Y-92316904D02*
X177523623Y-92316904D01*
X177523623Y-92316904D02*
X177523623Y-92619285D01*
X177523623Y-92619285D02*
X177584100Y-92800714D01*
X177584100Y-92800714D02*
X177705052Y-92921666D01*
X177705052Y-92921666D02*
X177826004Y-92982143D01*
X177826004Y-92982143D02*
X178067909Y-93042619D01*
X178067909Y-93042619D02*
X178249338Y-93042619D01*
X178249338Y-93042619D02*
X178491242Y-92982143D01*
X178491242Y-92982143D02*
X178612195Y-92921666D01*
X178612195Y-92921666D02*
X178733147Y-92800714D01*
X178733147Y-92800714D02*
X178793623Y-92619285D01*
X178793623Y-92619285D02*
X178793623Y-92316904D01*
X178430766Y-93526428D02*
X178430766Y-94131190D01*
X178793623Y-93405476D02*
X177523623Y-93828809D01*
X177523623Y-93828809D02*
X178793623Y-94252143D01*
X127215900Y-93647380D02*
X127276376Y-93768333D01*
X127276376Y-93768333D02*
X127276376Y-93949761D01*
X127276376Y-93949761D02*
X127215900Y-94131190D01*
X127215900Y-94131190D02*
X127094947Y-94252142D01*
X127094947Y-94252142D02*
X126973995Y-94312619D01*
X126973995Y-94312619D02*
X126732090Y-94373095D01*
X126732090Y-94373095D02*
X126550661Y-94373095D01*
X126550661Y-94373095D02*
X126308757Y-94312619D01*
X126308757Y-94312619D02*
X126187804Y-94252142D01*
X126187804Y-94252142D02*
X126066852Y-94131190D01*
X126066852Y-94131190D02*
X126006376Y-93949761D01*
X126006376Y-93949761D02*
X126006376Y-93828809D01*
X126006376Y-93828809D02*
X126066852Y-93647380D01*
X126066852Y-93647380D02*
X126127328Y-93586904D01*
X126127328Y-93586904D02*
X126550661Y-93586904D01*
X126550661Y-93586904D02*
X126550661Y-93828809D01*
X126006376Y-93042619D02*
X127276376Y-93042619D01*
X127276376Y-93042619D02*
X126006376Y-92316904D01*
X126006376Y-92316904D02*
X127276376Y-92316904D01*
X126006376Y-91712143D02*
X127276376Y-91712143D01*
X127276376Y-91712143D02*
X127276376Y-91409762D01*
X127276376Y-91409762D02*
X127215900Y-91228333D01*
X127215900Y-91228333D02*
X127094947Y-91107381D01*
X127094947Y-91107381D02*
X126973995Y-91046904D01*
X126973995Y-91046904D02*
X126732090Y-90986428D01*
X126732090Y-90986428D02*
X126550661Y-90986428D01*
X126550661Y-90986428D02*
X126308757Y-91046904D01*
X126308757Y-91046904D02*
X126187804Y-91107381D01*
X126187804Y-91107381D02*
X126066852Y-91228333D01*
X126066852Y-91228333D02*
X126006376Y-91409762D01*
X126006376Y-91409762D02*
X126006376Y-91712143D01*
X127276376Y-98878571D02*
X127276376Y-98092380D01*
X127276376Y-98092380D02*
X126792566Y-98515714D01*
X126792566Y-98515714D02*
X126792566Y-98334285D01*
X126792566Y-98334285D02*
X126732090Y-98213333D01*
X126732090Y-98213333D02*
X126671614Y-98152857D01*
X126671614Y-98152857D02*
X126550661Y-98092380D01*
X126550661Y-98092380D02*
X126248280Y-98092380D01*
X126248280Y-98092380D02*
X126127328Y-98152857D01*
X126127328Y-98152857D02*
X126066852Y-98213333D01*
X126066852Y-98213333D02*
X126006376Y-98334285D01*
X126006376Y-98334285D02*
X126006376Y-98697142D01*
X126006376Y-98697142D02*
X126066852Y-98818095D01*
X126066852Y-98818095D02*
X126127328Y-98878571D01*
X127276376Y-97729523D02*
X126006376Y-97306190D01*
X126006376Y-97306190D02*
X127276376Y-96882856D01*
X127276376Y-96580476D02*
X127276376Y-95794285D01*
X127276376Y-95794285D02*
X126792566Y-96217619D01*
X126792566Y-96217619D02*
X126792566Y-96036190D01*
X126792566Y-96036190D02*
X126732090Y-95915238D01*
X126732090Y-95915238D02*
X126671614Y-95854762D01*
X126671614Y-95854762D02*
X126550661Y-95794285D01*
X126550661Y-95794285D02*
X126248280Y-95794285D01*
X126248280Y-95794285D02*
X126127328Y-95854762D01*
X126127328Y-95854762D02*
X126066852Y-95915238D01*
X126066852Y-95915238D02*
X126006376Y-96036190D01*
X126006376Y-96036190D02*
X126006376Y-96399047D01*
X126006376Y-96399047D02*
X126066852Y-96520000D01*
X126066852Y-96520000D02*
X126127328Y-96580476D01*
X177158952Y-74444376D02*
X177884666Y-74444376D01*
X177521809Y-73174376D02*
X177521809Y-74444376D01*
X178126571Y-74444376D02*
X178852285Y-74444376D01*
X178489428Y-73174376D02*
X178489428Y-74444376D01*
X179880380Y-73174376D02*
X179275618Y-73174376D01*
X179275618Y-73174376D02*
X179275618Y-74444376D01*
X177584100Y-82501619D02*
X177523623Y-82380666D01*
X177523623Y-82380666D02*
X177523623Y-82199238D01*
X177523623Y-82199238D02*
X177584100Y-82017809D01*
X177584100Y-82017809D02*
X177705052Y-81896857D01*
X177705052Y-81896857D02*
X177826004Y-81836380D01*
X177826004Y-81836380D02*
X178067909Y-81775904D01*
X178067909Y-81775904D02*
X178249338Y-81775904D01*
X178249338Y-81775904D02*
X178491242Y-81836380D01*
X178491242Y-81836380D02*
X178612195Y-81896857D01*
X178612195Y-81896857D02*
X178733147Y-82017809D01*
X178733147Y-82017809D02*
X178793623Y-82199238D01*
X178793623Y-82199238D02*
X178793623Y-82320190D01*
X178793623Y-82320190D02*
X178733147Y-82501619D01*
X178733147Y-82501619D02*
X178672671Y-82562095D01*
X178672671Y-82562095D02*
X178249338Y-82562095D01*
X178249338Y-82562095D02*
X178249338Y-82320190D01*
X178793623Y-83106380D02*
X177523623Y-83106380D01*
X177523623Y-83106380D02*
X178793623Y-83832095D01*
X178793623Y-83832095D02*
X177523623Y-83832095D01*
X178793623Y-84436856D02*
X177523623Y-84436856D01*
X177523623Y-84436856D02*
X177523623Y-84739237D01*
X177523623Y-84739237D02*
X177584100Y-84920666D01*
X177584100Y-84920666D02*
X177705052Y-85041618D01*
X177705052Y-85041618D02*
X177826004Y-85102095D01*
X177826004Y-85102095D02*
X178067909Y-85162571D01*
X178067909Y-85162571D02*
X178249338Y-85162571D01*
X178249338Y-85162571D02*
X178491242Y-85102095D01*
X178491242Y-85102095D02*
X178612195Y-85041618D01*
X178612195Y-85041618D02*
X178733147Y-84920666D01*
X178733147Y-84920666D02*
X178793623Y-84739237D01*
X178793623Y-84739237D02*
X178793623Y-84436856D01*
X178733147Y-95618904D02*
X178793623Y-95739857D01*
X178793623Y-95739857D02*
X178793623Y-95981761D01*
X178793623Y-95981761D02*
X178733147Y-96102714D01*
X178733147Y-96102714D02*
X178612195Y-96163190D01*
X178612195Y-96163190D02*
X178551719Y-96163190D01*
X178551719Y-96163190D02*
X178430766Y-96102714D01*
X178430766Y-96102714D02*
X178370290Y-95981761D01*
X178370290Y-95981761D02*
X178370290Y-95800333D01*
X178370290Y-95800333D02*
X178309814Y-95679380D01*
X178309814Y-95679380D02*
X178188861Y-95618904D01*
X178188861Y-95618904D02*
X178128385Y-95618904D01*
X178128385Y-95618904D02*
X178007433Y-95679380D01*
X178007433Y-95679380D02*
X177946957Y-95800333D01*
X177946957Y-95800333D02*
X177946957Y-95981761D01*
X177946957Y-95981761D02*
X178007433Y-96102714D01*
X178128385Y-97130809D02*
X178188861Y-97312237D01*
X178188861Y-97312237D02*
X178249338Y-97372714D01*
X178249338Y-97372714D02*
X178370290Y-97433190D01*
X178370290Y-97433190D02*
X178551719Y-97433190D01*
X178551719Y-97433190D02*
X178672671Y-97372714D01*
X178672671Y-97372714D02*
X178733147Y-97312237D01*
X178733147Y-97312237D02*
X178793623Y-97191285D01*
X178793623Y-97191285D02*
X178793623Y-96707475D01*
X178793623Y-96707475D02*
X177523623Y-96707475D01*
X177523623Y-96707475D02*
X177523623Y-97130809D01*
X177523623Y-97130809D02*
X177584100Y-97251761D01*
X177584100Y-97251761D02*
X177644576Y-97312237D01*
X177644576Y-97312237D02*
X177765528Y-97372714D01*
X177765528Y-97372714D02*
X177886480Y-97372714D01*
X177886480Y-97372714D02*
X178007433Y-97312237D01*
X178007433Y-97312237D02*
X178067909Y-97251761D01*
X178067909Y-97251761D02*
X178128385Y-97130809D01*
X178128385Y-97130809D02*
X178128385Y-96707475D01*
X178793623Y-97856523D02*
X177946957Y-98521761D01*
X177946957Y-97856523D02*
X178793623Y-98521761D01*
X171250428Y-77746376D02*
X172036619Y-77746376D01*
X172036619Y-77746376D02*
X171613285Y-77262566D01*
X171613285Y-77262566D02*
X171794714Y-77262566D01*
X171794714Y-77262566D02*
X171915666Y-77202090D01*
X171915666Y-77202090D02*
X171976142Y-77141614D01*
X171976142Y-77141614D02*
X172036619Y-77020661D01*
X172036619Y-77020661D02*
X172036619Y-76718280D01*
X172036619Y-76718280D02*
X171976142Y-76597328D01*
X171976142Y-76597328D02*
X171915666Y-76536852D01*
X171915666Y-76536852D02*
X171794714Y-76476376D01*
X171794714Y-76476376D02*
X171431857Y-76476376D01*
X171431857Y-76476376D02*
X171310904Y-76536852D01*
X171310904Y-76536852D02*
X171250428Y-76597328D01*
X172399476Y-77746376D02*
X172822809Y-76476376D01*
X172822809Y-76476376D02*
X173246143Y-77746376D01*
X173548523Y-77746376D02*
X174334714Y-77746376D01*
X174334714Y-77746376D02*
X173911380Y-77262566D01*
X173911380Y-77262566D02*
X174092809Y-77262566D01*
X174092809Y-77262566D02*
X174213761Y-77202090D01*
X174213761Y-77202090D02*
X174274237Y-77141614D01*
X174274237Y-77141614D02*
X174334714Y-77020661D01*
X174334714Y-77020661D02*
X174334714Y-76718280D01*
X174334714Y-76718280D02*
X174274237Y-76597328D01*
X174274237Y-76597328D02*
X174213761Y-76536852D01*
X174213761Y-76536852D02*
X174092809Y-76476376D01*
X174092809Y-76476376D02*
X173729952Y-76476376D01*
X173729952Y-76476376D02*
X173608999Y-76536852D01*
X173608999Y-76536852D02*
X173548523Y-76597328D01*
X165934571Y-98656623D02*
X165148380Y-98656623D01*
X165148380Y-98656623D02*
X165571714Y-99140433D01*
X165571714Y-99140433D02*
X165390285Y-99140433D01*
X165390285Y-99140433D02*
X165269333Y-99200909D01*
X165269333Y-99200909D02*
X165208857Y-99261385D01*
X165208857Y-99261385D02*
X165148380Y-99382338D01*
X165148380Y-99382338D02*
X165148380Y-99684719D01*
X165148380Y-99684719D02*
X165208857Y-99805671D01*
X165208857Y-99805671D02*
X165269333Y-99866147D01*
X165269333Y-99866147D02*
X165390285Y-99926623D01*
X165390285Y-99926623D02*
X165753142Y-99926623D01*
X165753142Y-99926623D02*
X165874095Y-99866147D01*
X165874095Y-99866147D02*
X165934571Y-99805671D01*
X164785523Y-98656623D02*
X164362190Y-99926623D01*
X164362190Y-99926623D02*
X163938856Y-98656623D01*
X163636476Y-98656623D02*
X162850285Y-98656623D01*
X162850285Y-98656623D02*
X163273619Y-99140433D01*
X163273619Y-99140433D02*
X163092190Y-99140433D01*
X163092190Y-99140433D02*
X162971238Y-99200909D01*
X162971238Y-99200909D02*
X162910762Y-99261385D01*
X162910762Y-99261385D02*
X162850285Y-99382338D01*
X162850285Y-99382338D02*
X162850285Y-99684719D01*
X162850285Y-99684719D02*
X162910762Y-99805671D01*
X162910762Y-99805671D02*
X162971238Y-99866147D01*
X162971238Y-99866147D02*
X163092190Y-99926623D01*
X163092190Y-99926623D02*
X163455047Y-99926623D01*
X163455047Y-99926623D02*
X163576000Y-99866147D01*
X163576000Y-99866147D02*
X163636476Y-99805671D01*
X129237619Y-102690385D02*
X128814285Y-102690385D01*
X128632857Y-103355623D02*
X129237619Y-103355623D01*
X129237619Y-103355623D02*
X129237619Y-102085623D01*
X129237619Y-102085623D02*
X128632857Y-102085623D01*
X128269999Y-102085623D02*
X127544285Y-102085623D01*
X127907142Y-103355623D02*
X127907142Y-102085623D01*
X127120952Y-103355623D02*
X127120952Y-102085623D01*
X127120952Y-102690385D02*
X126395237Y-102690385D01*
X126395237Y-103355623D02*
X126395237Y-102085623D01*
X161791952Y-77873376D02*
X162517666Y-77873376D01*
X162154809Y-76603376D02*
X162154809Y-77873376D01*
X162759571Y-77873376D02*
X163485285Y-77873376D01*
X163122428Y-76603376D02*
X163122428Y-77873376D01*
X164513380Y-76603376D02*
X163908618Y-76603376D01*
X163908618Y-76603376D02*
X163908618Y-77873376D01*
X126066852Y-80403095D02*
X126006376Y-80282142D01*
X126006376Y-80282142D02*
X126006376Y-80040238D01*
X126006376Y-80040238D02*
X126066852Y-79919285D01*
X126066852Y-79919285D02*
X126187804Y-79858809D01*
X126187804Y-79858809D02*
X126248280Y-79858809D01*
X126248280Y-79858809D02*
X126369233Y-79919285D01*
X126369233Y-79919285D02*
X126429709Y-80040238D01*
X126429709Y-80040238D02*
X126429709Y-80221666D01*
X126429709Y-80221666D02*
X126490185Y-80342619D01*
X126490185Y-80342619D02*
X126611138Y-80403095D01*
X126611138Y-80403095D02*
X126671614Y-80403095D01*
X126671614Y-80403095D02*
X126792566Y-80342619D01*
X126792566Y-80342619D02*
X126853042Y-80221666D01*
X126853042Y-80221666D02*
X126853042Y-80040238D01*
X126853042Y-80040238D02*
X126792566Y-79919285D01*
X126369233Y-79375000D02*
X126369233Y-78770238D01*
X126006376Y-79495952D02*
X127276376Y-79072619D01*
X127276376Y-79072619D02*
X126006376Y-78649285D01*
X126006376Y-78346905D02*
X126853042Y-77681667D01*
X126853042Y-78346905D02*
X126006376Y-77681667D01*
X129114852Y-91452095D02*
X129054376Y-91270666D01*
X129054376Y-91270666D02*
X129054376Y-90968285D01*
X129054376Y-90968285D02*
X129114852Y-90847333D01*
X129114852Y-90847333D02*
X129175328Y-90786857D01*
X129175328Y-90786857D02*
X129296280Y-90726380D01*
X129296280Y-90726380D02*
X129417233Y-90726380D01*
X129417233Y-90726380D02*
X129538185Y-90786857D01*
X129538185Y-90786857D02*
X129598661Y-90847333D01*
X129598661Y-90847333D02*
X129659138Y-90968285D01*
X129659138Y-90968285D02*
X129719614Y-91210190D01*
X129719614Y-91210190D02*
X129780090Y-91331142D01*
X129780090Y-91331142D02*
X129840566Y-91391619D01*
X129840566Y-91391619D02*
X129961519Y-91452095D01*
X129961519Y-91452095D02*
X130082471Y-91452095D01*
X130082471Y-91452095D02*
X130203423Y-91391619D01*
X130203423Y-91391619D02*
X130263900Y-91331142D01*
X130263900Y-91331142D02*
X130324376Y-91210190D01*
X130324376Y-91210190D02*
X130324376Y-90907809D01*
X130324376Y-90907809D02*
X130263900Y-90726380D01*
X129114852Y-89698285D02*
X129054376Y-89819237D01*
X129054376Y-89819237D02*
X129054376Y-90061142D01*
X129054376Y-90061142D02*
X129114852Y-90182095D01*
X129114852Y-90182095D02*
X129235804Y-90242571D01*
X129235804Y-90242571D02*
X129719614Y-90242571D01*
X129719614Y-90242571D02*
X129840566Y-90182095D01*
X129840566Y-90182095D02*
X129901042Y-90061142D01*
X129901042Y-90061142D02*
X129901042Y-89819237D01*
X129901042Y-89819237D02*
X129840566Y-89698285D01*
X129840566Y-89698285D02*
X129719614Y-89637809D01*
X129719614Y-89637809D02*
X129598661Y-89637809D01*
X129598661Y-89637809D02*
X129477709Y-90242571D01*
X129901042Y-89093524D02*
X129054376Y-89093524D01*
X129780090Y-89093524D02*
X129840566Y-89033047D01*
X129840566Y-89033047D02*
X129901042Y-88912095D01*
X129901042Y-88912095D02*
X129901042Y-88730666D01*
X129901042Y-88730666D02*
X129840566Y-88609714D01*
X129840566Y-88609714D02*
X129719614Y-88549238D01*
X129719614Y-88549238D02*
X129054376Y-88549238D01*
X129114852Y-88004952D02*
X129054376Y-87883999D01*
X129054376Y-87883999D02*
X129054376Y-87642095D01*
X129054376Y-87642095D02*
X129114852Y-87521142D01*
X129114852Y-87521142D02*
X129235804Y-87460666D01*
X129235804Y-87460666D02*
X129296280Y-87460666D01*
X129296280Y-87460666D02*
X129417233Y-87521142D01*
X129417233Y-87521142D02*
X129477709Y-87642095D01*
X129477709Y-87642095D02*
X129477709Y-87823523D01*
X129477709Y-87823523D02*
X129538185Y-87944476D01*
X129538185Y-87944476D02*
X129659138Y-88004952D01*
X129659138Y-88004952D02*
X129719614Y-88004952D01*
X129719614Y-88004952D02*
X129840566Y-87944476D01*
X129840566Y-87944476D02*
X129901042Y-87823523D01*
X129901042Y-87823523D02*
X129901042Y-87642095D01*
X129901042Y-87642095D02*
X129840566Y-87521142D01*
X129417233Y-86976857D02*
X129417233Y-86372095D01*
X129054376Y-87097809D02*
X130324376Y-86674476D01*
X130324376Y-86674476D02*
X129054376Y-86251142D01*
X138889619Y-76476376D02*
X138163904Y-76476376D01*
X138526761Y-76476376D02*
X138526761Y-77746376D01*
X138526761Y-77746376D02*
X138405809Y-77564947D01*
X138405809Y-77564947D02*
X138284857Y-77443995D01*
X138284857Y-77443995D02*
X138163904Y-77383519D01*
X139373428Y-77625423D02*
X139433904Y-77685900D01*
X139433904Y-77685900D02*
X139554857Y-77746376D01*
X139554857Y-77746376D02*
X139857238Y-77746376D01*
X139857238Y-77746376D02*
X139978190Y-77685900D01*
X139978190Y-77685900D02*
X140038666Y-77625423D01*
X140038666Y-77625423D02*
X140099143Y-77504471D01*
X140099143Y-77504471D02*
X140099143Y-77383519D01*
X140099143Y-77383519D02*
X140038666Y-77202090D01*
X140038666Y-77202090D02*
X139312952Y-76476376D01*
X139312952Y-76476376D02*
X140099143Y-76476376D01*
X140462000Y-77746376D02*
X140885333Y-76476376D01*
X140885333Y-76476376D02*
X141308667Y-77746376D01*
X167210619Y-77685900D02*
X167089666Y-77746376D01*
X167089666Y-77746376D02*
X166908238Y-77746376D01*
X166908238Y-77746376D02*
X166726809Y-77685900D01*
X166726809Y-77685900D02*
X166605857Y-77564947D01*
X166605857Y-77564947D02*
X166545380Y-77443995D01*
X166545380Y-77443995D02*
X166484904Y-77202090D01*
X166484904Y-77202090D02*
X166484904Y-77020661D01*
X166484904Y-77020661D02*
X166545380Y-76778757D01*
X166545380Y-76778757D02*
X166605857Y-76657804D01*
X166605857Y-76657804D02*
X166726809Y-76536852D01*
X166726809Y-76536852D02*
X166908238Y-76476376D01*
X166908238Y-76476376D02*
X167029190Y-76476376D01*
X167029190Y-76476376D02*
X167210619Y-76536852D01*
X167210619Y-76536852D02*
X167271095Y-76597328D01*
X167271095Y-76597328D02*
X167271095Y-77020661D01*
X167271095Y-77020661D02*
X167029190Y-77020661D01*
X167815380Y-76476376D02*
X167815380Y-77746376D01*
X167815380Y-77746376D02*
X168541095Y-76476376D01*
X168541095Y-76476376D02*
X168541095Y-77746376D01*
X169145856Y-76476376D02*
X169145856Y-77746376D01*
X169145856Y-77746376D02*
X169448237Y-77746376D01*
X169448237Y-77746376D02*
X169629666Y-77685900D01*
X169629666Y-77685900D02*
X169750618Y-77564947D01*
X169750618Y-77564947D02*
X169811095Y-77443995D01*
X169811095Y-77443995D02*
X169871571Y-77202090D01*
X169871571Y-77202090D02*
X169871571Y-77020661D01*
X169871571Y-77020661D02*
X169811095Y-76778757D01*
X169811095Y-76778757D02*
X169750618Y-76657804D01*
X169750618Y-76657804D02*
X169629666Y-76536852D01*
X169629666Y-76536852D02*
X169448237Y-76476376D01*
X169448237Y-76476376D02*
X169145856Y-76476376D01*
X154383619Y-99926623D02*
X154383619Y-98656623D01*
X154383619Y-98656623D02*
X153960285Y-99563766D01*
X153960285Y-99563766D02*
X153536952Y-98656623D01*
X153536952Y-98656623D02*
X153536952Y-99926623D01*
X152690285Y-98656623D02*
X152448380Y-98656623D01*
X152448380Y-98656623D02*
X152327428Y-98717100D01*
X152327428Y-98717100D02*
X152206475Y-98838052D01*
X152206475Y-98838052D02*
X152145999Y-99079957D01*
X152145999Y-99079957D02*
X152145999Y-99503290D01*
X152145999Y-99503290D02*
X152206475Y-99745195D01*
X152206475Y-99745195D02*
X152327428Y-99866147D01*
X152327428Y-99866147D02*
X152448380Y-99926623D01*
X152448380Y-99926623D02*
X152690285Y-99926623D01*
X152690285Y-99926623D02*
X152811237Y-99866147D01*
X152811237Y-99866147D02*
X152932190Y-99745195D01*
X152932190Y-99745195D02*
X152992666Y-99503290D01*
X152992666Y-99503290D02*
X152992666Y-99079957D01*
X152992666Y-99079957D02*
X152932190Y-98838052D01*
X152932190Y-98838052D02*
X152811237Y-98717100D01*
X152811237Y-98717100D02*
X152690285Y-98656623D01*
X151662190Y-99866147D02*
X151480761Y-99926623D01*
X151480761Y-99926623D02*
X151178380Y-99926623D01*
X151178380Y-99926623D02*
X151057428Y-99866147D01*
X151057428Y-99866147D02*
X150996952Y-99805671D01*
X150996952Y-99805671D02*
X150936475Y-99684719D01*
X150936475Y-99684719D02*
X150936475Y-99563766D01*
X150936475Y-99563766D02*
X150996952Y-99442814D01*
X150996952Y-99442814D02*
X151057428Y-99382338D01*
X151057428Y-99382338D02*
X151178380Y-99321861D01*
X151178380Y-99321861D02*
X151420285Y-99261385D01*
X151420285Y-99261385D02*
X151541237Y-99200909D01*
X151541237Y-99200909D02*
X151601714Y-99140433D01*
X151601714Y-99140433D02*
X151662190Y-99019480D01*
X151662190Y-99019480D02*
X151662190Y-98898528D01*
X151662190Y-98898528D02*
X151601714Y-98777576D01*
X151601714Y-98777576D02*
X151541237Y-98717100D01*
X151541237Y-98717100D02*
X151420285Y-98656623D01*
X151420285Y-98656623D02*
X151117904Y-98656623D01*
X151117904Y-98656623D02*
X150936475Y-98717100D01*
X150392190Y-99926623D02*
X150392190Y-98656623D01*
X156034619Y-77685900D02*
X155913666Y-77746376D01*
X155913666Y-77746376D02*
X155732238Y-77746376D01*
X155732238Y-77746376D02*
X155550809Y-77685900D01*
X155550809Y-77685900D02*
X155429857Y-77564947D01*
X155429857Y-77564947D02*
X155369380Y-77443995D01*
X155369380Y-77443995D02*
X155308904Y-77202090D01*
X155308904Y-77202090D02*
X155308904Y-77020661D01*
X155308904Y-77020661D02*
X155369380Y-76778757D01*
X155369380Y-76778757D02*
X155429857Y-76657804D01*
X155429857Y-76657804D02*
X155550809Y-76536852D01*
X155550809Y-76536852D02*
X155732238Y-76476376D01*
X155732238Y-76476376D02*
X155853190Y-76476376D01*
X155853190Y-76476376D02*
X156034619Y-76536852D01*
X156034619Y-76536852D02*
X156095095Y-76597328D01*
X156095095Y-76597328D02*
X156095095Y-77020661D01*
X156095095Y-77020661D02*
X155853190Y-77020661D01*
X156639380Y-76476376D02*
X156639380Y-77746376D01*
X156639380Y-77746376D02*
X157365095Y-76476376D01*
X157365095Y-76476376D02*
X157365095Y-77746376D01*
X157969856Y-76476376D02*
X157969856Y-77746376D01*
X157969856Y-77746376D02*
X158272237Y-77746376D01*
X158272237Y-77746376D02*
X158453666Y-77685900D01*
X158453666Y-77685900D02*
X158574618Y-77564947D01*
X158574618Y-77564947D02*
X158635095Y-77443995D01*
X158635095Y-77443995D02*
X158695571Y-77202090D01*
X158695571Y-77202090D02*
X158695571Y-77020661D01*
X158695571Y-77020661D02*
X158635095Y-76778757D01*
X158635095Y-76778757D02*
X158574618Y-76657804D01*
X158574618Y-76657804D02*
X158453666Y-76536852D01*
X158453666Y-76536852D02*
X158272237Y-76476376D01*
X158272237Y-76476376D02*
X157969856Y-76476376D01*
X175558147Y-85458904D02*
X175618623Y-85640333D01*
X175618623Y-85640333D02*
X175618623Y-85942714D01*
X175618623Y-85942714D02*
X175558147Y-86063666D01*
X175558147Y-86063666D02*
X175497671Y-86124142D01*
X175497671Y-86124142D02*
X175376719Y-86184619D01*
X175376719Y-86184619D02*
X175255766Y-86184619D01*
X175255766Y-86184619D02*
X175134814Y-86124142D01*
X175134814Y-86124142D02*
X175074338Y-86063666D01*
X175074338Y-86063666D02*
X175013861Y-85942714D01*
X175013861Y-85942714D02*
X174953385Y-85700809D01*
X174953385Y-85700809D02*
X174892909Y-85579857D01*
X174892909Y-85579857D02*
X174832433Y-85519380D01*
X174832433Y-85519380D02*
X174711480Y-85458904D01*
X174711480Y-85458904D02*
X174590528Y-85458904D01*
X174590528Y-85458904D02*
X174469576Y-85519380D01*
X174469576Y-85519380D02*
X174409100Y-85579857D01*
X174409100Y-85579857D02*
X174348623Y-85700809D01*
X174348623Y-85700809D02*
X174348623Y-86003190D01*
X174348623Y-86003190D02*
X174409100Y-86184619D01*
X175558147Y-87212714D02*
X175618623Y-87091762D01*
X175618623Y-87091762D02*
X175618623Y-86849857D01*
X175618623Y-86849857D02*
X175558147Y-86728904D01*
X175558147Y-86728904D02*
X175437195Y-86668428D01*
X175437195Y-86668428D02*
X174953385Y-86668428D01*
X174953385Y-86668428D02*
X174832433Y-86728904D01*
X174832433Y-86728904D02*
X174771957Y-86849857D01*
X174771957Y-86849857D02*
X174771957Y-87091762D01*
X174771957Y-87091762D02*
X174832433Y-87212714D01*
X174832433Y-87212714D02*
X174953385Y-87273190D01*
X174953385Y-87273190D02*
X175074338Y-87273190D01*
X175074338Y-87273190D02*
X175195290Y-86668428D01*
X174771957Y-87817475D02*
X175618623Y-87817475D01*
X174892909Y-87817475D02*
X174832433Y-87877952D01*
X174832433Y-87877952D02*
X174771957Y-87998904D01*
X174771957Y-87998904D02*
X174771957Y-88180333D01*
X174771957Y-88180333D02*
X174832433Y-88301285D01*
X174832433Y-88301285D02*
X174953385Y-88361761D01*
X174953385Y-88361761D02*
X175618623Y-88361761D01*
X175558147Y-88906047D02*
X175618623Y-89027000D01*
X175618623Y-89027000D02*
X175618623Y-89268904D01*
X175618623Y-89268904D02*
X175558147Y-89389857D01*
X175558147Y-89389857D02*
X175437195Y-89450333D01*
X175437195Y-89450333D02*
X175376719Y-89450333D01*
X175376719Y-89450333D02*
X175255766Y-89389857D01*
X175255766Y-89389857D02*
X175195290Y-89268904D01*
X175195290Y-89268904D02*
X175195290Y-89087476D01*
X175195290Y-89087476D02*
X175134814Y-88966523D01*
X175134814Y-88966523D02*
X175013861Y-88906047D01*
X175013861Y-88906047D02*
X174953385Y-88906047D01*
X174953385Y-88906047D02*
X174832433Y-88966523D01*
X174832433Y-88966523D02*
X174771957Y-89087476D01*
X174771957Y-89087476D02*
X174771957Y-89268904D01*
X174771957Y-89268904D02*
X174832433Y-89389857D01*
X174953385Y-90417952D02*
X175013861Y-90599380D01*
X175013861Y-90599380D02*
X175074338Y-90659857D01*
X175074338Y-90659857D02*
X175195290Y-90720333D01*
X175195290Y-90720333D02*
X175376719Y-90720333D01*
X175376719Y-90720333D02*
X175497671Y-90659857D01*
X175497671Y-90659857D02*
X175558147Y-90599380D01*
X175558147Y-90599380D02*
X175618623Y-90478428D01*
X175618623Y-90478428D02*
X175618623Y-89994618D01*
X175618623Y-89994618D02*
X174348623Y-89994618D01*
X174348623Y-89994618D02*
X174348623Y-90417952D01*
X174348623Y-90417952D02*
X174409100Y-90538904D01*
X174409100Y-90538904D02*
X174469576Y-90599380D01*
X174469576Y-90599380D02*
X174590528Y-90659857D01*
X174590528Y-90659857D02*
X174711480Y-90659857D01*
X174711480Y-90659857D02*
X174832433Y-90599380D01*
X174832433Y-90599380D02*
X174892909Y-90538904D01*
X174892909Y-90538904D02*
X174953385Y-90417952D01*
X174953385Y-90417952D02*
X174953385Y-89994618D01*
X126066852Y-84848095D02*
X126006376Y-84666666D01*
X126006376Y-84666666D02*
X126006376Y-84364285D01*
X126006376Y-84364285D02*
X126066852Y-84243333D01*
X126066852Y-84243333D02*
X126127328Y-84182857D01*
X126127328Y-84182857D02*
X126248280Y-84122380D01*
X126248280Y-84122380D02*
X126369233Y-84122380D01*
X126369233Y-84122380D02*
X126490185Y-84182857D01*
X126490185Y-84182857D02*
X126550661Y-84243333D01*
X126550661Y-84243333D02*
X126611138Y-84364285D01*
X126611138Y-84364285D02*
X126671614Y-84606190D01*
X126671614Y-84606190D02*
X126732090Y-84727142D01*
X126732090Y-84727142D02*
X126792566Y-84787619D01*
X126792566Y-84787619D02*
X126913519Y-84848095D01*
X126913519Y-84848095D02*
X127034471Y-84848095D01*
X127034471Y-84848095D02*
X127155423Y-84787619D01*
X127155423Y-84787619D02*
X127215900Y-84727142D01*
X127215900Y-84727142D02*
X127276376Y-84606190D01*
X127276376Y-84606190D02*
X127276376Y-84303809D01*
X127276376Y-84303809D02*
X127215900Y-84122380D01*
X126127328Y-82852380D02*
X126066852Y-82912856D01*
X126066852Y-82912856D02*
X126006376Y-83094285D01*
X126006376Y-83094285D02*
X126006376Y-83215237D01*
X126006376Y-83215237D02*
X126066852Y-83396666D01*
X126066852Y-83396666D02*
X126187804Y-83517618D01*
X126187804Y-83517618D02*
X126308757Y-83578095D01*
X126308757Y-83578095D02*
X126550661Y-83638571D01*
X126550661Y-83638571D02*
X126732090Y-83638571D01*
X126732090Y-83638571D02*
X126973995Y-83578095D01*
X126973995Y-83578095D02*
X127094947Y-83517618D01*
X127094947Y-83517618D02*
X127215900Y-83396666D01*
X127215900Y-83396666D02*
X127276376Y-83215237D01*
X127276376Y-83215237D02*
X127276376Y-83094285D01*
X127276376Y-83094285D02*
X127215900Y-82912856D01*
X127215900Y-82912856D02*
X127155423Y-82852380D01*
X126006376Y-81703333D02*
X126006376Y-82308095D01*
X126006376Y-82308095D02*
X127276376Y-82308095D01*
%LPC*%
D12*
%TO.C,J6*%
X181610000Y-78590000D03*
D13*
X181610000Y-83390000D03*
X181610000Y-88190000D03*
X181610000Y-92990000D03*
X181610000Y-97790000D03*
%TD*%
D14*
%TO.C,J4*%
X172720000Y-73660000D03*
D13*
X167920000Y-73660000D03*
X163120000Y-73660000D03*
%TD*%
D14*
%TO.C,J2*%
X139319000Y-73533000D03*
D13*
X134519000Y-73533000D03*
X129719000Y-73533000D03*
%TD*%
D15*
%TO.C,J7*%
X146864000Y-73533000D03*
D13*
X151664000Y-73533000D03*
X156464000Y-73533000D03*
%TD*%
D16*
%TO.C,J3*%
X123190000Y-98044000D03*
D13*
X123190000Y-93244000D03*
X123190000Y-88444000D03*
X123190000Y-83644000D03*
X123190000Y-78844000D03*
%TD*%
D17*
%TO.C,A1*%
X130810000Y-96520000D03*
X171450000Y-96520000D03*
X130810000Y-81280000D03*
X171450000Y-81280000D03*
D18*
X166370000Y-81280000D03*
X140970000Y-81280000D03*
X161290000Y-81280000D03*
X158750000Y-81280000D03*
X156210000Y-81280000D03*
X153670000Y-81280000D03*
X151130000Y-81280000D03*
X148590000Y-81280000D03*
X146050000Y-81280000D03*
X143510000Y-81280000D03*
X163830000Y-81280000D03*
X135890000Y-96520000D03*
X133350000Y-96520000D03*
X143510000Y-96520000D03*
X146050000Y-96520000D03*
X148590000Y-96520000D03*
X151130000Y-96520000D03*
X153670000Y-96520000D03*
X156210000Y-96520000D03*
X158750000Y-96520000D03*
X161290000Y-96520000D03*
X163830000Y-96520000D03*
X166370000Y-96520000D03*
X168910000Y-96520000D03*
X168910000Y-81280000D03*
D19*
X140969999Y-96519999D03*
X135889999Y-81279999D03*
D18*
X138430000Y-96520000D03*
X138430000Y-81280000D03*
X133350000Y-81280000D03*
%TD*%
D20*
%TO.C,J5*%
X134620000Y-102870000D03*
D21*
X140620000Y-102870000D03*
X146620000Y-102870000D03*
X152620000Y-102870000D03*
X158620000Y-102870000D03*
X164620000Y-102870000D03*
X170615976Y-102870000D03*
%TD*%
M02*
