%TF.GenerationSoftware,KiCad,Pcbnew,(7.0.0)*%
%TF.CreationDate,2023-03-08T01:22:31+01:00*%
%TF.ProjectId,booth fendi,626f6f74-6820-4666-956e-64692e6b6963,rev?*%
%TF.SameCoordinates,Original*%
%TF.FileFunction,Drillmap*%
%TF.FilePolarity,Positive*%
%FSLAX45Y45*%
G04 Gerber Fmt 4.5, Leading zero omitted, Abs format (unit mm)*
G04 Created by KiCad (PCBNEW (7.0.0)) date 2023-03-08 01:22:31*
%MOMM*%
%LPD*%
G01*
G04 APERTURE LIST*
%ADD10C,0.100000*%
%ADD11C,0.200000*%
%ADD12C,0.180000*%
G04 APERTURE END LIST*
D10*
X12374500Y-7112000D02*
G75*
G03*
X11874500Y-7612000I0J-500000D01*
G01*
X18542000Y-7612000D02*
X18542000Y-10168000D01*
X18542000Y-7612000D02*
G75*
G03*
X18042000Y-7112000I-500000J0D01*
G01*
X12374500Y-7112000D02*
X18042000Y-7112000D01*
X11874500Y-10168000D02*
G75*
G03*
X12374500Y-10668000I500000J0D01*
G01*
X18042000Y-10668000D02*
X12374500Y-10668000D01*
X18042000Y-10668000D02*
G75*
G03*
X18542000Y-10168000I0J500000D01*
G01*
X11874500Y-10168000D02*
X11874500Y-7612000D01*
D11*
D12*
X12991000Y-8038000D02*
X13171000Y-8218000D01*
X13171000Y-8038000D02*
X12991000Y-8218000D01*
X12991000Y-9562000D02*
X13171000Y-9742000D01*
X13171000Y-9562000D02*
X12991000Y-9742000D01*
X17055000Y-8038000D02*
X17235000Y-8218000D01*
X17235000Y-8038000D02*
X17055000Y-8218000D01*
X17055000Y-9562000D02*
X17235000Y-9742000D01*
X17235000Y-9562000D02*
X17055000Y-9742000D01*
D11*
X12117119Y-10966476D02*
X12117119Y-10766476D01*
X12117119Y-10766476D02*
X12164738Y-10766476D01*
X12164738Y-10766476D02*
X12193309Y-10776000D01*
X12193309Y-10776000D02*
X12212357Y-10795048D01*
X12212357Y-10795048D02*
X12221881Y-10814095D01*
X12221881Y-10814095D02*
X12231405Y-10852190D01*
X12231405Y-10852190D02*
X12231405Y-10880762D01*
X12231405Y-10880762D02*
X12221881Y-10918857D01*
X12221881Y-10918857D02*
X12212357Y-10937905D01*
X12212357Y-10937905D02*
X12193309Y-10956952D01*
X12193309Y-10956952D02*
X12164738Y-10966476D01*
X12164738Y-10966476D02*
X12117119Y-10966476D01*
X12317119Y-10966476D02*
X12317119Y-10833143D01*
X12317119Y-10871238D02*
X12326643Y-10852190D01*
X12326643Y-10852190D02*
X12336167Y-10842667D01*
X12336167Y-10842667D02*
X12355214Y-10833143D01*
X12355214Y-10833143D02*
X12374262Y-10833143D01*
X12440928Y-10966476D02*
X12440928Y-10833143D01*
X12440928Y-10766476D02*
X12431405Y-10776000D01*
X12431405Y-10776000D02*
X12440928Y-10785524D01*
X12440928Y-10785524D02*
X12450452Y-10776000D01*
X12450452Y-10776000D02*
X12440928Y-10766476D01*
X12440928Y-10766476D02*
X12440928Y-10785524D01*
X12564738Y-10966476D02*
X12545690Y-10956952D01*
X12545690Y-10956952D02*
X12536167Y-10937905D01*
X12536167Y-10937905D02*
X12536167Y-10766476D01*
X12669500Y-10966476D02*
X12650452Y-10956952D01*
X12650452Y-10956952D02*
X12640928Y-10937905D01*
X12640928Y-10937905D02*
X12640928Y-10766476D01*
X12865690Y-10966476D02*
X12865690Y-10766476D01*
X12865690Y-10766476D02*
X12932357Y-10909333D01*
X12932357Y-10909333D02*
X12999024Y-10766476D01*
X12999024Y-10766476D02*
X12999024Y-10966476D01*
X13179976Y-10966476D02*
X13179976Y-10861714D01*
X13179976Y-10861714D02*
X13170452Y-10842667D01*
X13170452Y-10842667D02*
X13151405Y-10833143D01*
X13151405Y-10833143D02*
X13113309Y-10833143D01*
X13113309Y-10833143D02*
X13094262Y-10842667D01*
X13179976Y-10956952D02*
X13160928Y-10966476D01*
X13160928Y-10966476D02*
X13113309Y-10966476D01*
X13113309Y-10966476D02*
X13094262Y-10956952D01*
X13094262Y-10956952D02*
X13084738Y-10937905D01*
X13084738Y-10937905D02*
X13084738Y-10918857D01*
X13084738Y-10918857D02*
X13094262Y-10899810D01*
X13094262Y-10899810D02*
X13113309Y-10890286D01*
X13113309Y-10890286D02*
X13160928Y-10890286D01*
X13160928Y-10890286D02*
X13179976Y-10880762D01*
X13275214Y-10833143D02*
X13275214Y-11033143D01*
X13275214Y-10842667D02*
X13294262Y-10833143D01*
X13294262Y-10833143D02*
X13332357Y-10833143D01*
X13332357Y-10833143D02*
X13351405Y-10842667D01*
X13351405Y-10842667D02*
X13360928Y-10852190D01*
X13360928Y-10852190D02*
X13370452Y-10871238D01*
X13370452Y-10871238D02*
X13370452Y-10928381D01*
X13370452Y-10928381D02*
X13360928Y-10947429D01*
X13360928Y-10947429D02*
X13351405Y-10956952D01*
X13351405Y-10956952D02*
X13332357Y-10966476D01*
X13332357Y-10966476D02*
X13294262Y-10966476D01*
X13294262Y-10966476D02*
X13275214Y-10956952D01*
X13456167Y-10947429D02*
X13465690Y-10956952D01*
X13465690Y-10956952D02*
X13456167Y-10966476D01*
X13456167Y-10966476D02*
X13446643Y-10956952D01*
X13446643Y-10956952D02*
X13456167Y-10947429D01*
X13456167Y-10947429D02*
X13456167Y-10966476D01*
X13456167Y-10842667D02*
X13465690Y-10852190D01*
X13465690Y-10852190D02*
X13456167Y-10861714D01*
X13456167Y-10861714D02*
X13446643Y-10852190D01*
X13446643Y-10852190D02*
X13456167Y-10842667D01*
X13456167Y-10842667D02*
X13456167Y-10861714D01*
D12*
X11689500Y-11223000D02*
X11869500Y-11403000D01*
X11869500Y-11223000D02*
X11689500Y-11403000D01*
D11*
X12221881Y-11386476D02*
X12107595Y-11386476D01*
X12164738Y-11386476D02*
X12164738Y-11186476D01*
X12164738Y-11186476D02*
X12145690Y-11215048D01*
X12145690Y-11215048D02*
X12126643Y-11234095D01*
X12126643Y-11234095D02*
X12107595Y-11243619D01*
X12307595Y-11367428D02*
X12317119Y-11376952D01*
X12317119Y-11376952D02*
X12307595Y-11386476D01*
X12307595Y-11386476D02*
X12298071Y-11376952D01*
X12298071Y-11376952D02*
X12307595Y-11367428D01*
X12307595Y-11367428D02*
X12307595Y-11386476D01*
X12431405Y-11272190D02*
X12412357Y-11262667D01*
X12412357Y-11262667D02*
X12402833Y-11253143D01*
X12402833Y-11253143D02*
X12393309Y-11234095D01*
X12393309Y-11234095D02*
X12393309Y-11224571D01*
X12393309Y-11224571D02*
X12402833Y-11205524D01*
X12402833Y-11205524D02*
X12412357Y-11196000D01*
X12412357Y-11196000D02*
X12431405Y-11186476D01*
X12431405Y-11186476D02*
X12469500Y-11186476D01*
X12469500Y-11186476D02*
X12488548Y-11196000D01*
X12488548Y-11196000D02*
X12498071Y-11205524D01*
X12498071Y-11205524D02*
X12507595Y-11224571D01*
X12507595Y-11224571D02*
X12507595Y-11234095D01*
X12507595Y-11234095D02*
X12498071Y-11253143D01*
X12498071Y-11253143D02*
X12488548Y-11262667D01*
X12488548Y-11262667D02*
X12469500Y-11272190D01*
X12469500Y-11272190D02*
X12431405Y-11272190D01*
X12431405Y-11272190D02*
X12412357Y-11281714D01*
X12412357Y-11281714D02*
X12402833Y-11291238D01*
X12402833Y-11291238D02*
X12393309Y-11310286D01*
X12393309Y-11310286D02*
X12393309Y-11348381D01*
X12393309Y-11348381D02*
X12402833Y-11367428D01*
X12402833Y-11367428D02*
X12412357Y-11376952D01*
X12412357Y-11376952D02*
X12431405Y-11386476D01*
X12431405Y-11386476D02*
X12469500Y-11386476D01*
X12469500Y-11386476D02*
X12488548Y-11376952D01*
X12488548Y-11376952D02*
X12498071Y-11367428D01*
X12498071Y-11367428D02*
X12507595Y-11348381D01*
X12507595Y-11348381D02*
X12507595Y-11310286D01*
X12507595Y-11310286D02*
X12498071Y-11291238D01*
X12498071Y-11291238D02*
X12488548Y-11281714D01*
X12488548Y-11281714D02*
X12469500Y-11272190D01*
X12631405Y-11186476D02*
X12650452Y-11186476D01*
X12650452Y-11186476D02*
X12669500Y-11196000D01*
X12669500Y-11196000D02*
X12679024Y-11205524D01*
X12679024Y-11205524D02*
X12688548Y-11224571D01*
X12688548Y-11224571D02*
X12698071Y-11262667D01*
X12698071Y-11262667D02*
X12698071Y-11310286D01*
X12698071Y-11310286D02*
X12688548Y-11348381D01*
X12688548Y-11348381D02*
X12679024Y-11367428D01*
X12679024Y-11367428D02*
X12669500Y-11376952D01*
X12669500Y-11376952D02*
X12650452Y-11386476D01*
X12650452Y-11386476D02*
X12631405Y-11386476D01*
X12631405Y-11386476D02*
X12612357Y-11376952D01*
X12612357Y-11376952D02*
X12602833Y-11367428D01*
X12602833Y-11367428D02*
X12593309Y-11348381D01*
X12593309Y-11348381D02*
X12583786Y-11310286D01*
X12583786Y-11310286D02*
X12583786Y-11262667D01*
X12583786Y-11262667D02*
X12593309Y-11224571D01*
X12593309Y-11224571D02*
X12602833Y-11205524D01*
X12602833Y-11205524D02*
X12612357Y-11196000D01*
X12612357Y-11196000D02*
X12631405Y-11186476D01*
X12821881Y-11186476D02*
X12840929Y-11186476D01*
X12840929Y-11186476D02*
X12859976Y-11196000D01*
X12859976Y-11196000D02*
X12869500Y-11205524D01*
X12869500Y-11205524D02*
X12879024Y-11224571D01*
X12879024Y-11224571D02*
X12888548Y-11262667D01*
X12888548Y-11262667D02*
X12888548Y-11310286D01*
X12888548Y-11310286D02*
X12879024Y-11348381D01*
X12879024Y-11348381D02*
X12869500Y-11367428D01*
X12869500Y-11367428D02*
X12859976Y-11376952D01*
X12859976Y-11376952D02*
X12840929Y-11386476D01*
X12840929Y-11386476D02*
X12821881Y-11386476D01*
X12821881Y-11386476D02*
X12802833Y-11376952D01*
X12802833Y-11376952D02*
X12793309Y-11367428D01*
X12793309Y-11367428D02*
X12783786Y-11348381D01*
X12783786Y-11348381D02*
X12774262Y-11310286D01*
X12774262Y-11310286D02*
X12774262Y-11262667D01*
X12774262Y-11262667D02*
X12783786Y-11224571D01*
X12783786Y-11224571D02*
X12793309Y-11205524D01*
X12793309Y-11205524D02*
X12802833Y-11196000D01*
X12802833Y-11196000D02*
X12821881Y-11186476D01*
X12974262Y-11386476D02*
X12974262Y-11253143D01*
X12974262Y-11272190D02*
X12983786Y-11262667D01*
X12983786Y-11262667D02*
X13002833Y-11253143D01*
X13002833Y-11253143D02*
X13031405Y-11253143D01*
X13031405Y-11253143D02*
X13050452Y-11262667D01*
X13050452Y-11262667D02*
X13059976Y-11281714D01*
X13059976Y-11281714D02*
X13059976Y-11386476D01*
X13059976Y-11281714D02*
X13069500Y-11262667D01*
X13069500Y-11262667D02*
X13088548Y-11253143D01*
X13088548Y-11253143D02*
X13117119Y-11253143D01*
X13117119Y-11253143D02*
X13136167Y-11262667D01*
X13136167Y-11262667D02*
X13145690Y-11281714D01*
X13145690Y-11281714D02*
X13145690Y-11386476D01*
X13240929Y-11386476D02*
X13240929Y-11253143D01*
X13240929Y-11272190D02*
X13250452Y-11262667D01*
X13250452Y-11262667D02*
X13269500Y-11253143D01*
X13269500Y-11253143D02*
X13298071Y-11253143D01*
X13298071Y-11253143D02*
X13317119Y-11262667D01*
X13317119Y-11262667D02*
X13326643Y-11281714D01*
X13326643Y-11281714D02*
X13326643Y-11386476D01*
X13326643Y-11281714D02*
X13336167Y-11262667D01*
X13336167Y-11262667D02*
X13355214Y-11253143D01*
X13355214Y-11253143D02*
X13383786Y-11253143D01*
X13383786Y-11253143D02*
X13402833Y-11262667D01*
X13402833Y-11262667D02*
X13412357Y-11281714D01*
X13412357Y-11281714D02*
X13412357Y-11386476D01*
X13770452Y-11176952D02*
X13599024Y-11434095D01*
X13995214Y-11186476D02*
X14014262Y-11186476D01*
X14014262Y-11186476D02*
X14033310Y-11196000D01*
X14033310Y-11196000D02*
X14042833Y-11205524D01*
X14042833Y-11205524D02*
X14052357Y-11224571D01*
X14052357Y-11224571D02*
X14061881Y-11262667D01*
X14061881Y-11262667D02*
X14061881Y-11310286D01*
X14061881Y-11310286D02*
X14052357Y-11348381D01*
X14052357Y-11348381D02*
X14042833Y-11367428D01*
X14042833Y-11367428D02*
X14033310Y-11376952D01*
X14033310Y-11376952D02*
X14014262Y-11386476D01*
X14014262Y-11386476D02*
X13995214Y-11386476D01*
X13995214Y-11386476D02*
X13976167Y-11376952D01*
X13976167Y-11376952D02*
X13966643Y-11367428D01*
X13966643Y-11367428D02*
X13957119Y-11348381D01*
X13957119Y-11348381D02*
X13947595Y-11310286D01*
X13947595Y-11310286D02*
X13947595Y-11262667D01*
X13947595Y-11262667D02*
X13957119Y-11224571D01*
X13957119Y-11224571D02*
X13966643Y-11205524D01*
X13966643Y-11205524D02*
X13976167Y-11196000D01*
X13976167Y-11196000D02*
X13995214Y-11186476D01*
X14147595Y-11367428D02*
X14157119Y-11376952D01*
X14157119Y-11376952D02*
X14147595Y-11386476D01*
X14147595Y-11386476D02*
X14138071Y-11376952D01*
X14138071Y-11376952D02*
X14147595Y-11367428D01*
X14147595Y-11367428D02*
X14147595Y-11386476D01*
X14280929Y-11186476D02*
X14299976Y-11186476D01*
X14299976Y-11186476D02*
X14319024Y-11196000D01*
X14319024Y-11196000D02*
X14328548Y-11205524D01*
X14328548Y-11205524D02*
X14338071Y-11224571D01*
X14338071Y-11224571D02*
X14347595Y-11262667D01*
X14347595Y-11262667D02*
X14347595Y-11310286D01*
X14347595Y-11310286D02*
X14338071Y-11348381D01*
X14338071Y-11348381D02*
X14328548Y-11367428D01*
X14328548Y-11367428D02*
X14319024Y-11376952D01*
X14319024Y-11376952D02*
X14299976Y-11386476D01*
X14299976Y-11386476D02*
X14280929Y-11386476D01*
X14280929Y-11386476D02*
X14261881Y-11376952D01*
X14261881Y-11376952D02*
X14252357Y-11367428D01*
X14252357Y-11367428D02*
X14242833Y-11348381D01*
X14242833Y-11348381D02*
X14233310Y-11310286D01*
X14233310Y-11310286D02*
X14233310Y-11262667D01*
X14233310Y-11262667D02*
X14242833Y-11224571D01*
X14242833Y-11224571D02*
X14252357Y-11205524D01*
X14252357Y-11205524D02*
X14261881Y-11196000D01*
X14261881Y-11196000D02*
X14280929Y-11186476D01*
X14414262Y-11186476D02*
X14547595Y-11186476D01*
X14547595Y-11186476D02*
X14461881Y-11386476D01*
X14661881Y-11186476D02*
X14680929Y-11186476D01*
X14680929Y-11186476D02*
X14699976Y-11196000D01*
X14699976Y-11196000D02*
X14709500Y-11205524D01*
X14709500Y-11205524D02*
X14719024Y-11224571D01*
X14719024Y-11224571D02*
X14728548Y-11262667D01*
X14728548Y-11262667D02*
X14728548Y-11310286D01*
X14728548Y-11310286D02*
X14719024Y-11348381D01*
X14719024Y-11348381D02*
X14709500Y-11367428D01*
X14709500Y-11367428D02*
X14699976Y-11376952D01*
X14699976Y-11376952D02*
X14680929Y-11386476D01*
X14680929Y-11386476D02*
X14661881Y-11386476D01*
X14661881Y-11386476D02*
X14642833Y-11376952D01*
X14642833Y-11376952D02*
X14633310Y-11367428D01*
X14633310Y-11367428D02*
X14623786Y-11348381D01*
X14623786Y-11348381D02*
X14614262Y-11310286D01*
X14614262Y-11310286D02*
X14614262Y-11262667D01*
X14614262Y-11262667D02*
X14623786Y-11224571D01*
X14623786Y-11224571D02*
X14633310Y-11205524D01*
X14633310Y-11205524D02*
X14642833Y-11196000D01*
X14642833Y-11196000D02*
X14661881Y-11186476D01*
X14823786Y-11386476D02*
X14861881Y-11386476D01*
X14861881Y-11386476D02*
X14880929Y-11376952D01*
X14880929Y-11376952D02*
X14890452Y-11367428D01*
X14890452Y-11367428D02*
X14909500Y-11338857D01*
X14909500Y-11338857D02*
X14919024Y-11300762D01*
X14919024Y-11300762D02*
X14919024Y-11224571D01*
X14919024Y-11224571D02*
X14909500Y-11205524D01*
X14909500Y-11205524D02*
X14899976Y-11196000D01*
X14899976Y-11196000D02*
X14880929Y-11186476D01*
X14880929Y-11186476D02*
X14842833Y-11186476D01*
X14842833Y-11186476D02*
X14823786Y-11196000D01*
X14823786Y-11196000D02*
X14814262Y-11205524D01*
X14814262Y-11205524D02*
X14804738Y-11224571D01*
X14804738Y-11224571D02*
X14804738Y-11272190D01*
X14804738Y-11272190D02*
X14814262Y-11291238D01*
X14814262Y-11291238D02*
X14823786Y-11300762D01*
X14823786Y-11300762D02*
X14842833Y-11310286D01*
X14842833Y-11310286D02*
X14880929Y-11310286D01*
X14880929Y-11310286D02*
X14899976Y-11300762D01*
X14899976Y-11300762D02*
X14909500Y-11291238D01*
X14909500Y-11291238D02*
X14919024Y-11272190D01*
X14995214Y-11186476D02*
X14995214Y-11224571D01*
X15071405Y-11186476D02*
X15071405Y-11224571D01*
X15334262Y-11462667D02*
X15324738Y-11453143D01*
X15324738Y-11453143D02*
X15305691Y-11424571D01*
X15305691Y-11424571D02*
X15296167Y-11405524D01*
X15296167Y-11405524D02*
X15286643Y-11376952D01*
X15286643Y-11376952D02*
X15277119Y-11329333D01*
X15277119Y-11329333D02*
X15277119Y-11291238D01*
X15277119Y-11291238D02*
X15286643Y-11243619D01*
X15286643Y-11243619D02*
X15296167Y-11215048D01*
X15296167Y-11215048D02*
X15305691Y-11196000D01*
X15305691Y-11196000D02*
X15324738Y-11167429D01*
X15324738Y-11167429D02*
X15334262Y-11157905D01*
X15496167Y-11253143D02*
X15496167Y-11386476D01*
X15448548Y-11176952D02*
X15400929Y-11319809D01*
X15400929Y-11319809D02*
X15524738Y-11319809D01*
X15720929Y-11386476D02*
X15720929Y-11186476D01*
X15806643Y-11386476D02*
X15806643Y-11281714D01*
X15806643Y-11281714D02*
X15797119Y-11262667D01*
X15797119Y-11262667D02*
X15778072Y-11253143D01*
X15778072Y-11253143D02*
X15749500Y-11253143D01*
X15749500Y-11253143D02*
X15730452Y-11262667D01*
X15730452Y-11262667D02*
X15720929Y-11272190D01*
X15930452Y-11386476D02*
X15911405Y-11376952D01*
X15911405Y-11376952D02*
X15901881Y-11367428D01*
X15901881Y-11367428D02*
X15892357Y-11348381D01*
X15892357Y-11348381D02*
X15892357Y-11291238D01*
X15892357Y-11291238D02*
X15901881Y-11272190D01*
X15901881Y-11272190D02*
X15911405Y-11262667D01*
X15911405Y-11262667D02*
X15930452Y-11253143D01*
X15930452Y-11253143D02*
X15959024Y-11253143D01*
X15959024Y-11253143D02*
X15978072Y-11262667D01*
X15978072Y-11262667D02*
X15987595Y-11272190D01*
X15987595Y-11272190D02*
X15997119Y-11291238D01*
X15997119Y-11291238D02*
X15997119Y-11348381D01*
X15997119Y-11348381D02*
X15987595Y-11367428D01*
X15987595Y-11367428D02*
X15978072Y-11376952D01*
X15978072Y-11376952D02*
X15959024Y-11386476D01*
X15959024Y-11386476D02*
X15930452Y-11386476D01*
X16111405Y-11386476D02*
X16092357Y-11376952D01*
X16092357Y-11376952D02*
X16082833Y-11357905D01*
X16082833Y-11357905D02*
X16082833Y-11186476D01*
X16263786Y-11376952D02*
X16244738Y-11386476D01*
X16244738Y-11386476D02*
X16206643Y-11386476D01*
X16206643Y-11386476D02*
X16187595Y-11376952D01*
X16187595Y-11376952D02*
X16178072Y-11357905D01*
X16178072Y-11357905D02*
X16178072Y-11281714D01*
X16178072Y-11281714D02*
X16187595Y-11262667D01*
X16187595Y-11262667D02*
X16206643Y-11253143D01*
X16206643Y-11253143D02*
X16244738Y-11253143D01*
X16244738Y-11253143D02*
X16263786Y-11262667D01*
X16263786Y-11262667D02*
X16273310Y-11281714D01*
X16273310Y-11281714D02*
X16273310Y-11300762D01*
X16273310Y-11300762D02*
X16178072Y-11319809D01*
X16349500Y-11376952D02*
X16368548Y-11386476D01*
X16368548Y-11386476D02*
X16406643Y-11386476D01*
X16406643Y-11386476D02*
X16425691Y-11376952D01*
X16425691Y-11376952D02*
X16435214Y-11357905D01*
X16435214Y-11357905D02*
X16435214Y-11348381D01*
X16435214Y-11348381D02*
X16425691Y-11329333D01*
X16425691Y-11329333D02*
X16406643Y-11319809D01*
X16406643Y-11319809D02*
X16378072Y-11319809D01*
X16378072Y-11319809D02*
X16359024Y-11310286D01*
X16359024Y-11310286D02*
X16349500Y-11291238D01*
X16349500Y-11291238D02*
X16349500Y-11281714D01*
X16349500Y-11281714D02*
X16359024Y-11262667D01*
X16359024Y-11262667D02*
X16378072Y-11253143D01*
X16378072Y-11253143D02*
X16406643Y-11253143D01*
X16406643Y-11253143D02*
X16425691Y-11262667D01*
X16501881Y-11462667D02*
X16511405Y-11453143D01*
X16511405Y-11453143D02*
X16530453Y-11424571D01*
X16530453Y-11424571D02*
X16539976Y-11405524D01*
X16539976Y-11405524D02*
X16549500Y-11376952D01*
X16549500Y-11376952D02*
X16559024Y-11329333D01*
X16559024Y-11329333D02*
X16559024Y-11291238D01*
X16559024Y-11291238D02*
X16549500Y-11243619D01*
X16549500Y-11243619D02*
X16539976Y-11215048D01*
X16539976Y-11215048D02*
X16530453Y-11196000D01*
X16530453Y-11196000D02*
X16511405Y-11167429D01*
X16511405Y-11167429D02*
X16501881Y-11157905D01*
X16831405Y-11462667D02*
X16821881Y-11453143D01*
X16821881Y-11453143D02*
X16802834Y-11424571D01*
X16802834Y-11424571D02*
X16793310Y-11405524D01*
X16793310Y-11405524D02*
X16783786Y-11376952D01*
X16783786Y-11376952D02*
X16774262Y-11329333D01*
X16774262Y-11329333D02*
X16774262Y-11291238D01*
X16774262Y-11291238D02*
X16783786Y-11243619D01*
X16783786Y-11243619D02*
X16793310Y-11215048D01*
X16793310Y-11215048D02*
X16802834Y-11196000D01*
X16802834Y-11196000D02*
X16821881Y-11167429D01*
X16821881Y-11167429D02*
X16831405Y-11157905D01*
X16907595Y-11253143D02*
X16907595Y-11386476D01*
X16907595Y-11272190D02*
X16917119Y-11262667D01*
X16917119Y-11262667D02*
X16936167Y-11253143D01*
X16936167Y-11253143D02*
X16964738Y-11253143D01*
X16964738Y-11253143D02*
X16983786Y-11262667D01*
X16983786Y-11262667D02*
X16993310Y-11281714D01*
X16993310Y-11281714D02*
X16993310Y-11386476D01*
X17117119Y-11386476D02*
X17098072Y-11376952D01*
X17098072Y-11376952D02*
X17088548Y-11367428D01*
X17088548Y-11367428D02*
X17079024Y-11348381D01*
X17079024Y-11348381D02*
X17079024Y-11291238D01*
X17079024Y-11291238D02*
X17088548Y-11272190D01*
X17088548Y-11272190D02*
X17098072Y-11262667D01*
X17098072Y-11262667D02*
X17117119Y-11253143D01*
X17117119Y-11253143D02*
X17145691Y-11253143D01*
X17145691Y-11253143D02*
X17164738Y-11262667D01*
X17164738Y-11262667D02*
X17174262Y-11272190D01*
X17174262Y-11272190D02*
X17183786Y-11291238D01*
X17183786Y-11291238D02*
X17183786Y-11348381D01*
X17183786Y-11348381D02*
X17174262Y-11367428D01*
X17174262Y-11367428D02*
X17164738Y-11376952D01*
X17164738Y-11376952D02*
X17145691Y-11386476D01*
X17145691Y-11386476D02*
X17117119Y-11386476D01*
X17240929Y-11253143D02*
X17317119Y-11253143D01*
X17269500Y-11186476D02*
X17269500Y-11357905D01*
X17269500Y-11357905D02*
X17279024Y-11376952D01*
X17279024Y-11376952D02*
X17298072Y-11386476D01*
X17298072Y-11386476D02*
X17317119Y-11386476D01*
X17503786Y-11253143D02*
X17503786Y-11453143D01*
X17503786Y-11262667D02*
X17522834Y-11253143D01*
X17522834Y-11253143D02*
X17560929Y-11253143D01*
X17560929Y-11253143D02*
X17579976Y-11262667D01*
X17579976Y-11262667D02*
X17589500Y-11272190D01*
X17589500Y-11272190D02*
X17599024Y-11291238D01*
X17599024Y-11291238D02*
X17599024Y-11348381D01*
X17599024Y-11348381D02*
X17589500Y-11367428D01*
X17589500Y-11367428D02*
X17579976Y-11376952D01*
X17579976Y-11376952D02*
X17560929Y-11386476D01*
X17560929Y-11386476D02*
X17522834Y-11386476D01*
X17522834Y-11386476D02*
X17503786Y-11376952D01*
X17713310Y-11386476D02*
X17694262Y-11376952D01*
X17694262Y-11376952D02*
X17684738Y-11357905D01*
X17684738Y-11357905D02*
X17684738Y-11186476D01*
X17875215Y-11386476D02*
X17875215Y-11281714D01*
X17875215Y-11281714D02*
X17865691Y-11262667D01*
X17865691Y-11262667D02*
X17846643Y-11253143D01*
X17846643Y-11253143D02*
X17808548Y-11253143D01*
X17808548Y-11253143D02*
X17789500Y-11262667D01*
X17875215Y-11376952D02*
X17856167Y-11386476D01*
X17856167Y-11386476D02*
X17808548Y-11386476D01*
X17808548Y-11386476D02*
X17789500Y-11376952D01*
X17789500Y-11376952D02*
X17779976Y-11357905D01*
X17779976Y-11357905D02*
X17779976Y-11338857D01*
X17779976Y-11338857D02*
X17789500Y-11319809D01*
X17789500Y-11319809D02*
X17808548Y-11310286D01*
X17808548Y-11310286D02*
X17856167Y-11310286D01*
X17856167Y-11310286D02*
X17875215Y-11300762D01*
X17941881Y-11253143D02*
X18018072Y-11253143D01*
X17970453Y-11186476D02*
X17970453Y-11357905D01*
X17970453Y-11357905D02*
X17979976Y-11376952D01*
X17979976Y-11376952D02*
X17999024Y-11386476D01*
X17999024Y-11386476D02*
X18018072Y-11386476D01*
X18160929Y-11376952D02*
X18141881Y-11386476D01*
X18141881Y-11386476D02*
X18103786Y-11386476D01*
X18103786Y-11386476D02*
X18084738Y-11376952D01*
X18084738Y-11376952D02*
X18075215Y-11357905D01*
X18075215Y-11357905D02*
X18075215Y-11281714D01*
X18075215Y-11281714D02*
X18084738Y-11262667D01*
X18084738Y-11262667D02*
X18103786Y-11253143D01*
X18103786Y-11253143D02*
X18141881Y-11253143D01*
X18141881Y-11253143D02*
X18160929Y-11262667D01*
X18160929Y-11262667D02*
X18170453Y-11281714D01*
X18170453Y-11281714D02*
X18170453Y-11300762D01*
X18170453Y-11300762D02*
X18075215Y-11319809D01*
X18341881Y-11386476D02*
X18341881Y-11186476D01*
X18341881Y-11376952D02*
X18322834Y-11386476D01*
X18322834Y-11386476D02*
X18284738Y-11386476D01*
X18284738Y-11386476D02*
X18265691Y-11376952D01*
X18265691Y-11376952D02*
X18256167Y-11367428D01*
X18256167Y-11367428D02*
X18246643Y-11348381D01*
X18246643Y-11348381D02*
X18246643Y-11291238D01*
X18246643Y-11291238D02*
X18256167Y-11272190D01*
X18256167Y-11272190D02*
X18265691Y-11262667D01*
X18265691Y-11262667D02*
X18284738Y-11253143D01*
X18284738Y-11253143D02*
X18322834Y-11253143D01*
X18322834Y-11253143D02*
X18341881Y-11262667D01*
X18418072Y-11462667D02*
X18427596Y-11453143D01*
X18427596Y-11453143D02*
X18446643Y-11424571D01*
X18446643Y-11424571D02*
X18456167Y-11405524D01*
X18456167Y-11405524D02*
X18465691Y-11376952D01*
X18465691Y-11376952D02*
X18475215Y-11329333D01*
X18475215Y-11329333D02*
X18475215Y-11291238D01*
X18475215Y-11291238D02*
X18465691Y-11243619D01*
X18465691Y-11243619D02*
X18456167Y-11215048D01*
X18456167Y-11215048D02*
X18446643Y-11196000D01*
X18446643Y-11196000D02*
X18427596Y-11167429D01*
X18427596Y-11167429D02*
X18418072Y-11157905D01*
M02*
