M48
; DRILL file {KiCad (7.0.0)} date Mon Mar  6 13:00:38 2023
; FORMAT={-:-/ absolute / inch / decimal}
; #@! TF.CreationDate,2023-03-06T13:00:38+01:00
; #@! TF.GenerationSoftware,Kicad,Pcbnew,(7.0.0)
; #@! TF.FileFunction,Plated,1,2,PTH
FMAT,2
INCH
; #@! TA.AperFunction,Plated,PTH,ViaDrill
T1C0.0150
; #@! TA.AperFunction,Plated,PTH,ComponentDrill
T2C0.0400
; #@! TA.AperFunction,Plated,PTH,ComponentDrill
T3C0.0610
; #@! TA.AperFunction,Plated,PTH,ComponentDrill
T4C0.0827
%
G90
G05
T1
X5.8Y-3.6
X6.6Y-3.4
T2
X5.25Y-3.2
X5.25Y-3.8
X5.35Y-3.2
X5.35Y-3.8
X5.45Y-3.2
X5.45Y-3.8
X5.55Y-3.2
X5.55Y-3.8
X5.65Y-3.2
X5.65Y-3.8
X5.75Y-3.2
X5.75Y-3.8
X5.85Y-3.2
X5.85Y-3.8
X5.95Y-3.2
X5.95Y-3.8
X6.05Y-3.2
X6.05Y-3.8
X6.15Y-3.2
X6.15Y-3.8
X6.25Y-3.2
X6.25Y-3.8
X6.35Y-3.2
X6.35Y-3.8
X6.45Y-3.2
X6.45Y-3.8
X6.55Y-3.2
X6.55Y-3.8
X6.65Y-3.2
X6.65Y-3.8
T3
X4.8Y-3.0941
X4.8Y-3.2831
X4.8Y-3.472
X4.8Y-3.661
X4.8Y-3.85
X5.2Y-2.85
X5.389Y-2.85
X5.578Y-2.85
X5.847Y-2.85
X6.036Y-2.85
X6.225Y-2.85
X6.572Y-2.85
X6.761Y-2.85
X6.95Y-2.85
X7.15Y-3.0941
X7.15Y-3.2831
X7.15Y-3.472
X7.15Y-3.661
X7.15Y-3.85
T4
X5.2414Y-4.175
X5.4776Y-4.175
X5.7139Y-4.175
X5.9501Y-4.175
X6.1863Y-4.175
X6.4225Y-4.175
X6.6586Y-4.175
T0
M30
