M48
; DRILL file {KiCad (7.0.0)} date Wed Mar  8 14:36:54 2023
; FORMAT={-:-/ absolute / metric / decimal}
; #@! TF.CreationDate,2023-03-08T14:36:54+01:00
; #@! TF.GenerationSoftware,Kicad,Pcbnew,(7.0.0)
; #@! TF.FileFunction,Plated,1,2,PTH
FMAT,2
METRIC
; #@! TA.AperFunction,Plated,PTH,ViaDrill
T1C0.381
; #@! TA.AperFunction,Plated,PTH,ComponentDrill
T2C1.016
; #@! TA.AperFunction,Plated,PTH,ComponentDrill
T3C1.550
; #@! TA.AperFunction,Plated,PTH,ComponentDrill
T4C2.100
%
G90
G05
T1
X127.508Y-90.297
X144.78Y-84.963
X155.067Y-83.439
T2
X133.35Y-81.28
X133.35Y-96.52
X135.89Y-81.28
X135.89Y-96.52
X138.43Y-81.28
X138.43Y-96.52
X140.97Y-81.28
X140.97Y-96.52
X143.51Y-81.28
X143.51Y-96.52
X146.05Y-81.28
X146.05Y-96.52
X148.59Y-81.28
X148.59Y-96.52
X151.13Y-81.28
X151.13Y-96.52
X153.67Y-81.28
X153.67Y-96.52
X156.21Y-81.28
X156.21Y-96.52
X158.75Y-81.28
X158.75Y-96.52
X161.29Y-81.28
X161.29Y-96.52
X163.83Y-81.28
X163.83Y-96.52
X166.37Y-81.28
X166.37Y-96.52
X168.91Y-81.28
X168.91Y-96.52
T3
X123.19Y-78.844
X123.19Y-83.644
X123.19Y-88.444
X123.19Y-93.244
X123.19Y-98.044
X129.719Y-73.533
X134.519Y-73.533
X139.319Y-73.533
X146.864Y-73.533
X151.664Y-73.533
X156.464Y-73.533
X163.12Y-73.66
X167.92Y-73.66
X172.72Y-73.66
X181.61Y-78.59
X181.61Y-83.39
X181.61Y-88.19
X181.61Y-92.99
X181.61Y-97.79
T4
X134.62Y-102.87
X140.62Y-102.87
X146.62Y-102.87
X152.62Y-102.87
X158.62Y-102.87
X164.62Y-102.87
X170.616Y-102.87
T0
M30
