%TF.GenerationSoftware,KiCad,Pcbnew,(7.0.0)*%
%TF.CreationDate,2023-03-08T01:22:02+01:00*%
%TF.ProjectId,booth fendi,626f6f74-6820-4666-956e-64692e6b6963,rev?*%
%TF.SameCoordinates,Original*%
%TF.FileFunction,Legend,Top*%
%TF.FilePolarity,Positive*%
%FSLAX46Y46*%
G04 Gerber Fmt 4.6, Leading zero omitted, Abs format (unit mm)*
G04 Created by KiCad (PCBNEW (7.0.0)) date 2023-03-08 01:22:02*
%MOMM*%
%LPD*%
G01*
G04 APERTURE LIST*
G04 Aperture macros list*
%AMRoundRect*
0 Rectangle with rounded corners*
0 $1 Rounding radius*
0 $2 $3 $4 $5 $6 $7 $8 $9 X,Y pos of 4 corners*
0 Add a 4 corners polygon primitive as box body*
4,1,4,$2,$3,$4,$5,$6,$7,$8,$9,$2,$3,0*
0 Add four circle primitives for the rounded corners*
1,1,$1+$1,$2,$3*
1,1,$1+$1,$4,$5*
1,1,$1+$1,$6,$7*
1,1,$1+$1,$8,$9*
0 Add four rect primitives between the rounded corners*
20,1,$1+$1,$2,$3,$4,$5,0*
20,1,$1+$1,$4,$5,$6,$7,0*
20,1,$1+$1,$6,$7,$8,$9,0*
20,1,$1+$1,$8,$9,$2,$3,0*%
G04 Aperture macros list end*
%ADD10C,0.150000*%
%ADD11C,0.299720*%
%ADD12RoundRect,0.249999X-1.025001X1.025001X-1.025001X-1.025001X1.025001X-1.025001X1.025001X1.025001X0*%
%ADD13C,2.550000*%
%ADD14RoundRect,0.249999X1.025001X1.025001X-1.025001X1.025001X-1.025001X-1.025001X1.025001X-1.025001X0*%
%ADD15RoundRect,0.249999X-1.025001X-1.025001X1.025001X-1.025001X1.025001X1.025001X-1.025001X1.025001X0*%
%ADD16RoundRect,0.249999X1.025001X-1.025001X1.025001X1.025001X-1.025001X1.025001X-1.025001X-1.025001X0*%
%ADD17C,1.800000*%
%ADD18C,1.727200*%
%ADD19R,1.727200X1.727200*%
%ADD20RoundRect,0.249999X-1.300001X-1.300001X1.300001X-1.300001X1.300001X1.300001X-1.300001X1.300001X0*%
%ADD21C,3.100000*%
G04 APERTURE END LIST*
D10*
X123285238Y-102922380D02*
X123618571Y-103922380D01*
X123618571Y-103922380D02*
X123951904Y-102922380D01*
X124809047Y-103922380D02*
X124237619Y-103922380D01*
X124523333Y-103922380D02*
X124523333Y-102922380D01*
X124523333Y-102922380D02*
X124428095Y-103065238D01*
X124428095Y-103065238D02*
X124332857Y-103160476D01*
X124332857Y-103160476D02*
X124237619Y-103208095D01*
X125237619Y-103827142D02*
X125285238Y-103874761D01*
X125285238Y-103874761D02*
X125237619Y-103922380D01*
X125237619Y-103922380D02*
X125190000Y-103874761D01*
X125190000Y-103874761D02*
X125237619Y-103827142D01*
X125237619Y-103827142D02*
X125237619Y-103922380D01*
X126237618Y-103922380D02*
X125666190Y-103922380D01*
X125951904Y-103922380D02*
X125951904Y-102922380D01*
X125951904Y-102922380D02*
X125856666Y-103065238D01*
X125856666Y-103065238D02*
X125761428Y-103160476D01*
X125761428Y-103160476D02*
X125666190Y-103208095D01*
D11*
X175333371Y-102280935D02*
X175261561Y-102209125D01*
X175261561Y-102209125D02*
X175117942Y-102137316D01*
X175117942Y-102137316D02*
X174974323Y-102137316D01*
X174974323Y-102137316D02*
X174830704Y-102209125D01*
X174830704Y-102209125D02*
X174758895Y-102280935D01*
X174758895Y-102280935D02*
X174687085Y-102424554D01*
X174687085Y-102424554D02*
X174687085Y-102568173D01*
X174687085Y-102568173D02*
X174758895Y-102711792D01*
X174758895Y-102711792D02*
X174830704Y-102783601D01*
X174830704Y-102783601D02*
X174974323Y-102855411D01*
X174974323Y-102855411D02*
X175117942Y-102855411D01*
X175117942Y-102855411D02*
X175261561Y-102783601D01*
X175261561Y-102783601D02*
X175333371Y-102711792D01*
X175333371Y-102137316D02*
X175333371Y-102711792D01*
X175333371Y-102711792D02*
X175405180Y-102783601D01*
X175405180Y-102783601D02*
X175476990Y-102783601D01*
X175476990Y-102783601D02*
X175620609Y-102711792D01*
X175620609Y-102711792D02*
X175692419Y-102568173D01*
X175692419Y-102568173D02*
X175692419Y-102209125D01*
X175692419Y-102209125D02*
X175548800Y-101993697D01*
X175548800Y-101993697D02*
X175333371Y-101850078D01*
X175333371Y-101850078D02*
X175046133Y-101778268D01*
X175046133Y-101778268D02*
X174758895Y-101850078D01*
X174758895Y-101850078D02*
X174543466Y-101993697D01*
X174543466Y-101993697D02*
X174399847Y-102209125D01*
X174399847Y-102209125D02*
X174328038Y-102496363D01*
X174328038Y-102496363D02*
X174399847Y-102783601D01*
X174399847Y-102783601D02*
X174543466Y-102999030D01*
X174543466Y-102999030D02*
X174758895Y-103142649D01*
X174758895Y-103142649D02*
X175046133Y-103214459D01*
X175046133Y-103214459D02*
X175333371Y-103142649D01*
X175333371Y-103142649D02*
X175548800Y-102999030D01*
X176554133Y-102999030D02*
X176410514Y-102927220D01*
X176410514Y-102927220D02*
X176338704Y-102783601D01*
X176338704Y-102783601D02*
X176338704Y-101491030D01*
X177774895Y-101993697D02*
X177774895Y-102999030D01*
X177128609Y-101993697D02*
X177128609Y-102783601D01*
X177128609Y-102783601D02*
X177200419Y-102927220D01*
X177200419Y-102927220D02*
X177344038Y-102999030D01*
X177344038Y-102999030D02*
X177559466Y-102999030D01*
X177559466Y-102999030D02*
X177703085Y-102927220D01*
X177703085Y-102927220D02*
X177774895Y-102855411D01*
X178349371Y-101993697D02*
X179139276Y-101993697D01*
X179139276Y-101993697D02*
X178349371Y-102999030D01*
X178349371Y-102999030D02*
X179139276Y-102999030D01*
X179713752Y-102999030D02*
X179713752Y-101993697D01*
X179713752Y-101491030D02*
X179641943Y-101562840D01*
X179641943Y-101562840D02*
X179713752Y-101634649D01*
X179713752Y-101634649D02*
X179785562Y-101562840D01*
X179785562Y-101562840D02*
X179713752Y-101491030D01*
X179713752Y-101491030D02*
X179713752Y-101634649D01*
X181078133Y-102999030D02*
X181078133Y-102209125D01*
X181078133Y-102209125D02*
X181006323Y-102065506D01*
X181006323Y-102065506D02*
X180862704Y-101993697D01*
X180862704Y-101993697D02*
X180575466Y-101993697D01*
X180575466Y-101993697D02*
X180431847Y-102065506D01*
X181078133Y-102927220D02*
X180934514Y-102999030D01*
X180934514Y-102999030D02*
X180575466Y-102999030D01*
X180575466Y-102999030D02*
X180431847Y-102927220D01*
X180431847Y-102927220D02*
X180360038Y-102783601D01*
X180360038Y-102783601D02*
X180360038Y-102639982D01*
X180360038Y-102639982D02*
X180431847Y-102496363D01*
X180431847Y-102496363D02*
X180575466Y-102424554D01*
X180575466Y-102424554D02*
X180934514Y-102424554D01*
X180934514Y-102424554D02*
X181078133Y-102352744D01*
X181580800Y-101993697D02*
X182155276Y-101993697D01*
X181796228Y-101491030D02*
X181796228Y-102783601D01*
X181796228Y-102783601D02*
X181868038Y-102927220D01*
X181868038Y-102927220D02*
X182011657Y-102999030D01*
X182011657Y-102999030D02*
X182155276Y-102999030D01*
X182873371Y-102999030D02*
X182729752Y-102927220D01*
X182729752Y-102927220D02*
X182657942Y-102855411D01*
X182657942Y-102855411D02*
X182586133Y-102711792D01*
X182586133Y-102711792D02*
X182586133Y-102280935D01*
X182586133Y-102280935D02*
X182657942Y-102137316D01*
X182657942Y-102137316D02*
X182729752Y-102065506D01*
X182729752Y-102065506D02*
X182873371Y-101993697D01*
X182873371Y-101993697D02*
X183088799Y-101993697D01*
X183088799Y-101993697D02*
X183232418Y-102065506D01*
X183232418Y-102065506D02*
X183304228Y-102137316D01*
X183304228Y-102137316D02*
X183376037Y-102280935D01*
X183376037Y-102280935D02*
X183376037Y-102711792D01*
X183376037Y-102711792D02*
X183304228Y-102855411D01*
X183304228Y-102855411D02*
X183232418Y-102927220D01*
X183232418Y-102927220D02*
X183088799Y-102999030D01*
X183088799Y-102999030D02*
X182873371Y-102999030D01*
D10*
X169545000Y-85725000D02*
X173990000Y-85725000D01*
X173990000Y-85725000D02*
X173990000Y-92075000D01*
X173990000Y-92075000D02*
X169545000Y-92075000D01*
X169545000Y-92075000D02*
X169545000Y-85725000D01*
X167641580Y-90109704D02*
X168451104Y-90109704D01*
X168451104Y-90109704D02*
X168546342Y-90062085D01*
X168546342Y-90062085D02*
X168593961Y-90014466D01*
X168593961Y-90014466D02*
X168641580Y-89919228D01*
X168641580Y-89919228D02*
X168641580Y-89728752D01*
X168641580Y-89728752D02*
X168593961Y-89633514D01*
X168593961Y-89633514D02*
X168546342Y-89585895D01*
X168546342Y-89585895D02*
X168451104Y-89538276D01*
X168451104Y-89538276D02*
X167641580Y-89538276D01*
X168593961Y-89109704D02*
X168641580Y-88966847D01*
X168641580Y-88966847D02*
X168641580Y-88728752D01*
X168641580Y-88728752D02*
X168593961Y-88633514D01*
X168593961Y-88633514D02*
X168546342Y-88585895D01*
X168546342Y-88585895D02*
X168451104Y-88538276D01*
X168451104Y-88538276D02*
X168355866Y-88538276D01*
X168355866Y-88538276D02*
X168260628Y-88585895D01*
X168260628Y-88585895D02*
X168213009Y-88633514D01*
X168213009Y-88633514D02*
X168165390Y-88728752D01*
X168165390Y-88728752D02*
X168117771Y-88919228D01*
X168117771Y-88919228D02*
X168070152Y-89014466D01*
X168070152Y-89014466D02*
X168022533Y-89062085D01*
X168022533Y-89062085D02*
X167927295Y-89109704D01*
X167927295Y-89109704D02*
X167832057Y-89109704D01*
X167832057Y-89109704D02*
X167736819Y-89062085D01*
X167736819Y-89062085D02*
X167689200Y-89014466D01*
X167689200Y-89014466D02*
X167641580Y-88919228D01*
X167641580Y-88919228D02*
X167641580Y-88681133D01*
X167641580Y-88681133D02*
X167689200Y-88538276D01*
X168117771Y-87776371D02*
X168165390Y-87633514D01*
X168165390Y-87633514D02*
X168213009Y-87585895D01*
X168213009Y-87585895D02*
X168308247Y-87538276D01*
X168308247Y-87538276D02*
X168451104Y-87538276D01*
X168451104Y-87538276D02*
X168546342Y-87585895D01*
X168546342Y-87585895D02*
X168593961Y-87633514D01*
X168593961Y-87633514D02*
X168641580Y-87728752D01*
X168641580Y-87728752D02*
X168641580Y-88109704D01*
X168641580Y-88109704D02*
X167641580Y-88109704D01*
X167641580Y-88109704D02*
X167641580Y-87776371D01*
X167641580Y-87776371D02*
X167689200Y-87681133D01*
X167689200Y-87681133D02*
X167736819Y-87633514D01*
X167736819Y-87633514D02*
X167832057Y-87585895D01*
X167832057Y-87585895D02*
X167927295Y-87585895D01*
X167927295Y-87585895D02*
X168022533Y-87633514D01*
X168022533Y-87633514D02*
X168070152Y-87681133D01*
X168070152Y-87681133D02*
X168117771Y-87776371D01*
X168117771Y-87776371D02*
X168117771Y-88109704D01*
%TO.C,A1*%
X128710000Y-97790000D02*
X172720000Y-97790000D01*
X128710000Y-97790000D02*
X128710000Y-80010000D01*
X172720000Y-97790000D02*
X172720000Y-80010000D01*
X128710000Y-80010000D02*
X172720000Y-80010000D01*
%TD*%
%LPC*%
D12*
%TO.C,J6*%
X181610000Y-78590000D03*
D13*
X181610000Y-83390000D03*
X181610000Y-88190000D03*
X181610000Y-92990000D03*
X181610000Y-97790000D03*
%TD*%
D14*
%TO.C,J4*%
X172720000Y-73660000D03*
D13*
X167920000Y-73660000D03*
X163120000Y-73660000D03*
%TD*%
D14*
%TO.C,J2*%
X139319000Y-73533000D03*
D13*
X134519000Y-73533000D03*
X129719000Y-73533000D03*
%TD*%
D15*
%TO.C,J7*%
X146864000Y-73533000D03*
D13*
X151664000Y-73533000D03*
X156464000Y-73533000D03*
%TD*%
D16*
%TO.C,J3*%
X123190000Y-98044000D03*
D13*
X123190000Y-93244000D03*
X123190000Y-88444000D03*
X123190000Y-83644000D03*
X123190000Y-78844000D03*
%TD*%
D17*
%TO.C,A1*%
X130810000Y-96520000D03*
X171450000Y-96520000D03*
X130810000Y-81280000D03*
X171450000Y-81280000D03*
D18*
X166370000Y-81280000D03*
X140970000Y-81280000D03*
X161290000Y-81280000D03*
X158750000Y-81280000D03*
X156210000Y-81280000D03*
X153670000Y-81280000D03*
X151130000Y-81280000D03*
X148590000Y-81280000D03*
X146050000Y-81280000D03*
X143510000Y-81280000D03*
X163830000Y-81280000D03*
X135890000Y-96520000D03*
X133350000Y-96520000D03*
X143510000Y-96520000D03*
X146050000Y-96520000D03*
X148590000Y-96520000D03*
X151130000Y-96520000D03*
X153670000Y-96520000D03*
X156210000Y-96520000D03*
X158750000Y-96520000D03*
X161290000Y-96520000D03*
X163830000Y-96520000D03*
X166370000Y-96520000D03*
X168910000Y-96520000D03*
X168910000Y-81280000D03*
D19*
X140969999Y-96519999D03*
X135889999Y-81279999D03*
D18*
X138430000Y-96520000D03*
X138430000Y-81280000D03*
X133350000Y-81280000D03*
%TD*%
D20*
%TO.C,J5*%
X134620000Y-102870000D03*
D21*
X140620000Y-102870000D03*
X146620000Y-102870000D03*
X152620000Y-102870000D03*
X158620000Y-102870000D03*
X164620000Y-102870000D03*
X170615976Y-102870000D03*
%TD*%
M02*
